<svg width="332" height="221" viewBox="0 0 332 221" fill="none" xmlns="http://www.w3.org/2000/svg">
<path d="M238.252 128.092C235.459 112.511 222.059 98.9196 206.261 97.6202C197.651 96.9218 188.996 99.6313 180.422 98.597C173.155 97.6912 166.468 94.1712 161.613 88.6962C154.53 80.6518 152.136 69.2084 144.637 61.553C134.305 50.9936 116.275 50.83 103.703 58.596C91.1318 66.3619 83.5312 80.3777 80.0518 94.7206L79.9146 99.0832C79.1576 113.961 83.0796 131.274 91.7249 144.534C100.485 157.971 106.244 163.54 122.207 173.18C135.761 181.384 162.304 184.99 178.151 185.37C193.999 185.751 210.275 181.039 222.197 170.599C234.118 160.159 241.05 143.672 238.252 128.092Z" fill="#FF8B00"/>
<g opacity="0.8">
<path opacity="0.8" d="M238.252 128.092C235.459 112.511 222.059 98.9196 206.261 97.6202C197.651 96.9218 188.996 99.6313 180.422 98.597C173.155 97.6912 166.468 94.1712 161.613 88.6962C154.53 80.6518 152.136 69.2084 144.637 61.553C134.305 50.9936 116.275 50.83 103.703 58.596C91.1318 66.3619 83.5312 80.3777 80.0518 94.7206L79.9146 99.0832C79.1576 113.961 83.0796 131.274 91.7249 144.534C100.485 157.971 106.244 163.54 122.207 173.18C135.761 181.384 162.304 184.99 178.151 185.37C193.999 185.751 210.275 181.039 222.197 170.599C234.118 160.159 241.05 143.672 238.252 128.092Z" fill="white"/>
</g>
<path d="M253.787 183.72C254.393 179.552 251.501 175.684 247.327 175.079C243.154 174.474 239.28 177.362 238.674 181.529C238.068 185.696 240.96 189.565 245.133 190.17C249.307 190.775 253.181 187.887 253.787 183.72Z" fill="#FF8B00"/>
<path opacity="0.8" d="M253.787 183.72C254.393 179.552 251.501 175.684 247.327 175.079C243.154 174.474 239.28 177.362 238.674 181.529C238.068 185.696 240.96 189.565 245.133 190.17C249.307 190.775 253.181 187.887 253.787 183.72Z" fill="white"/>
<path d="M192.631 123.959C192.775 139.181 189.453 150.821 182.662 158.877C175.872 166.933 166.576 171.014 154.774 171.12C142.911 171.235 133.48 167.334 126.483 159.416C119.486 151.498 115.912 139.93 115.762 124.71L115.505 97.9428C115.358 82.7792 118.68 71.1399 125.474 63.0247C132.267 54.9096 141.594 50.802 153.455 50.7018C165.259 50.5869 174.663 54.5163 181.666 62.4899C188.669 70.4636 192.241 82.0308 192.383 97.1914L192.631 123.959ZM172.786 94.3802C172.689 84.7947 171.017 77.7168 167.771 73.1466C164.525 68.5763 159.803 66.3191 153.605 66.3751C147.429 66.434 142.767 68.7811 139.622 73.4162C136.476 78.0513 134.94 85.1601 135.013 94.7427L135.323 127.269C135.415 136.905 137.107 144.023 140.401 148.622C143.694 153.222 148.426 155.493 154.597 155.434C160.768 155.375 165.414 153.028 168.537 148.393C171.659 143.758 173.174 136.596 173.083 126.907L172.786 94.3802Z" fill="#FF8B00"/>
<g opacity="0.4">
<path opacity="0.4" d="M192.631 123.959C192.775 139.181 189.453 150.821 182.662 158.877C175.872 166.933 166.576 171.014 154.774 171.12C142.911 171.235 133.48 167.334 126.483 159.416C119.486 151.498 115.912 139.93 115.762 124.71L115.505 97.9428C115.358 82.7792 118.68 71.1399 125.474 63.0247C132.267 54.9096 141.594 50.802 153.455 50.7018C165.259 50.5869 174.663 54.5163 181.666 62.4899C188.669 70.4636 192.241 82.0308 192.383 97.1914L192.631 123.959ZM172.786 94.3802C172.689 84.7947 171.017 77.7168 167.771 73.1466C164.525 68.5763 159.803 66.3191 153.605 66.3751C147.429 66.434 142.767 68.7811 139.622 73.4162C136.476 78.0513 134.94 85.1601 135.013 94.7427L135.323 127.269C135.415 136.905 137.107 144.023 140.401 148.622C143.694 153.222 148.426 155.493 154.597 155.434C160.768 155.375 165.414 153.028 168.537 148.393C171.659 143.758 173.174 136.596 173.083 126.907L172.786 94.3802Z" fill="black"/>
</g>
<path d="M203.901 123.853C204.049 139.072 200.726 150.712 193.932 158.771C187.139 166.83 177.843 170.911 166.044 171.014C154.181 171.129 144.751 167.226 137.753 159.306C130.756 151.385 127.187 139.814 127.045 124.591L126.789 97.8235C126.641 82.66 129.964 71.0206 136.757 62.9055C143.551 54.7904 152.878 50.6813 164.738 50.5781C176.543 50.4691 185.947 54.3985 192.95 62.3663C199.953 70.3341 203.512 81.9071 203.627 97.0854L203.901 123.853ZM184.056 94.2743C183.962 84.6917 182.283 77.6197 179.019 73.0583C175.755 68.4968 171.033 66.2397 164.854 66.2868C158.677 66.3487 154.016 68.6957 150.87 73.3279C147.724 77.96 146.195 85.0703 146.284 94.6588L146.598 127.181C146.692 136.82 148.385 143.939 151.675 148.539C154.966 153.138 159.698 155.409 165.872 155.35C172.042 155.288 176.689 152.941 179.811 148.309C182.934 143.677 184.447 136.513 184.353 126.819L184.056 94.2743Z" fill="#FF8B00"/>
<path d="M126.846 99.4146C126.868 99.4721 124.252 100.511 121.003 101.731C117.754 102.951 115.093 103.87 115.093 103.83C115.093 103.79 117.687 102.734 120.937 101.514C124.186 100.294 126.824 99.3527 126.846 99.4146Z" fill="#FF8B00"/>
<path d="M127.488 109.992C127.51 110.049 124.894 111.088 121.64 112.308C118.387 113.528 115.74 114.465 115.718 114.407C115.695 114.35 118.312 113.311 121.561 112.091C124.81 110.871 127.488 109.93 127.488 109.992Z" fill="#FF8B00"/>
<path d="M128.148 120.569C128.17 120.626 125.554 121.665 122.3 122.885C119.046 124.105 116.421 125.042 116.377 124.984C116.333 124.927 118.971 123.888 122.22 122.668C125.469 121.448 128.125 120.507 128.148 120.569Z" fill="#FF8B00"/>
<path d="M128.816 131.146C128.838 131.203 126.222 132.242 122.968 133.462C119.715 134.682 117.063 135.619 117.041 135.561C117.019 135.504 119.64 134.465 122.889 133.245C126.138 132.025 128.776 131.084 128.816 131.146Z" fill="#FF8B00"/>
<path d="M129.449 141.723C129.321 141.805 129.185 141.871 129.042 141.922C128.776 142.037 128.387 142.196 127.909 142.386C126.944 142.77 125.611 143.27 124.133 143.84C122.654 144.41 121.308 144.883 120.33 145.228C119.843 145.4 119.445 145.537 119.17 145.626C119.029 145.685 118.88 145.724 118.728 145.741C118.855 145.658 118.991 145.591 119.135 145.542C119.401 145.427 119.786 145.268 120.268 145.1C121.229 144.715 122.566 144.216 124.044 143.646C125.523 143.075 126.868 142.598 127.847 142.258C128.334 142.085 128.732 141.948 129.006 141.86C129.146 141.792 129.295 141.746 129.449 141.723Z" fill="#FF8B00"/>
<path d="M132.473 151.398C132.046 151.628 131.602 151.824 131.145 151.986C130.303 152.322 129.139 152.773 127.851 153.259C126.563 153.745 125.385 154.17 124.536 154.466C124.082 154.65 123.614 154.798 123.137 154.908C123.563 154.677 124.007 154.48 124.465 154.32C125.301 153.98 126.466 153.529 127.758 153.047C129.051 152.565 130.219 152.136 131.074 151.84C131.527 151.654 131.995 151.506 132.473 151.398Z" fill="#FF8B00"/>
<path d="M138.949 160.274C138.568 160.485 138.169 160.664 137.758 160.809C137.01 161.109 135.987 161.511 134.827 161.944C133.668 162.378 132.614 162.753 131.87 163.014C131.466 163.178 131.048 163.306 130.622 163.399C131.002 163.185 131.401 163.006 131.813 162.864C132.557 162.563 133.584 162.161 134.743 161.728C135.903 161.295 136.957 160.919 137.7 160.654C138.104 160.49 138.522 160.363 138.949 160.274Z" fill="#FF8B00"/>
<path d="M149.71 166.095C149.328 166.304 148.93 166.481 148.519 166.625C147.771 166.93 146.748 167.332 145.589 167.761C144.429 168.19 143.375 168.57 142.632 168.835C142.228 168.999 141.81 169.126 141.383 169.215C141.764 169.004 142.163 168.825 142.574 168.68C143.322 168.38 144.345 167.978 145.505 167.544C146.664 167.111 147.718 166.736 148.462 166.475C148.865 166.309 149.283 166.181 149.71 166.095Z" fill="#FF8B00"/>
<path d="M182.166 143.522C182.193 143.579 178.833 145.144 174.663 147.018C170.493 148.892 167.089 150.36 167.062 150.302C167.036 150.245 170.396 148.68 174.588 146.806C178.78 144.932 182.14 143.464 182.166 143.522Z" fill="#FF8B00"/>
<path d="M184.371 134.461C184.397 134.518 181.622 135.818 178.173 137.365C174.725 138.912 171.91 140.123 171.883 140.065C171.856 140.008 174.628 138.704 178.08 137.157C181.533 135.61 184.344 134.403 184.371 134.461Z" fill="#FF8B00"/>
<path d="M185.384 124.282C185.411 124.339 182.635 125.639 179.187 127.186C175.739 128.733 172.923 129.944 172.897 129.886C172.87 129.829 175.641 128.525 179.094 126.978C182.547 125.431 185.358 124.202 185.384 124.282Z" fill="#FF8B00"/>
<path d="M186.398 114.098C186.425 114.155 183.654 115.459 180.201 117.006C176.748 118.553 173.937 119.76 173.911 119.703C173.884 119.645 176.66 118.346 180.108 116.799C183.556 115.252 186.363 114.036 186.398 114.098Z" fill="#FF8B00"/>
<path d="M187.416 103.919C187.438 103.976 184.667 105.28 181.219 106.827C177.771 108.374 174.955 109.581 174.929 109.523C174.902 109.466 177.678 108.166 181.126 106.615C184.574 105.063 187.39 103.87 187.416 103.919Z" fill="#FF8B00"/>
<path d="M185.384 94.8533C185.411 94.9107 182.635 96.2146 179.187 97.7616C175.739 99.3086 172.923 100.515 172.897 100.458C172.87 100.4 175.641 99.0965 179.094 97.5495C182.547 96.0025 185.358 94.7958 185.384 94.8533Z" fill="#FF8B00"/>
<path d="M185.384 85.0939C185.411 85.1513 182.635 86.4552 179.187 88.0023C175.739 89.5493 172.923 90.7559 172.897 90.6984C172.87 90.641 175.641 89.3371 179.094 87.7901C182.547 86.2431 185.358 85.0364 185.384 85.0939Z" fill="#FF8B00"/>
<path d="M184.371 75.9047C184.397 75.9621 181.622 77.2616 178.173 78.8086C174.725 80.3556 171.91 81.5667 171.883 81.5092C171.856 81.4518 174.628 80.1479 178.08 78.6009C181.533 77.0539 184.344 75.8472 184.371 75.9047Z" fill="#FF8B00"/>
<path d="M175.628 69.5001C174.413 70.1725 173.161 70.7775 171.879 71.3123C170.627 71.9158 169.343 72.4499 168.032 72.9124C169.246 72.2368 170.498 71.6317 171.781 71.1002C173.033 70.4967 174.317 69.9626 175.628 69.5001Z" fill="#FF8B00"/>
<path d="M170.954 65.5796C169.737 66.2483 168.485 66.8518 167.204 67.3874C165.952 67.9908 164.668 68.525 163.357 68.9874C164.573 68.3181 165.825 67.716 167.107 67.1841C168.359 66.5791 169.643 66.0435 170.954 65.5796Z" fill="#FF8B00"/>
<path d="M127.346 86.5922C127.368 86.6497 124.752 87.6884 121.503 88.9083C118.254 90.1282 115.598 91.0697 115.576 91.0078C115.554 90.9459 118.17 89.9117 121.423 88.6917C124.677 87.4718 127.324 86.5348 127.346 86.5922Z" fill="#FF8B00"/>
<path d="M130.587 73.4029C130.613 73.4604 127.771 74.5786 124.252 75.9046C120.733 77.2306 117.851 78.2472 117.829 78.1898C117.807 78.1323 120.644 77.0097 124.168 75.6881C127.692 74.3665 130.587 73.341 130.587 73.4029Z" fill="#FF8B00"/>
<path d="M139.117 60.3463C139.139 60.4082 135.54 61.8093 131.078 63.4845C126.616 65.1597 122.982 66.468 122.96 66.4105C122.937 66.3531 126.536 64.9431 130.998 63.2679C135.46 61.5927 139.095 60.2889 139.117 60.3463Z" fill="#FF8B00"/>
<path d="M201.993 143.65L201.807 143.588L201.276 143.38C201.041 143.296 200.736 143.23 200.391 143.133C199.977 143.052 199.559 143.001 199.138 142.978C197.248 142.859 194.415 143.544 191.675 145.595C190.191 146.717 188.862 148.029 187.722 149.498C186.451 151.049 185.207 152.804 183.795 154.572C182.358 156.468 180.638 158.133 178.696 159.509C176.569 160.941 174.165 161.914 171.639 162.364C169.114 162.818 166.52 162.733 164.03 162.112C161.732 161.511 159.499 160.683 157.363 159.642C155.305 158.691 153.379 157.723 151.547 156.923C149.842 156.172 148.073 155.575 146.261 155.142C144.767 154.79 143.237 154.615 141.702 154.62C140.543 154.629 139.39 154.785 138.271 155.085C137.567 155.291 136.883 155.558 136.226 155.885L135.721 156.15C135.666 156.184 135.606 156.212 135.544 156.234L135.708 156.132L136.204 155.845C136.855 155.498 137.539 155.215 138.245 155.001C139.369 154.684 140.529 154.513 141.697 154.492C143.245 154.472 144.789 154.637 146.297 154.983C148.117 155.411 149.895 156.003 151.609 156.751C153.459 157.547 155.385 158.519 157.439 159.456C159.566 160.487 161.79 161.304 164.079 161.896C166.541 162.51 169.106 162.594 171.604 162.143C174.098 161.698 176.473 160.739 178.576 159.328C180.504 157.968 182.212 156.321 183.64 154.444C185.052 152.676 186.296 150.934 187.584 149.378C188.735 147.906 190.074 146.59 191.568 145.467C194.348 143.416 197.221 142.744 199.134 142.894C199.559 142.922 199.982 142.98 200.4 143.067C200.754 143.177 201.059 143.248 201.285 143.341L201.812 143.57L201.993 143.65Z" fill="white"/>
<path d="M204.787 114.169C204.787 114.191 204.472 114.231 203.923 114.412C203.16 114.691 202.44 115.076 201.785 115.557C200.944 116.144 200.015 116.967 198.948 117.815C197.771 118.732 196.495 119.516 195.145 120.153C192.695 121.326 190.04 122.011 187.328 122.169C186.81 122.213 186.336 122.2 185.925 122.209C185.513 122.217 185.159 122.182 184.871 122.16L184.203 122.094C184.126 122.093 184.049 122.079 183.977 122.054C184.053 122.043 184.131 122.043 184.207 122.054L184.875 122.076H185.925C186.336 122.054 186.81 122.076 187.315 122.005C189.998 121.799 192.619 121.099 195.048 119.941C196.382 119.308 197.646 118.538 198.819 117.643C199.895 116.812 200.829 115.994 201.697 115.433C202.373 114.955 203.12 114.585 203.91 114.337C204.125 114.275 204.344 114.228 204.565 114.195C204.637 114.175 204.712 114.166 204.787 114.169Z" fill="white"/>
<path d="M146.965 124.41C146.885 124.406 146.805 124.394 146.726 124.374C146.567 124.339 146.332 124.304 146.036 124.22C145.205 123.974 144.407 123.625 143.663 123.181C142.572 122.512 141.535 121.757 140.565 120.922C139.453 120.003 138.267 118.955 136.908 118.018C135.639 117.123 134.215 116.471 132.707 116.096C130.636 115.587 128.471 115.596 126.404 116.122C125.815 116.273 125.496 116.387 125.492 116.365C125.56 116.321 125.635 116.286 125.713 116.264C125.864 116.206 126.085 116.118 126.381 116.034C127.211 115.792 128.064 115.643 128.927 115.592C130.212 115.497 131.504 115.603 132.756 115.906C134.292 116.278 135.745 116.936 137.036 117.846C138.413 118.796 139.599 119.853 140.702 120.776C141.658 121.613 142.676 122.377 143.747 123.062C144.476 123.51 145.252 123.877 146.062 124.153C146.368 124.223 146.669 124.308 146.965 124.41Z" fill="white"/>
<path d="M147.041 82.6275C146.802 82.738 146.555 82.8282 146.301 82.8971C146.011 82.9993 145.716 83.0864 145.416 83.1579C145.066 83.2463 144.672 83.3656 144.225 83.4452C143.778 83.5248 143.296 83.6353 142.765 83.7016C142.233 83.7679 141.671 83.8297 141.074 83.8828C139.776 83.965 138.473 83.9488 137.178 83.8342C135.884 83.7049 134.601 83.4788 133.34 83.1579C132.765 82.9944 132.211 82.8441 131.711 82.6629C131.211 82.4816 130.742 82.3137 130.326 82.1413C129.909 81.9689 129.538 81.7877 129.21 81.6374C128.882 81.4871 128.612 81.3413 128.391 81.2175C128.157 81.1008 127.932 80.9664 127.718 80.8153C127.963 80.9055 128.202 81.0133 128.431 81.138C128.657 81.2485 128.936 81.3855 129.263 81.5225C129.591 81.6595 129.963 81.8363 130.388 81.9866C130.812 82.1369 131.273 82.3269 131.773 82.4816C132.273 82.6363 132.818 82.7955 133.393 82.9502C135.897 83.5806 138.483 83.8236 141.06 83.6706C141.653 83.622 142.216 83.5911 142.742 83.5115C143.269 83.4319 143.752 83.3656 144.194 83.2861C144.637 83.2065 145.031 83.1093 145.381 83.0341C145.73 82.959 146.031 82.8794 146.266 82.8131C146.519 82.7328 146.778 82.6708 147.041 82.6275Z" fill="white"/>
<path d="M202.272 82.517C202.207 82.4931 202.145 82.462 202.086 82.4242L201.573 82.1281C201.306 81.9661 201.032 81.8186 200.749 81.6861C200.386 81.4912 200.012 81.3156 199.63 81.1601L198.966 80.8816C198.731 80.7888 198.483 80.7181 198.226 80.6297C197.722 80.444 197.159 80.3159 196.571 80.1612C193.997 79.5765 191.327 79.5539 188.744 80.0949C188.182 80.2137 187.627 80.3612 187.08 80.5369C186.823 80.6208 186.571 80.6871 186.336 80.7755L185.668 81.0407C185.283 81.191 184.906 81.3606 184.539 81.549C184.254 81.6785 183.977 81.8262 183.711 81.991L183.189 82.2783C183.069 82.3402 183.003 82.3712 182.999 82.3623C183.049 82.3139 183.105 82.2723 183.167 82.2386L183.663 81.9115C183.925 81.7372 184.198 81.5807 184.481 81.443C184.845 81.2392 185.22 81.0577 185.606 80.8993L186.274 80.6164C186.509 80.5236 186.766 80.4529 187.022 80.3645C187.573 80.1791 188.133 80.0242 188.7 79.9004C191.312 79.3285 194.019 79.3526 196.619 79.9711C197.213 80.1302 197.779 80.2672 198.288 80.4617C198.545 80.5545 198.797 80.6297 199.027 80.7313L199.696 81.0231C200.077 81.1913 200.449 81.3787 200.811 81.5844C201.09 81.7288 201.359 81.8912 201.617 82.0706L202.113 82.4065C202.224 82.464 202.299 82.5082 202.272 82.517Z" fill="white"/>
<path d="M175.208 52.4919C175.108 52.567 175.001 52.6322 174.889 52.6864L173.968 53.1947C173.149 53.6367 171.963 54.2511 170.475 54.9937C167.51 56.4567 163.344 58.4589 158.413 59.7054C156.094 60.2873 153.72 60.6163 151.33 60.6866C149.38 60.7435 147.43 60.5759 145.518 60.1872C144.229 59.9288 142.969 59.5454 141.755 59.0424C141.313 58.8744 141.007 58.6976 140.786 58.6004C140.671 58.5511 140.56 58.4935 140.454 58.428C140.575 58.4593 140.692 58.5038 140.804 58.5606C141.034 58.6446 141.352 58.8081 141.791 58.9628C143.009 59.4313 144.267 59.7893 145.549 60.0325C147.452 60.3954 149.39 60.5437 151.326 60.4745C153.696 60.3923 156.051 60.0589 158.351 59.48C163.251 58.2424 167.421 56.2755 170.4 54.8478L173.942 53.1107L174.853 52.6422C174.968 52.5845 175.086 52.5343 175.208 52.4919Z" fill="white"/>
<path d="M86.3466 129.506L101.145 130.151L100.459 145.811L85.6605 145.166L84.5228 171.187L65.0455 170.338L66.1831 144.318L15.936 142.125L15.9759 130.191L69.5385 53.3716L89.6445 54.2556L86.3466 129.506ZM35.4399 127.296L66.8693 128.666L68.9409 81.2043L68.4673 81.0231L66.6966 84.4044L35.4399 127.296Z" fill="#FF8B00"/>
<g opacity="0.4">
<path opacity="0.4" d="M86.3466 129.506L101.145 130.151L100.459 145.811L85.6605 145.166L84.5228 171.187L65.0455 170.338L66.1831 144.318L15.936 142.125L15.9759 130.191L69.5385 53.3716L89.6445 54.2556L86.3466 129.506ZM35.4399 127.296L66.8693 128.666L68.9409 81.2043L68.4673 81.0231L66.6966 84.4044L35.4399 127.296Z" fill="black"/>
</g>
<path d="M98.7147 130.045L113.513 130.691L112.827 146.351L98.0285 145.705L96.8909 171.726L77.4136 170.877L78.5512 144.857L28.282 142.647L28.3218 130.713L81.8933 53.9241L102.004 54.8081L98.7147 130.045ZM47.808 127.835L79.2595 129.206L81.3312 81.7436L80.8575 81.5623L79.0868 84.9436L47.808 127.835Z" fill="#FF8B00"/>
<path d="M28.5919 133.007C28.4432 133.114 28.2828 133.205 28.1138 133.276C27.7995 133.435 27.3391 133.656 26.7858 133.922C25.6481 134.456 24.059 135.168 22.2839 135.919C20.5088 136.671 18.893 137.307 17.7155 137.754C17.1268 137.975 16.6443 138.147 16.3123 138.262C16.1424 138.332 15.9659 138.386 15.7855 138.421C15.9408 138.321 16.1072 138.24 16.2813 138.178L17.6536 137.599L22.1776 135.694L26.7017 133.763L28.0784 133.179C28.2432 133.104 28.4153 133.047 28.5919 133.007Z" fill="#FF8B00"/>
<path d="M35.7985 119.782C35.584 119.914 35.3606 120.03 35.1301 120.131C34.6874 120.343 34.0588 120.644 33.2709 121.015C31.6906 121.731 29.4994 122.69 27.0736 123.72C24.6478 124.75 22.4034 125.63 20.8054 126.257C19.9998 126.576 19.3446 126.823 18.8842 126.987C18.6529 127.085 18.4128 127.162 18.1671 127.216C18.3882 127.096 18.6175 126.991 18.8532 126.903L20.7434 126.107L26.9895 123.486L33.2222 120.834L35.1124 120.034C35.3327 119.929 35.5625 119.844 35.7985 119.782Z" fill="#FF8B00"/>
<path d="M44.5943 107.967C44.3716 108.105 44.1376 108.223 43.8949 108.321C43.4522 108.533 42.7749 108.834 41.9516 109.205C40.3004 109.925 38.0118 110.885 35.4709 111.914C32.93 112.944 30.6016 113.842 28.9239 114.474C28.0828 114.787 27.3967 115.035 26.923 115.199C26.6812 115.298 26.4308 115.375 26.1749 115.428C26.4069 115.308 26.6464 115.203 26.892 115.115L28.8663 114.319L35.3824 111.698L41.8852 109.046L43.8595 108.246C44.0968 108.134 44.3425 108.041 44.5943 107.967Z" fill="#FF8B00"/>
<path d="M79.8261 121.599C79.6752 121.703 79.5134 121.79 79.3436 121.859C79.0293 122.014 78.5689 122.226 77.9934 122.483C76.8514 123 75.2578 123.685 73.4827 124.405C71.7076 125.126 70.083 125.731 68.9055 126.173C68.3123 126.385 67.8342 126.553 67.5022 126.664C67.3316 126.729 67.1553 126.778 66.9755 126.81C67.1296 126.714 67.2946 126.637 67.4668 126.58L68.8479 126.023L73.3986 124.202L77.9315 122.346L79.3082 121.784C79.4735 121.704 79.6471 121.641 79.8261 121.599Z" fill="#FF8B00"/>
<path d="M78.3918 145.882C78.2471 145.986 78.0912 146.073 77.927 146.143C77.6216 146.293 77.1745 146.51 76.6212 146.766C75.5145 147.283 73.9652 147.968 72.2521 148.684C70.5389 149.4 68.9542 150.01 67.8254 150.452C67.2499 150.665 66.7851 150.832 66.462 150.939C66.2969 151.007 66.1247 151.058 65.9485 151.089C66.0985 150.993 66.2589 150.914 66.4266 150.855L67.7546 150.298L72.1812 148.481L76.5725 146.625L77.9005 146.068C78.0573 145.989 78.222 145.927 78.3918 145.882Z" fill="#FF8B00"/>
<path d="M78.1882 154.395C78.0508 154.497 77.9023 154.583 77.7456 154.651C77.4401 154.806 76.993 155.018 76.4176 155.279C75.3109 155.792 73.7616 156.477 72.044 157.197C70.3265 157.918 68.7506 158.523 67.6174 158.965C67.0463 159.177 66.5815 159.345 66.2539 159.456C66.0914 159.527 65.9202 159.576 65.7449 159.602C65.8963 159.51 66.0565 159.433 66.223 159.372L67.551 158.815L71.9776 156.998L76.3733 155.142L77.7013 154.585C77.8551 154.502 78.0187 154.438 78.1882 154.395Z" fill="#FF8B00"/>
<path d="M77.9846 162.904C77.8461 163.005 77.6978 163.092 77.542 163.164C77.2365 163.319 76.7894 163.531 76.214 163.788C75.1029 164.305 73.558 164.99 71.8404 165.706C70.1229 166.422 68.547 167.032 67.4137 167.474C66.8427 167.686 66.3735 167.854 66.0503 167.96C65.8864 168.028 65.7157 168.078 65.5413 168.11C65.6911 168.014 65.8515 167.936 66.0193 167.876L67.3473 167.324L71.774 165.503L76.1697 163.646L77.4977 163.089C77.6527 163.01 77.816 162.947 77.9846 162.904Z" fill="#FF8B00"/>
<path d="M80.0563 112.608C79.9041 112.711 79.7426 112.798 79.5737 112.869C79.2595 113.024 78.7991 113.236 78.2457 113.492C77.1037 114.01 75.5101 114.695 73.735 115.415C71.9599 116.136 70.3353 116.741 69.1578 117.183C68.5646 117.395 68.0866 117.563 67.7546 117.669C67.5844 117.737 67.4079 117.787 67.2278 117.82C67.381 117.721 67.5461 117.642 67.7191 117.585L69.1003 117.028L73.6509 115.212L78.1838 113.355L79.5605 112.798C79.7185 112.718 79.8847 112.654 80.0563 112.608Z" fill="#FF8B00"/>
<path d="M80.2865 103.618C80.1344 103.72 79.9728 103.807 79.804 103.879C79.4897 104.029 79.0293 104.246 78.4539 104.502C77.3118 105.019 75.7182 105.704 73.9431 106.42C72.168 107.136 70.5479 107.746 69.3659 108.188C68.7728 108.4 68.2947 108.564 67.9627 108.675C67.7925 108.742 67.6161 108.792 67.4359 108.825C67.5905 108.726 67.7571 108.647 67.9317 108.591L69.3084 108.034L73.859 106.217L78.3919 104.361L79.7686 103.804C79.9339 103.723 80.1076 103.661 80.2865 103.618Z" fill="#FF8B00"/>
<path d="M80.5167 94.6278C80.3778 94.7249 80.2295 94.8078 80.074 94.8753C79.7774 95.0212 79.3392 95.2245 78.7947 95.472C77.7013 95.9671 76.1874 96.6256 74.4964 97.3063C72.8054 97.987 71.2561 98.5749 70.1317 98.9771C69.5695 99.176 69.1136 99.3351 68.8037 99.4191C68.6413 99.4849 68.472 99.5323 68.2991 99.5605C68.4477 99.4674 68.6067 99.3918 68.7727 99.3351L70.1007 98.8047L74.4344 97.0765L78.7549 95.3085L80.0829 94.7781C80.2213 94.7119 80.3669 94.6614 80.5167 94.6278Z" fill="#FF8B00"/>
<path d="M81.5348 86.2253C80.8281 86.6074 80.0871 86.9226 79.3215 87.1668C78.5805 87.4818 77.8112 87.726 77.024 87.8961C77.7308 87.5128 78.4718 87.1962 79.2374 86.9502C79.978 86.6353 80.7474 86.3925 81.5348 86.2253Z" fill="#FF8B00"/>
<path d="M53.3723 95.7328C53.1491 95.8665 52.9169 95.9847 52.6773 96.0864C52.2347 96.2985 51.5574 96.5947 50.7296 96.9704C49.0829 97.6908 46.7943 98.65 44.249 99.6799C41.7036 100.71 39.3796 101.611 37.7064 102.239C36.8653 102.553 36.1792 102.8 35.7055 102.964C35.4617 103.059 35.2118 103.137 34.9574 103.198C35.1869 103.072 35.4268 102.965 35.6745 102.88L37.6488 102.089L44.1649 99.45L50.6676 96.798L52.6375 95.998C52.8763 95.8934 53.1218 95.8048 53.3723 95.7328Z" fill="#FF8B00"/>
<path d="M62.1548 83.4938C61.9321 83.6311 61.6981 83.7494 61.4554 83.8474C61.0127 84.0595 60.3354 84.3601 59.5121 84.7314C57.8654 85.4474 55.5724 86.411 53.0314 87.4364C50.4905 88.4619 48.1621 89.368 46.4888 89.9956C45.6433 90.3138 44.9616 90.5614 44.4835 90.7249C44.2428 90.8229 43.994 90.8998 43.7399 90.9547C43.9694 90.8329 44.2076 90.728 44.4526 90.6409L46.4269 89.8453L52.9429 87.2243L59.4501 84.5723L61.42 83.7678C61.6578 83.6585 61.9034 83.5669 62.1548 83.4938Z" fill="#FF8B00"/>
<path d="M70.2689 71.2593C70.0444 71.3935 69.8107 71.5116 69.5695 71.6129C69.1269 71.825 68.4496 72.1212 67.6262 72.4969C65.9795 73.2173 63.6865 74.1765 61.1456 75.2063C58.6047 76.2362 56.2762 77.1379 54.603 77.7655C53.7619 78.0793 53.0758 78.3269 52.6021 78.4904C52.3583 78.5853 52.1084 78.6636 51.854 78.7247C52.0835 78.5983 52.3234 78.4918 52.5711 78.4064L54.5454 77.6152L61.0615 74.9942L67.5642 72.3422L69.5341 71.5422C69.7702 71.4265 70.0161 71.3318 70.2689 71.2593Z" fill="#FF8B00"/>
<path d="M78.715 59.4933C78.4898 59.6263 78.2562 59.7444 78.0156 59.8469C77.5729 60.059 76.8957 60.3552 76.0723 60.7309C74.4211 61.4513 72.1326 62.4105 69.5917 63.4403C67.0507 64.4702 64.7223 65.3719 63.0446 65.9995C62.2035 66.3133 61.5218 66.5609 61.0438 66.7244C60.8005 66.8208 60.5505 66.8991 60.2957 66.9587C60.5257 66.8334 60.7655 66.727 61.0128 66.6404L62.9871 65.8492L69.4987 63.2061L76.0015 60.5541L77.9758 59.7541C78.2154 59.6491 78.4625 59.5619 78.715 59.4933Z" fill="#FF8B00"/>
<path d="M101.123 77.4693C101.049 77.5761 100.963 77.674 100.866 77.761C100.616 78.0356 100.348 78.294 100.065 78.5345C99.0323 79.4346 97.8736 80.1792 96.6253 80.7445C94.7636 81.5799 92.752 82.0309 90.7113 82.0705C89.5051 82.0928 88.3012 81.9575 87.1301 81.6683C85.88 81.3486 84.6677 80.8967 83.5135 80.3202C81.132 79.1622 79.0161 77.7964 76.9488 76.8461C75.1369 75.9591 73.1648 75.4451 71.1499 75.3345C69.7923 75.265 68.4375 75.5179 67.1969 76.0726C66.8624 76.2292 66.5412 76.4125 66.2363 76.6207C66.1322 76.6976 66.0227 76.767 65.9087 76.8284C66.0031 76.7404 66.1037 76.6591 66.2097 76.5853C66.507 76.3598 66.824 76.1616 67.157 75.993C68.3987 75.4008 69.7659 75.1187 71.141 75.1709C73.1844 75.2677 75.1864 75.7806 77.0241 76.6781C79.1134 77.6284 81.2382 78.9898 83.5977 80.139C84.7405 80.7039 85.9392 81.1483 87.1744 81.465C88.325 81.7514 89.5079 81.888 90.6936 81.8716C94.0919 81.825 97.372 80.6194 99.9896 78.455C100.366 78.1544 100.631 77.8892 100.817 77.7168C100.913 77.6264 101.015 77.5437 101.123 77.4693Z" fill="white"/>
<path d="M94.9608 55.6169C94.7824 55.7407 94.5944 55.85 94.3986 55.944C94.0312 56.1429 93.4823 56.386 92.7918 56.6954C91.9823 57.0353 91.1548 57.3304 90.3128 57.5794C88.25 58.1943 86.1166 58.5419 83.965 58.6137C83.0794 58.6459 82.1926 58.6282 81.309 58.5607C80.5609 58.5032 79.981 58.4325 79.5383 58.3573C79.3225 58.3332 79.1092 58.2903 78.9009 58.2292C79.1186 58.2216 79.3365 58.2349 79.5516 58.2689C79.9633 58.3176 80.5653 58.3618 81.3223 58.3971C82.0792 58.4325 82.9557 58.4413 83.9384 58.3971C85.0029 58.3444 86.0639 58.2353 87.1168 58.07C88.1611 57.8909 89.1953 57.6578 90.2154 57.3717C91.1583 57.0976 91.9861 56.8148 92.6899 56.5407C93.3938 56.2667 93.9383 56.0324 94.319 55.86C94.5247 55.7588 94.7396 55.6774 94.9608 55.6169Z" fill="white"/>
<path d="M63.5316 104.705C63.3856 104.57 63.2523 104.422 63.1332 104.263L62.0885 103.017C60.9224 101.662 59.6841 100.371 58.3789 99.1495C57.6703 98.4783 56.8911 97.8856 56.0549 97.3815C55.3709 96.9729 54.6226 96.683 53.8416 96.524C53.1169 96.3947 52.3751 96.3947 51.6504 96.524C51.6504 96.524 51.6991 96.4975 51.7965 96.4665C51.9405 96.419 52.0887 96.3849 52.2391 96.3649C52.7828 96.2737 53.3378 96.2737 53.8814 96.3649C54.6881 96.505 55.4631 96.7879 56.17 97.2003C57.0294 97.7061 57.8271 98.3098 58.5471 98.9992C59.8618 100.224 61.0895 101.538 62.2213 102.933C62.6639 103.468 62.9915 103.914 63.2128 104.224C63.3359 104.372 63.4428 104.534 63.5316 104.705Z" fill="white"/>
<path d="M98.8431 118.058C98.8431 118.058 98.7855 118.111 98.6704 118.191C98.5553 118.27 98.3827 118.399 98.1437 118.531C97.479 118.92 96.7814 119.25 96.0587 119.517C93.6648 120.42 91.0638 120.627 88.5568 120.114C86.0499 119.602 83.7395 118.391 81.8934 116.622C81.3337 116.097 80.8239 115.521 80.3706 114.902C80.2068 114.686 80.1006 114.505 80.0209 114.385C79.9412 114.266 79.9058 114.2 79.9147 114.195C80.102 114.404 80.2778 114.622 80.4414 114.849C80.9199 115.439 81.4422 115.991 82.004 116.502C83.8518 118.208 86.1316 119.376 88.5965 119.88C91.0614 120.384 93.6175 120.205 95.9879 119.362C96.7057 119.114 97.4028 118.809 98.0728 118.452C98.3222 118.307 98.5793 118.175 98.8431 118.058Z" fill="white"/>
<path d="M111.738 146.046C111.738 146.046 111.694 145.979 111.614 145.838C111.534 145.697 111.41 145.493 111.26 145.228C110.816 144.442 110.309 143.693 109.746 142.987L109.144 142.28L108.821 141.895L108.444 141.528L107.648 140.742L106.718 139.973C105.233 138.795 103.595 137.824 101.849 137.086C99.7403 136.196 97.4942 135.674 95.2087 135.544C92.5779 135.403 89.9473 135.825 87.4931 136.781C84.9035 137.798 82.4024 139.332 79.7552 140.817C78.4146 141.59 77.0263 142.278 75.5986 142.877C74.1191 143.499 72.5586 143.908 70.9639 144.092C69.3681 144.252 67.7569 144.155 66.1919 143.805C64.6772 143.472 63.2033 142.976 61.7963 142.324C59.1606 141.051 56.6526 139.529 54.3063 137.78C52.0355 136.167 49.8797 134.607 47.7504 133.36C45.7929 132.163 43.6708 131.258 41.4513 130.673C39.6122 130.221 37.7077 130.095 35.825 130.302C34.4036 130.449 33.0199 130.849 31.7392 131.482C30.938 131.892 30.1939 132.404 29.5259 133.007L29.0124 133.484C28.9017 133.595 28.8397 133.648 28.8397 133.648C28.8397 133.648 28.8884 133.586 28.9991 133.466L29.4816 132.949C30.1455 132.329 30.89 131.802 31.6949 131.38C32.9818 130.726 34.3765 130.31 35.8117 130.151C37.7101 129.929 39.633 130.044 41.4911 130.492C43.7284 131.074 45.8695 131.976 47.8478 133.17C50.0036 134.417 52.155 135.972 54.4303 137.59C56.7678 139.326 59.2653 140.835 61.8892 142.099C63.2796 142.75 64.7373 143.246 66.2362 143.579C67.7795 143.924 69.3682 144.019 70.9417 143.862C72.5116 143.68 74.048 143.279 75.5056 142.669C76.9242 142.073 78.3049 141.391 79.6402 140.627C82.2962 139.146 84.7928 137.608 87.4045 136.587C88.0488 136.334 88.7082 136.122 89.3788 135.95C89.7108 135.866 90.0384 135.765 90.366 135.698L91.3575 135.535C92.6319 135.345 93.9223 135.286 95.2087 135.358C97.5217 135.496 99.7934 136.031 101.924 136.94C103.672 137.696 105.31 138.683 106.793 139.875C107.112 140.145 107.422 140.41 107.723 140.658L108.515 141.458L108.887 141.829C108.998 141.962 109.108 142.09 109.21 142.218C109.423 142.47 109.622 142.709 109.808 142.938C110.367 143.652 110.863 144.412 111.291 145.21C111.435 145.481 111.546 145.689 111.623 145.834C111.707 145.971 111.738 146.046 111.738 146.046Z" fill="white"/>
<path d="M98.3606 164.508C98.2882 164.537 98.2123 164.556 98.1348 164.566L97.4797 164.689C97.1358 164.759 96.7886 164.81 96.4394 164.844C96.0322 164.884 95.5541 164.95 95.0494 164.963L94.2349 164.999C93.9561 164.999 93.6595 164.999 93.3496 164.999C92.7432 164.999 92.0924 164.941 91.4107 164.888C89.9333 164.727 88.4719 164.443 87.0416 164.04C85.6182 163.612 84.2324 163.068 82.8982 162.413C82.2962 162.09 81.7163 161.794 81.2028 161.463C80.9461 161.304 80.6893 161.158 80.4547 161.021L79.7907 160.557C79.3481 160.269 79.0072 159.964 78.6841 159.708C78.4048 159.494 78.1373 159.265 77.8828 159.023C77.6925 158.837 77.5287 158.687 77.4003 158.581C77.3402 158.53 77.2867 158.472 77.241 158.408C77.3096 158.447 77.3734 158.493 77.4313 158.545L77.9448 158.987C78.1617 159.173 78.4317 159.399 78.7637 159.637C79.0957 159.876 79.4499 160.176 79.8837 160.455L80.5521 160.897C80.7867 161.052 81.0435 161.193 81.3002 161.339C81.8137 161.662 82.3936 161.949 82.9956 162.263C85.6431 163.566 88.4986 164.396 91.4329 164.716C92.1101 164.773 92.7609 164.844 93.3585 164.848C93.6595 164.848 93.9516 164.875 94.2438 164.848H95.0494C95.5629 164.848 96.0277 164.791 96.435 164.764C96.8423 164.738 97.192 164.694 97.4753 164.649L98.1348 164.57C98.2066 164.538 98.2827 164.517 98.3606 164.508Z" fill="white"/>
<path d="M278.579 129.687L293.32 128.251L294.847 143.849L280.106 145.29L282.643 171.209L263.254 173.105L260.731 147.186L210.639 152.075L208.996 140.26L251.205 56.6821L271.235 54.724L278.579 129.687ZM227.858 134.642L259.186 131.583L254.556 84.2894L254.06 84.1789L252.794 87.7768L227.858 134.642Z" fill="#FF8B00"/>
<g opacity="0.4">
<path opacity="0.4" d="M278.579 129.687L293.32 128.251L294.847 143.849L280.106 145.29L282.643 171.209L263.254 173.105L260.731 147.186L210.639 152.075L208.996 140.26L251.205 56.6821L271.235 54.724L278.579 129.687ZM227.858 134.642L259.186 131.583L254.556 84.2894L254.06 84.1789L252.794 87.7768L227.858 134.642Z" fill="black"/>
</g>
<path d="M290.907 128.485L305.648 127.044L307.18 142.647L292.435 144.092L294.976 170.015L275.582 171.907L273.046 145.988L222.967 150.868L221.333 139.058L263.542 55.4799L283.572 53.5219L290.907 128.485ZM240.191 133.435L271.519 130.39L266.888 83.0961L266.388 82.9812L265.127 86.579L240.191 133.435Z" fill="#FF8B00"/>
<path d="M221.891 141.268C221.755 141.393 221.607 141.504 221.448 141.599C221.161 141.803 220.736 142.085 220.209 142.43C219.151 143.12 217.681 144.048 216.03 145.038C214.379 146.028 212.869 146.89 211.763 147.495C211.214 147.796 210.762 148.039 210.435 148.198C210.276 148.292 210.109 148.369 209.935 148.428C210.069 148.308 210.218 148.204 210.377 148.119L211.657 147.354L215.888 144.839L220.094 142.293L221.373 141.524C221.535 141.419 221.709 141.333 221.891 141.268Z" fill="#FF8B00"/>
<path d="M227.159 127.15C226.967 127.313 226.763 127.461 226.548 127.592C226.15 127.862 225.561 128.246 224.83 128.715C223.37 129.647 221.333 130.925 219.076 132.251C216.818 133.577 214.738 134.819 213.228 135.667C212.476 136.109 211.86 136.432 211.431 136.658C211.213 136.784 210.987 136.895 210.754 136.989C210.953 136.835 211.165 136.698 211.387 136.578L213.157 135.526L218.97 132.056L224.764 128.56L226.535 127.504C226.733 127.37 226.942 127.252 227.159 127.15Z" fill="#FF8B00"/>
<path d="M234.206 114.23C234.004 114.394 233.789 114.542 233.564 114.672C233.122 114.947 232.528 115.335 231.763 115.808C230.231 116.75 228.097 118.018 225.725 119.397C223.352 120.776 221.187 121.992 219.607 122.876C218.819 123.318 218.177 123.649 217.73 123.879C217.503 124.007 217.266 124.118 217.022 124.211C217.232 124.057 217.454 123.92 217.686 123.8L219.527 122.735L225.609 119.225L231.678 115.689L233.515 114.619C233.735 114.472 233.966 114.342 234.206 114.23Z" fill="#FF8B00"/>
<path d="M271.009 122.779C270.874 122.902 270.726 123.01 270.567 123.101C270.279 123.3 269.85 123.574 269.323 123.91C268.26 124.582 266.782 125.484 265.126 126.447C263.471 127.411 261.948 128.242 260.837 128.825C260.284 129.122 259.832 129.351 259.509 129.506C259.351 129.597 259.183 129.671 259.009 129.727C259.145 129.612 259.294 129.511 259.451 129.427L260.74 128.684L264.985 126.244L269.212 123.773L270.5 123.026C270.66 122.925 270.831 122.842 271.009 122.779Z" fill="#FF8B00"/>
<path d="M273.01 147.018C272.876 147.143 272.728 147.251 272.568 147.341C272.289 147.535 271.877 147.809 271.364 148.145C270.341 148.808 268.911 149.705 267.309 150.66C265.706 151.615 264.232 152.428 263.157 153.02C262.621 153.312 262.183 153.542 261.877 153.697C261.724 153.788 261.561 153.861 261.39 153.913C261.527 153.799 261.675 153.7 261.833 153.617L263.077 152.879L267.189 150.461L271.28 148.004L272.523 147.266C272.675 147.164 272.839 147.081 273.01 147.018Z" fill="#FF8B00"/>
<path d="M274.011 155.474C273.877 155.599 273.728 155.707 273.568 155.796C273.289 155.991 272.877 156.265 272.364 156.601C271.341 157.264 269.912 158.161 268.309 159.111C266.707 160.061 265.233 160.879 264.157 161.476C263.621 161.768 263.183 161.997 262.878 162.152C262.725 162.244 262.561 162.316 262.391 162.369C262.527 162.255 262.676 162.155 262.833 162.073L264.077 161.334L268.19 158.917L272.28 156.459L273.524 155.721C273.675 155.619 273.839 155.536 274.011 155.474Z" fill="#FF8B00"/>
<path d="M275.002 163.929C274.868 164.054 274.72 164.162 274.56 164.252C274.281 164.446 273.869 164.72 273.356 165.052C272.333 165.719 270.903 166.616 269.301 167.567C267.698 168.517 266.224 169.335 265.149 169.931C264.613 170.223 264.175 170.453 263.869 170.608C263.715 170.697 263.552 170.769 263.382 170.824C263.519 170.71 263.667 170.611 263.825 170.528L265.069 169.79L269.181 167.372L273.272 164.915L274.515 164.176C274.667 164.075 274.831 163.992 275.002 163.929Z" fill="#FF8B00"/>
<path d="M269.969 113.842C269.833 113.965 269.685 114.075 269.527 114.169C269.234 114.363 268.809 114.642 268.278 114.977C267.216 115.645 265.737 116.551 264.082 117.51C262.426 118.469 260.903 119.305 259.797 119.893C259.239 120.184 258.787 120.419 258.469 120.573C258.31 120.665 258.143 120.739 257.969 120.794C258.106 120.68 258.254 120.579 258.411 120.494L259.695 119.751L263.944 117.311L268.172 114.836L269.456 114.093C269.617 113.992 269.79 113.907 269.969 113.842Z" fill="#FF8B00"/>
<path d="M268.929 104.909C268.794 105.034 268.646 105.144 268.486 105.236C268.194 105.43 267.769 105.704 267.238 106.04C266.18 106.712 264.701 107.618 263.041 108.577C261.381 109.536 259.868 110.372 258.756 110.96C258.203 111.251 257.752 111.486 257.428 111.64C257.271 111.733 257.103 111.806 256.928 111.857C257.064 111.742 257.213 111.643 257.371 111.561L258.655 110.814L262.904 108.378L267.132 105.903L268.415 105.156C268.578 105.056 268.75 104.974 268.929 104.909Z" fill="#FF8B00"/>
<path d="M267.893 95.976C267.767 96.0947 267.627 96.1985 267.477 96.2854C267.198 96.4754 266.791 96.7274 266.286 97.0589C265.281 97.6997 263.874 98.5617 262.302 99.4766C260.731 100.392 259.274 101.187 258.216 101.744L256.955 102.389C256.803 102.476 256.643 102.546 256.477 102.597C256.614 102.487 256.762 102.39 256.919 102.31L258.141 101.598L262.191 99.2777L266.215 96.9174L267.441 96.2102C267.583 96.1157 267.734 96.0371 267.893 95.976Z" fill="#FF8B00"/>
<path d="M267.716 87.516C267.07 87.9967 266.379 88.4141 265.653 88.7624C264.962 89.1768 264.235 89.5274 263.48 89.81C264.126 89.3293 264.816 88.9118 265.543 88.5635C266.233 88.1484 266.961 87.7977 267.716 87.516Z" fill="#FF8B00"/>
<path d="M241.174 100.882C240.974 101.047 240.761 101.194 240.536 101.324C240.094 101.598 239.496 101.987 238.73 102.46C237.203 103.401 235.069 104.67 232.697 106.049C230.324 107.428 228.159 108.644 226.579 109.501C225.791 109.943 225.145 110.275 224.698 110.504C224.471 110.631 224.236 110.742 223.994 110.836C224.204 110.681 224.426 110.544 224.658 110.425L226.499 109.36L232.582 105.85L238.646 102.314L240.488 101.245C240.707 101.107 240.937 100.986 241.174 100.882Z" fill="#FF8B00"/>
<path d="M248.146 87.516C247.944 87.6796 247.729 87.8274 247.504 87.958C247.061 88.232 246.468 88.621 245.702 89.0939C244.171 90.0354 242.037 91.3039 239.669 92.683C237.3 94.062 235.127 95.2775 233.547 96.135C232.759 96.577 232.117 96.9085 231.67 97.1383C231.442 97.2665 231.206 97.3773 230.961 97.4698C231.172 97.3164 231.394 97.179 231.625 97.0588L233.467 95.9935L239.549 92.4841L245.618 88.9481L247.46 87.8784C247.679 87.7402 247.908 87.619 248.146 87.516Z" fill="#FF8B00"/>
<path d="M254.458 74.2781C254.256 74.4417 254.041 74.5895 253.816 74.7201C253.373 74.9941 252.78 75.3831 252.014 75.856C250.483 76.7975 248.349 78.066 245.976 79.4451C243.604 80.8241 241.439 82.0396 239.859 82.8971C239.071 83.3391 238.429 83.6706 237.982 83.9004C237.754 84.0276 237.517 84.1384 237.274 84.2319C237.484 84.0785 237.706 83.9411 237.938 83.8209L239.779 82.7556L245.861 79.2462L251.93 75.7102L253.767 74.6405C253.988 74.5016 254.219 74.3804 254.458 74.2781Z" fill="#FF8B00"/>
<path d="M261.173 61.438C260.971 61.6016 260.757 61.7494 260.531 61.88C260.111 62.154 259.496 62.543 258.73 63.0159C257.198 63.9574 255.065 65.2259 252.692 66.6094C250.319 67.9928 248.155 69.1995 246.574 70.0614C245.786 70.5034 245.144 70.8305 244.697 71.0603C244.47 71.1898 244.233 71.302 243.989 71.3963C244.197 71.2382 244.42 71.0991 244.653 70.9808L246.495 69.92L252.577 66.384L258.646 62.848L260.483 61.7783C260.704 61.648 260.935 61.5343 261.173 61.438Z" fill="#FF8B00"/>
<path d="M285.878 76.0947C285.818 76.2084 285.746 76.3164 285.666 76.4174C285.457 76.7266 285.228 77.0219 284.98 77.3014C284.084 78.3414 283.04 79.2439 281.881 79.9799C280.159 81.0775 278.231 81.8144 276.215 82.1457C275.025 82.3357 273.815 82.3699 272.616 82.2474C271.333 82.1062 270.069 81.8291 268.845 81.4208C266.322 80.612 264.037 79.5556 261.855 78.9014C259.936 78.2851 257.913 78.0582 255.906 78.234C254.551 78.3573 253.246 78.798 252.094 79.5202C251.783 79.7232 251.487 79.9493 251.209 80.1965C251.12 80.2897 251.022 80.374 250.917 80.4484C250.995 80.3467 251.083 80.2521 251.178 80.1655C251.44 79.9003 251.726 79.6592 252.032 79.4451C253.182 78.6831 254.501 78.2128 255.875 78.0749C257.91 77.8614 259.968 78.066 261.921 78.676C264.135 79.3257 266.419 80.3733 268.916 81.1821C270.126 81.5834 271.375 81.8588 272.643 82.0043C273.822 82.1247 275.012 82.0935 276.184 81.9114C278.175 81.5953 280.082 80.8845 281.793 79.8208C282.941 79.1014 283.984 78.2268 284.891 77.2218C285.144 76.952 285.382 76.6687 285.604 76.3732C285.689 76.274 285.781 76.1809 285.878 76.0947Z" fill="white"/>
<path d="M276.698 55.3252C276.541 55.4744 276.37 55.609 276.189 55.7274C275.852 55.9794 275.348 56.3109 274.706 56.6954C273.953 57.1459 273.175 57.5546 272.377 57.9197C271.397 58.362 270.392 58.7472 269.367 59.0734C268.338 59.3894 267.292 59.6447 266.233 59.838C265.369 59.9892 264.497 60.0954 263.621 60.1563C262.873 60.2049 262.267 60.2137 261.851 60.2005C261.633 60.2096 261.415 60.1963 261.2 60.1607C261.413 60.1243 261.63 60.108 261.846 60.1121C262.262 60.1121 262.864 60.059 263.617 59.9927C264.369 59.9264 265.237 59.8071 266.202 59.6303C267.247 59.425 268.282 59.1669 269.301 58.8568C270.318 58.5331 271.317 58.1554 272.293 57.7253C273.179 57.323 273.98 56.9252 274.626 56.554C275.272 56.1827 275.79 55.8777 276.14 55.67C276.315 55.5391 276.502 55.4237 276.698 55.3252Z" fill="white"/>
<path d="M252.497 108.339C252.338 108.222 252.19 108.092 252.054 107.95L250.841 106.867C249.497 105.688 248.091 104.583 246.627 103.556C245.831 102.985 244.974 102.502 244.073 102.115C243.339 101.807 242.557 101.627 241.762 101.58C241.026 101.55 240.291 101.649 239.589 101.872C239.589 101.872 239.633 101.837 239.726 101.793C239.86 101.729 240 101.676 240.142 101.633C240.669 101.471 241.22 101.398 241.771 101.417C242.589 101.443 243.395 101.613 244.153 101.921C245.073 102.301 245.947 102.786 246.756 103.366C248.231 104.395 249.633 105.525 250.952 106.747C251.457 107.216 251.837 107.631 252.116 107.888C252.26 108.023 252.388 108.174 252.497 108.339Z" fill="white"/>
<path d="M289.336 116.604C289.336 116.604 289.292 116.661 289.185 116.759C289.079 116.856 288.929 117.002 288.712 117.165C288.113 117.646 287.472 118.071 286.795 118.434C284.552 119.657 282.009 120.223 279.458 120.067C276.908 119.911 274.453 119.038 272.377 117.55C271.751 117.108 271.167 116.61 270.633 116.06C270.438 115.87 270.306 115.707 270.19 115.618C270.138 115.566 270.093 115.507 270.058 115.442C270.058 115.442 270.279 115.645 270.673 116.016C271.226 116.534 271.818 117.008 272.444 117.435C274.511 118.867 276.931 119.706 279.443 119.862C281.954 120.018 284.46 119.484 286.689 118.319C287.365 117.972 288.013 117.573 288.628 117.126C288.854 116.939 289.09 116.764 289.336 116.604Z" fill="white"/>
<path d="M306.051 142.496C305.991 142.442 305.935 142.385 305.883 142.324C305.777 142.196 305.635 142.01 305.44 141.771C304.888 141.056 304.282 140.386 303.625 139.765L302.926 139.146L302.554 138.815L302.111 138.501L301.226 137.838L300.195 137.206C298.563 136.248 296.809 135.517 294.98 135.031C292.764 134.44 290.462 134.234 288.176 134.421C285.552 134.653 283.007 135.441 280.713 136.733C278.291 138.103 276.034 139.973 273.63 141.816C272.41 142.767 271.133 143.643 269.805 144.437C268.425 145.26 266.935 145.884 265.379 146.289C263.82 146.668 262.211 146.798 260.611 146.673C259.062 146.546 257.532 146.249 256.047 145.789C253.259 144.902 250.562 143.749 247.995 142.346C245.516 141.064 243.175 139.827 240.882 138.894C238.765 137.988 236.529 137.392 234.242 137.126C232.356 136.943 230.453 137.093 228.62 137.568C227.234 137.913 225.92 138.503 224.742 139.31C224.004 139.83 223.334 140.442 222.75 141.131L222.329 141.696C222.232 141.825 222.179 141.886 222.179 141.886C222.179 141.886 222.219 141.816 222.307 141.683L222.715 141.104C223.285 140.396 223.949 139.768 224.689 139.239C225.868 138.408 227.19 137.8 228.589 137.444C230.437 136.956 232.357 136.799 234.259 136.98C236.557 137.244 238.804 137.84 240.93 138.748C243.241 139.676 245.592 140.914 248.071 142.187C250.628 143.578 253.313 144.723 256.087 145.608C257.557 146.055 259.071 146.341 260.602 146.461C262.178 146.586 263.764 146.458 265.299 146.081C266.828 145.68 268.293 145.066 269.651 144.256C270.971 143.468 272.241 142.599 273.453 141.652C275.861 139.818 278.132 137.944 280.576 136.565C281.179 136.225 281.803 135.922 282.444 135.659C282.758 135.526 283.063 135.385 283.382 135.27L284.338 134.969C285.574 134.602 286.843 134.361 288.127 134.249C290.437 134.063 292.761 134.275 294.998 134.876C296.837 135.371 298.601 136.114 300.239 137.086L301.27 137.727L302.156 138.408L302.598 138.722L302.97 139.062L303.665 139.69C304.31 140.321 304.902 141.004 305.436 141.732C305.613 141.979 305.754 142.174 305.852 142.302L306.051 142.496Z" fill="white"/>
<path d="M295.4 162.656C295.333 162.692 295.261 162.722 295.188 162.744L294.559 162.961C294.228 163.076 293.891 163.175 293.55 163.257C293.147 163.354 292.7 163.487 292.187 163.571L291.39 163.721C291.111 163.77 290.819 163.796 290.505 163.836C289.903 163.925 289.252 163.955 288.566 164C287.086 164.044 285.606 163.969 284.139 163.774C282.669 163.552 281.221 163.206 279.81 162.74C279.163 162.51 278.548 162.298 277.995 162.042C277.716 161.918 277.441 161.812 277.189 161.688L276.468 161.321C275.998 161.096 275.604 160.844 275.25 160.636C274.945 160.463 274.65 160.274 274.365 160.07L273.82 159.686C273.754 159.645 273.693 159.596 273.639 159.54C273.713 159.565 273.783 159.601 273.847 159.646L274.414 159.995C274.653 160.15 274.954 160.336 275.299 160.526C275.644 160.716 276.051 160.968 276.521 161.175L277.247 161.524C277.499 161.648 277.773 161.75 278.052 161.869C278.606 162.112 279.217 162.311 279.858 162.541C281.274 162.99 282.723 163.324 284.192 163.54C285.652 163.737 287.124 163.818 288.597 163.783C289.274 163.743 289.925 163.726 290.518 163.642C290.814 163.606 291.107 163.584 291.403 163.54L292.2 163.407C292.709 163.337 293.156 163.213 293.559 163.129C293.962 163.045 294.298 162.952 294.573 162.868L295.215 162.696C295.275 162.676 295.337 162.663 295.4 162.656Z" fill="white"/>
<path d="M203.219 97.9207L200.121 97.4345L180.922 91.2465L169.696 88.0067C168.119 87.4386 166.441 87.2042 164.768 87.3184C163.096 87.4325 161.465 87.8927 159.98 88.6697C154.668 91.3659 140.033 104.971 140.033 104.971L150.573 115.822L145.611 137.78C151.166 153.551 162.043 155.359 162.043 155.359C167.359 155.585 172.664 154.709 177.624 152.786C187.722 148.954 198.315 139.933 199.643 136.056C200.439 133.732 201.099 128.843 201.621 123.322L217.611 116.816L221.944 94.7162L203.219 97.9207Z" fill="#455A64"/>
<path d="M179.864 137.02C179.864 137.02 179.816 137.073 179.709 137.157C179.603 137.241 179.448 137.369 179.231 137.511C178.627 137.917 177.983 138.262 177.31 138.541C175.07 139.494 172.588 139.727 170.209 139.209C167.829 138.691 165.67 137.447 164.03 135.65C163.531 135.115 163.086 134.531 162.702 133.908C162.565 133.692 162.481 133.511 162.414 133.391C162.38 133.333 162.351 133.27 162.33 133.206C162.491 133.414 162.639 133.633 162.773 133.86C163.178 134.457 163.634 135.017 164.136 135.535C165.775 137.271 167.901 138.473 170.235 138.982C172.569 139.492 175.003 139.285 177.217 138.39C177.889 138.127 178.536 137.807 179.152 137.431C179.621 137.153 179.851 136.994 179.864 137.02Z" fill="#263238"/>
<path d="M173.791 92.1615C173.809 92.1946 173.821 92.2305 173.826 92.2676C173.849 92.3516 173.875 92.4532 173.906 92.5814C173.973 92.8554 174.065 93.2665 174.176 93.7925C174.504 95.2811 174.715 96.7929 174.809 98.3141C174.866 99.3696 174.805 100.428 174.628 101.47C174.413 102.672 173.986 103.826 173.366 104.878C172.648 106.015 171.763 107.039 170.741 107.914C169.701 108.843 168.55 109.682 167.377 110.593C164.88 112.463 162.454 114.155 160.294 115.694C158.134 117.232 156.208 118.606 154.677 119.764L154.628 119.804L154.579 119.764C153.499 118.908 152.473 117.986 151.507 117.002C151.246 116.737 151.005 116.453 150.786 116.153C150.71 116.052 150.666 115.968 150.631 115.915C150.613 115.886 150.596 115.857 150.582 115.826C150.582 115.826 150.666 115.932 150.821 116.127C151.054 116.413 151.302 116.686 151.565 116.944C152.549 117.898 153.584 118.8 154.663 119.645H154.566C156.089 118.469 157.992 117.068 160.161 115.526C162.33 113.983 164.747 112.281 167.244 110.412C168.413 109.528 169.564 108.666 170.595 107.76C171.603 106.9 172.477 105.896 173.189 104.781C173.803 103.755 174.227 102.628 174.442 101.452C174.625 100.423 174.695 99.3765 174.65 98.3318C174.571 96.8178 174.384 95.3112 174.092 93.8234C173.995 93.3063 173.919 92.8996 173.862 92.6035C173.838 92.4768 173.821 92.3707 173.809 92.2853C173.795 92.2455 173.789 92.2035 173.791 92.1615Z" fill="#263238"/>
<path d="M257.158 102.102C261.651 98.2522 263.174 91.3261 260.7 85.9558L254.37 85.306C255.963 84.4295 257.253 83.0928 258.073 81.4712C258.892 79.8496 259.201 78.0187 258.96 76.2185C257.209 78.0282 254.935 79.246 252.456 79.7017C249.977 80.1574 247.418 79.8281 245.136 78.76C242.179 77.3014 239.779 74.5831 236.53 74.0129C233.582 73.4958 230.683 74.8969 227.858 75.8782C225.034 76.8594 221.617 77.4296 219.279 75.5599C217.429 74.0792 216.854 71.4847 216.973 69.1156C217.093 66.7464 217.779 64.4392 217.925 62.0745C218.031 59.7478 217.626 57.4262 216.74 55.2717C215.854 53.1173 214.507 51.182 212.794 49.6013C212.221 47.7187 211.199 46.0034 209.814 44.6031C208.43 43.2029 206.726 42.1597 204.848 41.5634C202.97 40.9671 200.975 40.8356 199.035 41.1801C197.095 41.5247 195.268 42.3351 193.711 43.5415C192.325 44.6111 191.157 45.9945 189.585 46.768C187.815 47.652 185.747 47.652 183.831 48.094C181.914 48.536 179.891 49.8355 179.687 51.8024L178.913 55.829C178.784 56.1163 178.647 56.3992 178.47 56.6777C176.841 59.533 173.503 61.4115 172.773 64.6337C172.366 66.4326 172.87 68.3818 172.264 70.1233C171.463 72.4173 168.984 73.7079 167.837 75.8428C166.252 78.7777 167.328 83.9181 169.865 86.0839C172.401 88.2497 177.629 90.5481 180.896 91.2421C181.781 87.8519 182.565 84.2275 183.322 80.5192C184.65 81.7965 186.053 83.012 187.443 84.2187C191.077 87.3746 194.791 90.5791 197.314 94.6764C202.108 102.469 202.184 112.798 208.226 119.667C209.408 121.015 210.847 122.213 212.564 122.735C214.282 123.256 216.318 122.978 217.588 121.714C219.089 120.22 219.284 117.7 220.944 116.387C223.157 114.642 226.371 116.034 228.739 117.55C230.457 118.646 232.174 119.804 234.118 120.405C236.061 121.006 238.327 120.967 239.983 119.782C241.639 118.597 242.364 116.069 241.169 114.421C240.691 113.762 239.979 113.302 239.505 112.653C239.031 112.003 238.894 110.942 239.545 110.443C240.195 109.943 241.262 110.443 242.037 110.885C243.937 112 246.063 112.678 248.259 112.871C250.455 113.064 252.666 112.765 254.732 111.998C256.798 111.231 258.667 110.013 260.203 108.435C261.739 106.856 262.904 104.955 263.612 102.871C261.431 103.197 259.202 102.932 257.158 102.102Z" fill="#263238"/>
<path d="M253.205 67.4271C253.408 67.5741 253.599 67.7367 253.776 67.9133C254.311 68.4096 254.759 68.9906 255.104 69.6327C255.344 70.1005 255.508 70.6032 255.591 71.1222C255.693 71.7946 255.599 72.482 255.319 73.1021C255.04 73.7222 254.587 74.2487 254.015 74.6184C253.679 74.8359 253.298 74.9735 252.9 75.0206C252.478 75.0653 252.053 75.0045 251.66 74.8438C250.018 74.172 249.19 72.2758 247.415 71.4316C245.684 70.5167 243.471 70.4548 241.346 70.941C239.222 71.4272 237.145 72.5808 235.052 73.7565C232.958 74.9322 230.731 76.1919 228.168 76.6295C226.91 76.8728 225.616 76.8638 224.361 76.603C223.745 76.4627 223.15 76.2428 222.591 75.9488C222.048 75.6519 221.547 75.2832 221.103 74.8527C220.259 73.9959 219.61 72.9678 219.2 71.8382C218.798 70.7664 218.533 69.6481 218.412 68.51C218.177 66.3 218.363 64.1784 218.385 62.2203C218.474 60.4034 218.293 58.5834 217.85 56.8191C217.639 56.0573 217.355 55.3173 217.004 54.6091C216.697 53.972 216.337 53.3614 215.928 52.7836C215.281 51.8541 214.521 51.008 213.666 50.2642C213.122 49.7974 212.543 49.3719 211.936 48.9913L211.453 48.704L211.294 48.6023C211.354 48.6245 211.412 48.6527 211.466 48.6863L211.962 48.9515C213.571 49.9026 214.96 51.1848 216.035 52.7129C216.92 53.9453 217.587 55.3209 218.005 56.7793C218.466 58.5558 218.659 60.3913 218.576 62.2247C218.576 64.1961 218.385 66.3 218.624 68.4879C218.745 69.6061 219.005 70.705 219.399 71.7587C219.801 72.8573 220.435 73.8567 221.258 74.6891C221.685 75.1068 222.168 75.4637 222.692 75.7499C223.232 76.0301 223.805 76.2424 224.397 76.382C225.623 76.6325 226.886 76.64 228.115 76.4041C230.629 75.9621 232.834 74.7289 234.928 73.5576C237.021 72.3863 239.089 71.2327 241.284 70.7332C242.347 70.4833 243.44 70.3909 244.529 70.4592C245.051 70.4957 245.568 70.58 246.074 70.7111C246.565 70.8436 247.04 71.0288 247.491 71.2636C249.328 72.1476 250.147 74.0659 251.709 74.6891C252.066 74.8407 252.454 74.9023 252.84 74.8683C253.226 74.8344 253.598 74.7061 253.922 74.4947C254.518 74.12 254.982 73.5702 255.25 72.9211C255.484 72.3628 255.56 71.7516 255.472 71.1531C255.404 70.6449 255.254 70.1509 255.029 69.6901C254.702 69.0528 254.278 68.4698 253.772 67.9619C253.599 67.7851 253.462 67.6569 253.369 67.5729C253.276 67.489 253.205 67.4271 253.205 67.4271Z" fill="#263238"/>
<path d="M180.852 92.9394C180.852 92.9394 180.852 92.8731 180.816 92.7405C180.793 92.5445 180.753 92.3507 180.697 92.1615C180.493 91.4294 180.122 90.7546 179.612 90.1902C178.79 89.3104 177.789 88.6158 176.677 88.1526C175.393 87.5647 173.8 87.2686 172.056 86.9503C170.312 86.6321 168.333 86.252 166.553 85.0674C165.565 84.401 164.735 83.5266 164.122 82.5057C163.508 81.4848 163.126 80.3421 163.002 79.158C162.878 77.9739 163.015 76.777 163.404 75.6514C163.793 74.5259 164.423 73.4989 165.252 72.6428C167.085 70.7643 169.679 69.8317 171.795 68.183C172.313 67.7676 172.78 67.2912 173.185 66.7642C173.565 66.2267 173.853 65.629 174.034 64.9962C174.389 63.7409 174.358 62.4282 174.477 61.1508C174.525 60.5106 174.644 59.8776 174.831 59.2634C175.028 58.6552 175.345 58.0928 175.765 57.6104C176.636 56.7392 177.731 56.127 178.93 55.8424C180.068 55.5109 181.201 55.3031 182.268 55.0114C183.311 54.7454 184.299 54.2964 185.185 53.6854C186.003 53.1076 186.737 52.4205 187.368 51.6434C187.959 50.947 188.51 50.2181 189.019 49.4599C189.997 47.9836 190.834 46.6001 191.723 45.4819C192.46 44.5167 193.329 43.6596 194.304 42.936C194.924 42.4817 195.613 42.1295 196.345 41.8928C196.597 41.8046 196.856 41.7395 197.12 41.6984C197.12 41.6984 196.85 41.7602 196.358 41.937C195.64 42.1894 194.965 42.5518 194.357 43.0111C193.398 43.7391 192.546 44.5975 191.825 45.5614C190.94 46.6664 190.125 48.0455 189.169 49.5394C188.666 50.3245 188.116 51.0788 187.523 51.7981C186.883 52.5906 186.138 53.2925 185.309 53.8843C184.406 54.4968 183.402 54.9456 182.343 55.2103C181.263 55.5109 180.13 55.7186 179.01 56.0501C177.85 56.3212 176.789 56.9106 175.947 57.7518C175.549 58.2116 175.248 58.7468 175.061 59.3253C174.88 59.9237 174.766 60.5404 174.721 61.164C174.601 62.4282 174.637 63.7497 174.278 65.0536C174.088 65.7064 173.789 66.3222 173.393 66.8747C172.976 67.4172 172.494 67.9069 171.958 68.3333C170.874 69.1304 169.737 69.8526 168.554 70.4947C167.427 71.1162 166.385 71.8814 165.456 72.771C164.648 73.6047 164.033 74.6046 163.653 75.7008C163.273 76.7969 163.138 77.9627 163.257 79.1164C163.376 80.2702 163.746 81.384 164.342 82.38C164.937 83.3759 165.743 84.2297 166.704 84.8818C168.43 86.0442 170.396 86.4155 172.127 86.7647C173.857 87.1139 175.473 87.4012 176.766 88.0067C177.89 88.4841 178.897 89.1989 179.718 90.1018C180.228 90.6814 180.592 91.3738 180.781 92.1217C180.832 92.3142 180.864 92.511 180.878 92.7096C180.852 92.8731 180.852 92.9394 180.852 92.9394Z" fill="#263238"/>
<path d="M216.194 53.2611C216.078 53.2496 215.964 53.2197 215.858 53.1727C215.555 53.0739 215.259 52.9558 214.972 52.8191C213.056 51.9178 211.42 50.5139 210.24 48.7571C210.063 48.493 209.902 48.2184 209.758 47.935C209.694 47.8357 209.648 47.7267 209.62 47.6123C209.651 47.6123 209.904 48.0189 210.373 48.6598C211.602 50.3366 213.199 51.7096 215.043 52.6732C215.747 53.0401 216.212 53.2257 216.194 53.2611Z" fill="#455A64"/>
<path d="M230.913 83.4098C230.913 83.4098 230.634 83.3391 230.134 83.233C229.425 83.0835 228.706 82.9948 227.982 82.9678C226.91 82.9387 225.837 82.9697 224.768 83.0606C223.556 83.1446 222.219 83.2684 220.807 83.2374C219.469 83.2375 218.144 82.9886 216.898 82.5037C215.886 82.0818 214.988 81.4276 214.277 80.5943C213.8 80.0313 213.457 79.368 213.272 78.6539C213.224 78.4611 213.193 78.2643 213.179 78.066C213.17 77.9971 213.17 77.9272 213.179 77.8583C213.206 77.8583 213.219 78.1412 213.361 78.6318C213.577 79.3171 213.934 79.9496 214.41 80.4882C215.116 81.286 215.998 81.9094 216.986 82.3092C218.21 82.7704 219.507 83.007 220.815 83.0076C222.21 83.0385 223.542 82.9236 224.76 82.8485C225.836 82.7647 226.917 82.7499 227.996 82.8043C228.726 82.8468 229.451 82.9608 230.16 83.1446C230.352 83.1954 230.541 83.2559 230.727 83.3258C230.793 83.3438 230.856 83.3722 230.913 83.4098Z" fill="#455A64"/>
<path d="M256.999 103.508C256.999 103.508 256.959 103.508 256.871 103.565C256.745 103.622 256.612 103.665 256.477 103.693C255.951 103.805 255.406 103.781 254.892 103.623C254.084 103.364 253.354 102.908 252.767 102.297C252.022 101.46 251.442 100.489 251.059 99.4368C250.576 98.3053 250.173 97.0058 249.381 95.8036C248.981 95.181 248.51 94.607 247.978 94.093C247.403 93.5558 246.774 93.0802 246.101 92.6742C243.321 90.999 239.669 90.3139 235.919 90.5349C232.17 90.7559 228.642 91.4631 225.379 91.6885C222.486 91.998 219.561 91.6968 216.792 90.8045C214.918 90.1965 213.225 89.1334 211.865 87.7105C211.654 87.4889 211.457 87.2541 211.276 87.0078C211.135 86.8341 211.007 86.6493 210.895 86.4553C210.807 86.3094 210.736 86.1901 210.678 86.1017C210.651 86.0635 210.629 86.0219 210.612 85.9779C210.612 85.9779 210.647 86.0133 210.701 86.0884L210.931 86.4287C211.052 86.6152 211.185 86.7938 211.329 86.9636C211.515 87.2047 211.716 87.4336 211.931 87.6487C213.301 89.0271 214.986 90.0525 216.84 90.6366C219.593 91.4979 222.494 91.7809 225.362 91.4675C228.606 91.2289 232.13 90.4863 235.906 90.2918C239.682 90.0973 243.365 90.7648 246.189 92.4797C246.875 92.8962 247.514 93.3836 248.097 93.9339C248.639 94.4661 249.118 95.0594 249.522 95.7019C250.324 96.9351 250.718 98.2478 251.191 99.3749C251.556 100.415 252.115 101.376 252.838 102.208C253.405 102.812 254.112 103.268 254.896 103.534C255.395 103.702 255.928 103.74 256.446 103.645C256.822 103.583 256.995 103.49 256.999 103.508Z" fill="#455A64"/>
<path d="M187.376 53.2566C186.548 53.236 185.741 53.5265 185.117 54.0707C184.492 54.615 184.095 55.3733 184.003 56.1959L180.422 93.4167C179.802 98.65 186.659 109.872 192.277 110.491C197.947 111.114 198.505 108.37 199.24 103.419C200.47 95.1361 200.882 92.0156 200.878 92.0642C200.873 92.1128 208.182 91.8211 210.891 82.7026C212.219 78.1677 213.007 70.5432 213.436 64.2845C213.821 58.649 211.019 51.3074 205.362 51.1615L187.376 53.2566Z" fill="#FFDFCE"/>
<path d="M210.966 69.2127C210.929 69.528 210.769 69.8158 210.52 70.013C210.271 70.2103 209.954 70.3008 209.638 70.2647C209.484 70.2569 209.334 70.2184 209.195 70.1516C209.056 70.0848 208.932 69.991 208.83 69.8757C208.729 69.7604 208.651 69.626 208.602 69.4802C208.553 69.3345 208.533 69.1804 208.545 69.0271C208.584 68.7125 208.744 68.4257 208.993 68.2282C209.241 68.0307 209.557 67.9383 209.873 67.9707C210.027 67.9785 210.178 68.0171 210.317 68.0842C210.456 68.1512 210.58 68.2455 210.682 68.3612C210.784 68.477 210.862 68.612 210.91 68.7583C210.959 68.9045 210.978 69.0591 210.966 69.2127Z" fill="#263238"/>
<path d="M211.475 66.8039C211.333 66.9719 210.377 66.3619 209.08 66.4548C207.783 66.5476 206.867 67.2592 206.73 67.1133C206.659 67.047 206.787 66.7553 207.172 66.4238C207.706 65.9974 208.358 65.7458 209.04 65.7034C209.714 65.6532 210.385 65.8189 210.957 66.1763C211.387 66.4548 211.542 66.7421 211.475 66.8039Z" fill="#263238"/>
<path d="M199.576 69.8846C199.421 70.0393 198.527 69.3366 197.23 69.3056C195.933 69.2747 194.964 69.8935 194.827 69.7476C194.76 69.6725 194.92 69.394 195.344 69.1067C195.916 68.7319 196.591 68.5449 197.274 68.5719C197.948 68.589 198.6 68.8196 199.134 69.2305C199.523 69.531 199.643 69.836 199.576 69.8846Z" fill="#263238"/>
<path d="M201.993 76.7312C201.993 76.656 202.817 76.6251 204.136 76.6295C204.468 76.6295 204.786 76.6295 204.875 76.3953C204.946 76.0606 204.914 75.7122 204.782 75.3963C204.578 74.5595 204.364 73.6755 204.14 72.7443C203.255 69.0094 202.666 65.9552 202.812 65.9199C202.958 65.8845 203.799 68.8901 204.68 72.625C204.893 73.5444 205.092 74.4195 205.282 75.277C205.441 75.7048 205.441 76.1752 205.282 76.603C205.219 76.7121 205.133 76.8054 205.028 76.8758C204.924 76.9463 204.805 76.9921 204.68 77.0096C204.491 77.0339 204.299 77.0339 204.109 77.0096C202.799 76.908 201.989 76.8019 201.993 76.7312Z" fill="#263238"/>
<path d="M200.878 92.0553C196.475 91.5429 192.302 89.8182 188.824 87.074C188.824 87.074 191.13 93.8896 200.581 94.2476L200.878 92.0553Z" fill="#EB996E"/>
<path d="M199.758 67.6702C199.554 67.984 198.328 67.5243 196.805 67.3564C195.282 67.1884 193.985 67.3122 193.862 66.9586C193.808 66.7906 194.092 66.5166 194.654 66.3C195.392 66.034 196.183 65.9491 196.96 66.0525C197.741 66.1378 198.491 66.4075 199.147 66.8392C199.643 67.184 199.851 67.5199 199.758 67.6702Z" fill="#263238"/>
<path d="M211.28 65.0668C211.068 65.3718 210.16 65.1154 209.067 65.1552C207.974 65.195 207.093 65.4514 206.854 65.1552C206.756 65.0094 206.885 64.7132 207.265 64.4127C207.78 64.0396 208.4 63.8385 209.036 63.8381C209.664 63.8192 210.282 63.9935 210.807 64.3375C211.236 64.6204 211.373 64.921 211.28 65.0668Z" fill="#263238"/>
<path d="M198.859 79.0783C199.453 78.6732 200.182 78.5146 200.891 78.6363C201.253 78.6862 201.586 78.8595 201.834 79.1269C202.102 79.5223 202.22 80.0005 202.166 80.475C202.168 80.7614 202.125 81.0463 202.038 81.3192C201.947 81.592 201.753 81.8188 201.498 81.9513C201.213 82.0536 200.905 82.069 200.612 81.9955C200.125 81.9332 199.658 81.7641 199.244 81.5004C199.038 81.3686 198.863 81.1935 198.732 80.9874C198.601 80.7814 198.516 80.5492 198.483 80.307C198.456 80.0634 198.508 79.8175 198.631 79.6058C198.755 79.394 198.943 79.2276 199.169 79.1313" fill="#EB996E"/>
<path d="M202.352 81.9159C202.259 81.9512 202.086 81.6683 201.776 81.2838C201.391 80.7789 200.908 80.3567 200.356 80.0423C199.804 79.7279 199.194 79.5278 198.563 79.4539C198.071 79.3832 197.744 79.3788 197.722 79.2815C197.699 79.1843 198.009 79.0208 198.571 78.9633C199.313 78.9054 200.055 79.0717 200.701 79.4407C201.348 79.8056 201.869 80.3592 202.193 81.0274C202.432 81.5357 202.436 81.8893 202.352 81.9159Z" fill="#263238"/>
<path d="M179.922 90.8575C182.998 90.2432 185.371 87.6044 186.429 84.6695C187.487 81.7347 187.429 78.5036 187.151 75.3875C187.158 75.1859 187.125 74.9848 187.053 74.7964C186.981 74.6079 186.871 74.4361 186.73 74.2914C186.265 73.9334 185.597 74.2251 185.092 74.5301C183.153 75.7077 181.294 77.013 179.528 78.4374C177.881 79.7634 176.252 81.2883 175.619 83.2994C174.65 86.3934 176.699 90.084 179.838 90.8973" fill="#263238"/>
<path d="M250.638 90.1371L236.132 66.8525L232.121 58.6579C232.121 58.6579 230.842 56.965 229.514 55.5197C227.336 53.1461 225.18 54.9893 225.18 54.9893C225.06 54.7091 224.854 54.4734 224.593 54.3149C224.332 54.1565 224.028 54.0832 223.724 54.1053C223.333 54.105 222.947 54.1974 222.598 54.3749C222.25 54.5524 221.948 54.8099 221.719 55.1263C221.719 55.1263 221.125 54.4677 219.479 54.3661C219.104 54.3616 218.739 54.4796 218.438 54.702C217.898 54.229 216.907 53.5484 215.955 53.8931C215.211 54.1627 210.701 57.5882 209.589 59.312C209.041 60.1651 210.059 61.2701 211.431 60.7529C211.995 60.5708 212.546 60.3477 213.078 60.0855C213.494 59.8518 213.871 59.5534 214.193 59.2015C214.193 59.2015 213.056 61.1905 214.193 61.5397C214.566 61.6143 214.95 61.6067 215.32 61.5173C215.689 61.428 216.034 61.2591 216.331 61.0226C216.774 60.6601 217.261 60.1872 217.735 59.7231L217.681 59.8026C217.053 60.7308 218.691 62.1055 219.483 61.5485C219.852 61.2891 220.205 61.0087 220.541 60.7088C222.383 62.0348 219.828 63.7541 218.748 63.6657C217.086 63.5399 215.417 63.5399 213.755 63.6657C212.817 63.7409 211.984 63.9663 211.471 64.4834C210.86 65.1111 211.502 66.4282 212.356 66.5608C213.945 66.8083 215.973 67.1575 218.08 67.7012C220.559 68.3377 227.053 70.446 227.053 70.446L227.686 70.9587L236.508 92.4443L221.404 95.64L218.031 114.752L245.299 107.362C251.435 104.135 254.361 95.9715 250.638 90.1371Z" fill="#FFDFCE"/>
<path d="M227.057 70.4062C226.939 70.3892 226.824 70.3611 226.712 70.3222L225.733 70.0437L222.143 68.9785L219.669 68.2315C218.783 67.9575 217.832 67.6746 216.822 67.4182C215.771 67.135 214.704 66.915 213.626 66.7597C213.035 66.7494 212.449 66.6435 211.891 66.4458C211.743 66.3785 211.61 66.2806 211.502 66.1585C211.443 66.088 211.398 66.0071 211.369 65.9199L211.338 65.6856C211.291 65.3727 211.311 65.0534 211.395 64.7486C211.504 64.4353 211.729 64.1757 212.024 64.0237C212.293 63.8845 212.574 63.772 212.865 63.6878C213.44 63.5232 214.038 63.4502 214.636 63.4712C215.787 63.4712 216.871 63.648 217.907 63.6038C218.41 63.592 218.912 63.5432 219.408 63.4579C219.89 63.3695 220.351 63.2458 220.802 63.1308C221.636 62.8703 222.51 62.7581 223.383 62.7993C224.1 62.8679 224.801 63.0468 225.463 63.3297C225.961 63.5369 226.446 63.7746 226.915 64.0414C227.3 64.2579 227.593 64.4392 227.801 64.5585C227.903 64.6174 228.001 64.6839 228.093 64.7574C227.982 64.7149 227.875 64.6616 227.774 64.5983L226.889 64.1209C226.416 63.8699 225.93 63.6456 225.432 63.4491C224.78 63.1837 224.09 63.0197 223.387 62.9629C222.534 62.932 221.681 63.0501 220.868 63.3121C220.426 63.4314 219.957 63.564 219.465 63.6568C218.958 63.7488 218.444 63.802 217.929 63.8159C216.876 63.8646 215.778 63.7099 214.653 63.6966C214.085 63.6795 213.518 63.7495 212.971 63.9043C212.431 64.0811 211.816 64.2712 211.643 64.8193C211.571 65.0932 211.555 65.3787 211.595 65.6591L211.626 65.8624C211.641 65.9171 211.67 65.9671 211.71 66.0083C211.799 66.1055 211.905 66.1849 212.024 66.2425C212.559 66.4242 213.119 66.5226 213.684 66.5342C214.771 66.6954 215.847 66.9228 216.907 67.2149C217.92 67.4757 218.868 67.7674 219.753 68.0503L222.223 68.8238L225.791 69.9597L226.756 70.278C226.86 70.3116 226.961 70.3545 227.057 70.4062Z" fill="#EB996E"/>
<path d="M215.871 53.9241C215.897 53.9594 215.189 54.3661 214.144 55.1573C213.535 55.6212 212.955 56.1232 212.409 56.6601C211.789 57.2612 211.139 57.9861 210.368 58.627C209.983 58.8902 209.696 59.2744 209.554 59.7187C209.499 59.9144 209.525 60.1238 209.624 60.301C209.724 60.4782 209.889 60.6089 210.085 60.6646C210.466 60.771 210.869 60.7786 211.254 60.6867C211.602 60.6221 211.943 60.5244 212.272 60.395C212.919 60.1206 213.523 59.7544 214.065 59.3076C213.956 59.4674 213.821 59.6078 213.666 59.7231C213.266 60.0612 212.819 60.3396 212.338 60.5497C212.003 60.692 211.655 60.8015 211.298 60.8767C210.88 60.9849 210.441 60.9849 210.023 60.8767C209.774 60.8075 209.562 60.6428 209.434 60.4186C209.305 60.1943 209.27 59.9286 209.337 59.6789C209.488 59.1853 209.8 58.756 210.222 58.459C210.979 57.8137 211.63 57.133 212.268 56.5142C212.821 55.9793 213.412 55.4859 214.038 55.0379C214.578 54.6534 215.034 54.3793 215.366 54.1937C215.525 54.0879 215.694 53.9977 215.871 53.9241Z" fill="#EB996E"/>
<path d="M221.409 55.7451C221.251 55.9579 221.079 56.1602 220.895 56.3506L219.439 57.9507L217.256 60.3065C216.82 60.7843 216.301 61.1796 215.725 61.4734C215.409 61.6323 215.061 61.7184 214.707 61.7253C214.518 61.7285 214.331 61.6942 214.157 61.6244C213.982 61.5546 213.823 61.4506 213.689 61.3187C213.551 61.1654 213.467 60.9714 213.449 60.7662C213.434 60.5757 213.454 60.384 213.507 60.2004C213.608 59.8538 213.767 59.5266 213.976 59.2325C214.76 58.4059 215.486 57.628 216.136 56.912C216.787 56.1959 217.438 55.6346 217.96 55.144C218.185 54.9096 218.439 54.7059 218.717 54.5384C218.942 54.4391 219.184 54.385 219.43 54.3793C219.824 54.3528 220.054 54.3793 220.032 54.4323C219.834 54.4086 219.634 54.4176 219.439 54.4589C219.207 54.4787 218.981 54.5385 218.77 54.6357C218.51 54.8122 218.271 55.0183 218.058 55.25C217.553 55.7539 216.929 56.3374 216.287 57.0446C215.645 57.7518 214.924 58.5562 214.144 59.3916C213.95 59.6607 213.801 59.9591 213.702 60.2756C213.656 60.4334 213.638 60.5979 213.649 60.7618C213.667 60.9173 213.731 61.0637 213.835 61.1817C214.063 61.3996 214.369 61.5188 214.685 61.5132C215.003 61.5071 215.316 61.4301 215.601 61.2878C216.154 61.0081 216.653 60.6324 217.075 60.1783L219.288 57.8578L220.798 56.3108L221.218 55.8954C221.336 55.7893 221.4 55.7392 221.409 55.7451Z" fill="#EB996E"/>
<path d="M228.19 57.8755C228.19 57.8755 228.19 58.0125 228.013 58.1363C227.91 58.2165 227.792 58.2744 227.665 58.3062C227.538 58.338 227.406 58.343 227.277 58.3209C227.149 58.2989 227.026 58.2502 226.917 58.1781C226.808 58.106 226.716 58.0119 226.645 57.902C226.544 57.7341 226.544 57.6059 226.57 57.6015C226.597 57.5971 226.659 57.6855 226.774 57.8004C226.92 57.9499 227.108 58.0516 227.314 58.0921C227.522 58.1228 227.735 58.0905 227.925 57.9993C228.075 57.9286 228.164 57.8534 228.19 57.8755Z" fill="#EB996E"/>
<path d="M228.721 59.9043C228.673 59.9441 228.341 59.6126 228.049 59.1131C227.836 58.8323 227.708 58.4963 227.681 58.1452C227.739 58.1231 227.96 58.5209 228.248 58.9982C228.45 59.2751 228.609 59.5805 228.721 59.9043Z" fill="#EB996E"/>
<path d="M229.7 67.8073C229.506 67.5282 229.364 67.2169 229.279 66.8879C229.027 66.1072 228.904 65.2904 228.916 64.4702C228.933 63.65 229.082 62.838 229.359 62.0657C229.451 61.7381 229.601 61.4297 229.802 61.1552C229.429 62.225 229.213 63.343 229.16 64.4746C229.177 65.6058 229.359 66.7285 229.7 67.8073Z" fill="#EB996E"/>
<path d="M241.616 98.4334C241.572 98.4334 241.528 97.9649 241.298 97.2444C241.16 96.8246 240.985 96.4178 240.775 96.0289C240.253 95.0798 239.527 94.2573 238.65 93.62C238.293 93.3602 237.912 93.1339 237.513 92.9438C236.831 92.6211 236.366 92.5018 236.375 92.4752C236.488 92.4708 236.6 92.4858 236.707 92.5195C237.01 92.584 237.306 92.6757 237.592 92.7935C238.013 92.9694 238.413 93.1887 238.788 93.4476C239.71 94.0837 240.461 94.9369 240.974 95.9317C241.184 96.3356 241.348 96.7609 241.466 97.2002C241.547 97.4894 241.602 97.7852 241.63 98.0842C241.644 98.2006 241.639 98.3185 241.616 98.4334Z" fill="#EB996E"/>
<path d="M190.984 140.998C189.736 140.78 188.451 140.944 187.297 141.467C185.327 140.583 182.897 142.099 182.897 142.099C182.184 141.758 177.89 144.561 177.89 144.561L172.543 147.08L143.977 125.886L152.074 117.488L140.728 105.7L127.448 119.358C125.821 121.116 124.879 123.397 124.792 125.789C124.665 128.335 125.285 130.863 126.577 133.062C127.869 135.26 129.777 137.034 132.065 138.165L165.708 155.403C168.292 155.259 170.856 154.861 173.362 154.214C176.266 153.458 181.228 151.257 181.228 151.257C181.228 151.257 181.228 151.407 182.113 153.127C183.711 156.221 186.053 152.879 186.053 152.879C186.286 153.422 186.593 153.931 186.965 154.391C188.988 156.349 190.391 153.719 190.391 153.719C190.391 153.719 190.997 154.775 192.804 153.988C194.61 153.202 192.542 147.774 192.542 147.774C192.542 147.774 193.149 148.954 194.313 147.46C195.477 145.966 192.919 141.405 190.984 140.998Z" fill="#FFDFCE"/>
<path d="M186.943 141.745C187.053 141.668 187.181 141.618 187.314 141.599C187.673 141.521 188.046 141.533 188.399 141.634C188.919 141.782 189.404 142.03 189.829 142.364C190.084 142.553 190.323 142.765 190.541 142.996C190.762 143.267 190.949 143.564 191.099 143.88C191.624 144.934 192.06 146.029 192.405 147.155C192.538 147.597 192.626 147.937 192.684 148.185C192.725 148.31 192.745 148.442 192.742 148.574C192.711 148.574 192.551 148.048 192.25 147.204C191.86 146.104 191.406 145.028 190.891 143.981C190.752 143.688 190.576 143.414 190.369 143.164C190.162 142.942 189.939 142.736 189.7 142.549C189.304 142.227 188.855 141.975 188.372 141.807C187.908 141.67 187.417 141.649 186.943 141.745Z" fill="#EB996E"/>
<path d="M190.382 153.732C190.28 153.578 190.195 153.414 190.13 153.241L189.506 151.889C188.979 150.744 188.209 149.179 187.474 147.398C187.178 146.551 186.787 145.74 186.31 144.98C185.897 144.384 185.329 143.912 184.667 143.615C184.227 143.402 183.737 143.315 183.251 143.363C182.905 143.407 182.728 143.5 182.72 143.478C182.711 143.456 182.759 143.447 182.843 143.403C182.966 143.341 183.098 143.298 183.233 143.274C183.741 143.188 184.263 143.254 184.734 143.464C185.436 143.757 186.042 144.241 186.482 144.861C186.979 145.627 187.384 146.449 187.686 147.31C188.417 149.078 189.165 150.66 189.656 151.823C189.9 152.402 190.099 152.879 190.214 153.206C190.289 153.375 190.345 153.551 190.382 153.732Z" fill="#EB996E"/>
<path d="M177.27 146.912C177.409 146.813 177.557 146.729 177.713 146.66L178.988 146.046C179.262 145.917 179.55 145.776 179.873 145.635C180.237 145.49 180.63 145.432 181.02 145.467C181.454 145.501 181.87 145.654 182.224 145.909C182.58 146.2 182.88 146.553 183.109 146.952C183.353 147.35 183.552 147.761 183.729 148.141C183.906 148.521 184.114 148.888 184.309 149.232C184.694 149.918 185.057 150.532 185.322 151.071C185.541 151.492 185.73 151.928 185.889 152.375C185.96 152.534 186.007 152.702 186.031 152.875C185.995 152.875 185.756 152.189 185.181 151.146C184.893 150.625 184.521 150.024 184.123 149.339C183.924 148.994 183.724 148.627 183.53 148.242C183.335 147.858 183.149 147.456 182.914 147.071C182.7 146.698 182.423 146.365 182.095 146.085C181.78 145.844 181.405 145.692 181.011 145.643C180.653 145.605 180.29 145.65 179.953 145.776C179.634 145.904 179.329 146.046 179.067 146.156L177.762 146.744C177.605 146.82 177.44 146.876 177.27 146.912Z" fill="#EB996E"/>
<path d="M177.89 144.565C177.772 144.663 177.641 144.745 177.501 144.808C177.244 144.954 176.868 145.157 176.398 145.405C175.464 145.9 174.163 146.572 172.72 147.296C171.277 148.021 169.966 148.667 169.01 149.126L167.877 149.657C167.737 149.731 167.589 149.786 167.434 149.82C167.555 149.722 167.687 149.639 167.828 149.573C168.085 149.431 168.461 149.228 168.931 148.981C169.865 148.485 171.166 147.818 172.609 147.089C174.052 146.359 175.362 145.719 176.314 145.263C176.792 145.033 177.2 144.852 177.452 144.728C177.589 144.653 177.737 144.598 177.89 144.565Z" fill="#EB996E"/>
<path d="M144.358 125.939C143.242 125.771 142.11 125.734 140.985 125.829C139.868 125.996 138.775 126.293 137.727 126.713C137.993 126.501 138.292 126.334 138.612 126.218C139.36 125.897 140.15 125.685 140.958 125.59C141.769 125.495 142.588 125.515 143.393 125.652C143.728 125.695 144.054 125.792 144.358 125.939Z" fill="#EB996E"/>
<path d="M207.443 49.3758C200.368 49.2747 193.306 50.0166 186.407 51.5858C184.809 51.9527 183.118 52.4212 182.038 53.6499C180.891 54.9494 180.71 56.8014 180.542 58.5119C180.359 60.6129 180.176 62.7124 179.993 64.8104C179.689 65.3302 179.354 65.8306 178.988 66.3088C177.324 68.479 175.203 70.2868 173.676 72.5675C172.149 74.8483 171.325 77.8715 172.556 80.3114C173.304 81.7877 174.685 82.8308 175.694 84.1391C177.408 86.3491 177.965 89.2265 178.966 91.8476C179.966 94.4686 181.772 97.1516 184.53 97.6643C185.858 97.9162 187.213 97.6378 188.536 97.8323C190.515 98.1196 192.179 99.4146 193.751 100.648C195.322 101.881 197.031 103.136 199.023 103.335C201.015 103.534 203.295 102.186 203.335 100.188C202.596 100.604 201.758 100.811 200.91 100.788C200.063 100.764 199.237 100.511 198.523 100.056C197.363 99.2909 196.615 98.0533 195.619 97.0897C193.171 94.7206 189.231 93.9692 187.527 91.021C186.199 88.6917 186.717 85.7701 187.328 83.149C187.855 80.8771 188.395 78.4152 187.735 76.2317C187.787 75.8805 187.816 75.526 187.819 75.1709C187.819 72.846 186.912 70.3531 187.996 68.2978C189.43 65.5751 193.565 65.2303 195.012 62.5209C195.858 60.9429 195.561 58.9274 196.482 57.3937C197.345 55.9528 199.076 55.2898 200.723 54.9317C202.37 54.5737 204.1 54.4102 205.552 53.5615C207.004 52.7129 208.102 50.9184 207.443 49.3758Z" fill="#263238"/>
<path d="M212.808 96.798C212.791 96.8379 212.769 96.8751 212.741 96.9085L212.524 97.2135C212.227 97.5956 211.885 97.9413 211.506 98.2433C210.897 98.7149 210.214 99.081 209.483 99.3262C208.517 99.661 207.49 99.7802 206.473 99.6754C205.231 99.5549 204.052 99.0723 203.082 98.2875C202.029 97.4787 201.09 96.4046 199.899 95.5515C199.303 95.1075 198.607 94.8147 197.872 94.6985C197.096 94.635 196.318 94.7768 195.614 95.1095C194.866 95.4624 194.08 95.7322 193.273 95.914C192.406 96.0387 191.522 95.8838 190.75 95.472C189.994 95.0747 189.281 94.6023 188.62 94.062C187.96 93.5665 187.335 93.0244 186.752 92.4399C186.176 91.873 185.724 91.1927 185.424 90.442C185.157 89.7056 185.105 88.9085 185.274 88.1436C185.436 87.4345 185.659 86.7409 185.942 86.0706C186.199 85.4209 186.42 84.78 186.615 84.1524C186.971 82.9944 187.245 81.8128 187.434 80.6164C187.708 78.8729 187.804 77.1062 187.722 75.3433C187.695 74.7201 187.655 74.2339 187.62 73.9068C187.62 73.7521 187.62 73.6328 187.589 73.5355C187.582 73.4931 187.582 73.4498 187.589 73.4073C187.604 73.4469 187.613 73.4887 187.615 73.5311L187.669 73.9024C187.717 74.2295 187.775 74.7112 187.815 75.3389C187.931 77.1094 187.86 78.8873 187.602 80.6429C187.421 81.855 187.155 83.0529 186.805 84.2275C186.611 84.8551 186.389 85.5049 186.137 86.1635C185.86 86.8154 185.639 87.4896 185.477 88.179C185.317 88.9062 185.369 89.6641 185.628 90.3625C185.919 91.0836 186.356 91.7367 186.912 92.2807C187.488 92.856 188.105 93.3893 188.758 93.8764C189.406 94.4063 190.106 94.8698 190.847 95.2598C191.574 95.6588 192.411 95.8138 193.233 95.7018C194.024 95.5214 194.792 95.2561 195.526 94.9106C196.266 94.5685 197.082 94.4253 197.894 94.4952C198.664 94.6135 199.393 94.9169 200.019 95.3792C201.232 96.2632 202.161 97.3416 203.197 98.1417C204.134 98.9135 205.278 99.3917 206.486 99.5163C208.247 99.7088 210.016 99.2357 211.444 98.1903C211.953 97.7821 212.41 97.3147 212.808 96.798Z" fill="#263238"/>
<path d="M168.581 82.7424C168.453 82.5859 168.335 82.4221 168.227 82.2517C167.925 81.7559 167.713 81.2115 167.598 80.6429C167.424 79.7391 167.439 78.809 167.642 77.9113C167.908 76.72 168.431 75.6008 169.174 74.6317C170.089 73.4786 171.165 72.4633 172.37 71.6172C173.641 70.6713 175.084 69.7918 176.522 68.7707C178.057 67.7452 179.392 66.4497 180.462 64.9474C180.99 64.1273 181.392 63.2336 181.657 62.2954C181.941 61.3496 182.135 60.3595 182.365 59.3606C182.565 58.3647 182.862 57.3906 183.251 56.4522C183.64 55.5303 184.235 54.7094 184.99 54.0521C185.729 53.4317 186.581 52.9617 187.5 52.6687C188.373 52.3866 189.277 52.2085 190.192 52.1383C191.875 52.053 193.563 52.1062 195.238 52.2974C196.688 52.4522 198.149 52.4714 199.603 52.3549C200.799 52.2399 201.961 51.8947 203.025 51.3383C203.829 50.9208 204.541 50.3467 205.119 49.6498C205.483 49.2077 205.771 48.707 205.968 48.1691C206.092 47.7978 206.141 47.5945 206.15 47.5989C206.118 47.7979 206.072 47.9943 206.013 48.1868C205.829 48.7376 205.55 49.2521 205.189 49.7073C204.615 50.432 203.9 51.0333 203.087 51.4753C202.012 52.0518 200.834 52.4136 199.621 52.5405C198.156 52.6689 196.683 52.6585 195.221 52.5096C193.557 52.3288 191.881 52.283 190.21 52.3725C189.306 52.4428 188.414 52.6209 187.554 52.9029C186.664 53.1832 185.837 53.6335 185.119 54.2289C184.39 54.8669 183.817 55.6619 183.441 56.5539C183.052 57.4786 182.756 58.4395 182.556 59.4224C182.326 60.4169 182.113 61.4114 181.839 62.3706C181.569 63.3261 181.156 64.2352 180.613 65.0668C179.531 66.5885 178.181 67.9006 176.629 68.9387C175.177 69.9641 173.733 70.8349 172.467 71.7675C171.271 72.5969 170.2 73.5943 169.289 74.7289C168.547 75.6713 168.023 76.7655 167.753 77.9334C167.538 78.8137 167.51 79.7289 167.669 80.6208C167.823 81.3833 168.133 82.1057 168.581 82.7424Z" fill="#455A64"/>
<path d="M169.878 85.0629C169.384 84.6729 168.929 84.2363 168.519 83.759C168.014 83.2132 167.613 82.5795 167.337 81.8894C167.163 81.45 167.093 80.9766 167.133 80.5059C167.188 79.9764 167.395 79.4743 167.731 79.0606C168.448 78.1765 169.634 77.708 170.878 77.4473C171.502 77.3191 172.157 77.2174 172.808 77.0539C173.48 76.9132 174.12 76.6478 174.694 76.2715C175.273 75.8466 175.744 75.2907 176.066 74.6494C176.403 73.9693 176.687 73.2644 176.916 72.541C177.152 71.782 177.448 71.043 177.801 70.331C178.18 69.5822 178.754 68.9488 179.461 68.4967C180.181 68.0868 180.959 67.7888 181.768 67.6128C182.551 67.4094 183.326 67.2459 184.056 66.9984C185.462 66.5089 186.687 65.6078 187.571 64.4127C188.39 63.331 189.125 62.1889 189.771 60.996C190.34 59.9563 191.006 58.9722 191.759 58.0567C192.387 57.2973 193.159 56.6682 194.03 56.2047C194.688 55.8554 195.408 55.6377 196.15 55.5638C196.619 55.5192 197.093 55.5581 197.549 55.6787C197.701 55.719 197.849 55.7723 197.991 55.8379C197.991 55.8379 197.828 55.7937 197.518 55.7229C197.066 55.6263 196.601 55.6025 196.141 55.6522C195.416 55.7412 194.715 55.9661 194.074 56.3152C193.224 56.7815 192.473 57.4073 191.861 58.1584C191.124 59.0762 190.472 60.0584 189.913 61.0932C189.276 62.2948 188.548 63.4459 187.735 64.5364C187.279 65.1232 186.755 65.653 186.172 66.1144C185.563 66.5825 184.879 66.9442 184.149 67.184C183.406 67.4404 182.622 67.6039 181.847 67.8072C181.06 67.9852 180.304 68.2834 179.608 68.6912C178.929 69.1272 178.382 69.7381 178.023 70.4592C177.67 71.1609 177.374 71.8895 177.137 72.6383C176.899 73.3719 176.603 74.0857 176.252 74.7732C175.909 75.4427 175.415 76.0237 174.809 76.4704C174.21 76.8554 173.545 77.128 172.848 77.2749C172.184 77.434 171.52 77.5312 170.909 77.6594C169.683 77.9069 168.528 78.3622 167.85 79.1843C167.529 79.5724 167.328 80.0454 167.27 80.5457C167.227 80.9954 167.288 81.449 167.448 81.8717C167.713 82.5511 168.095 83.1793 168.576 83.7281C168.966 84.1701 169.298 84.5193 169.524 84.7447L169.785 84.9966C169.851 85.0276 169.882 85.0585 169.878 85.0629Z" fill="#455A64"/>
<path d="M224.37 56.5098C224.309 56.6328 224.231 56.7472 224.14 56.8501C223.981 57.0623 223.746 57.3628 223.44 57.7341C222.838 58.459 221.971 59.4314 220.953 60.4524C220.448 60.9474 219.974 61.5044 219.324 61.7077C219.021 61.8117 218.692 61.8117 218.39 61.7077C218.13 61.5999 217.917 61.4043 217.788 61.1552C217.613 60.8084 217.556 60.4146 217.624 60.0325C217.631 59.8945 217.666 59.7593 217.726 59.6347C217.74 59.7699 217.74 59.9062 217.726 60.0413C217.693 60.4 217.769 60.76 217.943 61.0756C218.062 61.2793 218.248 61.4355 218.469 61.5176C218.729 61.6079 219.011 61.6079 219.271 61.5176C219.837 61.3364 220.293 60.806 220.802 60.3021C221.816 59.2899 222.697 58.3352 223.334 57.6501C223.654 57.2472 224 56.8663 224.37 56.5098Z" fill="#EB996E"/>
<path d="M227.752 56.5098C227.679 56.6372 227.588 56.7534 227.482 56.8545C227.301 57.0667 227.039 57.3673 226.694 57.7385L225.503 59.0248L224.795 59.7762C224.55 60.0588 224.281 60.3192 223.989 60.5541C223.679 60.8011 223.304 60.9544 222.909 60.9961C222.718 61.0161 222.524 60.9858 222.348 60.9083C222.172 60.8308 222.019 60.7087 221.905 60.5541C221.798 60.4043 221.741 60.2251 221.741 60.0414C221.751 59.8737 221.803 59.7112 221.891 59.5684C222.055 59.3032 222.223 59.0999 222.369 58.8966C222.661 58.4944 222.905 58.1717 223.078 57.9507C223.157 57.8285 223.254 57.7183 223.365 57.6236C223.31 57.7584 223.239 57.886 223.153 58.0037C223.002 58.238 222.781 58.5739 222.502 58.9894C222.365 59.1971 222.197 59.4314 222.059 59.6612C221.979 59.7733 221.935 59.9078 221.935 60.0458C221.935 60.1838 221.979 60.3183 222.059 60.4303C222.154 60.5532 222.28 60.6489 222.424 60.7078C222.568 60.7668 222.724 60.7869 222.878 60.7662C223.227 60.7288 223.559 60.5941 223.835 60.3773C224.124 60.1585 224.392 59.9128 224.636 59.6436L225.357 58.901L226.583 57.6457C226.933 57.2921 227.221 57.0092 227.425 56.8147C227.519 56.6984 227.629 56.5958 227.752 56.5098Z" fill="#EB996E"/>
<path d="M273.971 191.828C274.351 191.002 274.926 190.281 275.648 189.726C276.369 189.172 277.215 188.801 278.112 188.646C279.009 188.49 279.931 188.555 280.797 188.835C281.664 189.114 282.449 189.6 283.085 190.25C282.152 191.753 280.703 192.866 279.008 193.379C278.113 193.694 277.14 193.713 276.233 193.434C275.326 193.155 274.533 192.592 273.971 191.828Z" fill="#FF8B00"/>
<path d="M270.828 192.553C271.234 192.371 271.661 192.237 272.098 192.155C272.9 191.961 274.015 191.744 275.25 191.541C276.485 191.337 277.61 191.183 278.428 191.099C278.867 191.026 279.312 190.992 279.756 190.997C279.331 191.122 278.896 191.211 278.455 191.262L275.29 191.779C274.059 191.983 272.944 192.177 272.138 192.327C271.706 192.427 271.269 192.502 270.828 192.553Z" fill="#263238"/>
<path d="M115.748 163.845C116.692 164.621 117.428 165.62 117.89 166.75C118.351 167.881 118.524 169.108 118.392 170.322C118.26 171.536 117.828 172.698 117.135 173.704C116.442 174.71 115.509 175.528 114.42 176.084C112.796 171.925 112.172 167.447 115.748 163.845Z" fill="#FF8B00"/>
<path d="M121.906 167.036C121.993 168.613 122.471 170.143 123.298 171.489C124.124 172.835 125.273 173.955 126.64 174.748C128.008 175.541 129.551 175.982 131.132 176.032C132.712 176.081 134.28 175.738 135.695 175.032C132.596 170.17 128.404 166.073 121.906 167.027" fill="#FF8B00"/>
<path d="M107.798 151.663C107.876 151.728 107.946 151.803 108.006 151.884L108.559 152.543C109.029 153.122 109.715 153.957 110.582 154.97C112.309 157.003 114.748 159.77 117.621 162.656C119.06 164.097 120.472 165.427 121.782 166.603C123.092 167.779 124.332 168.782 125.394 169.587C126.229 170.225 127.099 170.815 128.001 171.355C128.643 171.735 129.024 171.894 129.015 171.916C128.916 171.893 128.821 171.858 128.732 171.81C128.466 171.701 128.207 171.576 127.957 171.434C127.034 170.921 126.147 170.347 125.301 169.715C124.221 168.919 122.982 167.916 121.649 166.758C120.317 165.6 118.905 164.256 117.462 162.815C114.584 159.924 112.15 157.135 110.463 155.071C109.609 154.041 108.945 153.188 108.493 152.596L107.971 151.907C107.906 151.831 107.848 151.75 107.798 151.663Z" fill="#263238"/>
<path d="M115.408 170.13C115.368 170.13 115.514 169.511 115.642 168.508C115.971 165.884 115.692 163.22 114.828 160.72C114.496 159.765 114.226 159.195 114.261 159.177C114.353 159.294 114.429 159.421 114.487 159.558C114.672 159.917 114.837 160.286 114.983 160.663C115.46 161.91 115.772 163.215 115.912 164.543C116.05 165.868 116.013 167.206 115.802 168.521C115.736 168.928 115.647 169.331 115.536 169.728C115.509 169.867 115.466 170.002 115.408 170.13Z" fill="#263238"/>
<path d="M310.752 80.6827C310.204 79.9572 309.841 79.1095 309.694 78.2126C309.547 77.3157 309.621 76.3966 309.91 75.5347C310.198 74.6728 310.692 73.8939 311.35 73.2653C312.007 72.6367 312.808 72.1772 313.683 71.9266C314.566 73.4568 314.86 75.2562 314.51 76.9875C314.364 77.9245 313.919 78.7896 313.243 79.455C312.566 80.1204 311.693 80.5508 310.752 80.6827Z" fill="#FF8B00"/>
<path d="M309.911 83.7899C309.942 83.3467 310.027 82.9088 310.163 82.486C310.371 81.6904 310.708 80.6075 311.115 79.4229C311.522 78.2384 311.921 77.1775 312.222 76.4129C312.363 75.9918 312.544 75.5849 312.762 75.1974C312.669 75.6316 312.54 76.0574 312.377 76.4703C312.084 77.3146 311.726 78.3488 311.332 79.4981C310.938 80.6473 310.566 81.7523 310.318 82.5302C310.204 82.9567 310.068 83.3772 309.911 83.7899Z" fill="#263238"/>
<path d="M291.275 113.567C290.817 111.87 290.779 110.087 291.166 108.372C291.553 106.657 292.351 105.062 293.494 103.724C294.636 102.387 296.087 101.347 297.722 100.695C299.357 100.042 301.126 99.7972 302.877 99.9804C303.492 103.322 302.434 106.752 300.686 109.656C298.601 113.081 294.457 114.518 291.275 113.567Z" fill="#FF8B00"/>
<path d="M278.176 126.651C278.231 126.565 278.295 126.485 278.366 126.412L278.937 125.762C279.446 125.205 280.19 124.41 281.115 123.437C282.975 121.492 285.569 118.836 288.455 115.923C291.341 113.01 293.966 110.381 295.878 108.493L298.154 106.261L298.782 105.664C298.924 105.532 299.003 105.461 299.012 105.47C298.953 105.553 298.887 105.63 298.813 105.7L298.216 106.327L296.002 108.604L288.619 116.082L281.235 123.552L279.022 125.824L278.42 126.443C278.347 126.521 278.265 126.591 278.176 126.651Z" fill="#263238"/>
<g opacity="0.3">
<path opacity="0.3" d="M291.275 113.567C290.817 111.87 290.779 110.087 291.166 108.372C291.553 106.657 292.351 105.062 293.494 103.724C294.636 102.387 296.087 101.347 297.722 100.695C299.357 100.042 301.126 99.7972 302.877 99.9804C303.492 103.322 302.434 106.752 300.686 109.656C298.601 113.081 294.457 114.518 291.275 113.567Z" fill="black"/>
</g>
<path d="M285.206 114.88C284.241 114.39 283.412 113.671 282.789 112.787C282.166 111.904 281.77 110.881 281.633 109.809C281.496 108.738 281.624 107.649 282.005 106.637C282.387 105.626 283.01 104.723 283.82 104.007C285.591 105.112 286.724 106.999 287.313 108.997C288.012 111.357 286.959 113.859 285.206 114.88Z" fill="#FF8B00"/>
<g opacity="0.3">
<path opacity="0.3" d="M285.206 114.88C284.241 114.39 283.412 113.671 282.789 112.787C282.166 111.904 281.77 110.881 281.633 109.809C281.496 108.738 281.624 107.649 282.005 106.637C282.387 105.626 283.01 104.723 283.82 104.007C285.591 105.112 286.724 106.999 287.313 108.997C288.012 111.357 286.959 113.859 285.206 114.88Z" fill="black"/>
</g>
<path d="M285.896 118.646C285.835 118.516 285.791 118.38 285.764 118.239C285.688 117.979 285.604 117.594 285.511 117.112C285.325 116.158 285.131 114.823 284.953 113.351C284.776 111.879 284.652 110.535 284.577 109.563C284.513 109.041 284.493 108.515 284.515 107.989C284.626 108.504 284.701 109.025 284.741 109.55C284.86 110.575 285.015 111.879 285.184 113.324C285.352 114.77 285.529 116.127 285.671 117.086C285.812 118.045 285.932 118.637 285.896 118.646Z" fill="#263238"/>
<path d="M202.299 166.108C202.975 164.505 204.041 163.096 205.4 162.008C206.759 160.921 208.368 160.188 210.082 159.878C211.796 159.567 213.56 159.688 215.216 160.229C216.871 160.771 218.365 161.716 219.563 162.979C214.543 166.864 208.686 169.516 202.334 166.108" fill="#FF8B00"/>
<g opacity="0.3">
<path opacity="0.3" d="M202.299 166.108C202.975 164.505 204.041 163.096 205.4 162.008C206.759 160.921 208.368 160.188 210.082 159.878C211.796 159.567 213.56 159.688 215.216 160.229C216.871 160.771 218.365 161.716 219.563 162.979C214.543 166.864 208.686 169.516 202.334 166.108" fill="black"/>
</g>
<path d="M199.479 167.664C199.598 167.545 199.732 167.441 199.877 167.354C200.143 167.164 200.537 166.912 201.041 166.621C203.672 165.102 206.588 164.141 209.607 163.796C210.182 163.734 210.652 163.704 210.975 163.699C211.142 163.676 211.312 163.676 211.479 163.699C211.479 163.734 210.767 163.779 209.625 163.947C208.139 164.164 206.674 164.507 205.247 164.972C203.823 165.442 202.443 166.034 201.121 166.74C200.085 167.306 199.501 167.695 199.479 167.664Z" fill="#263238"/>
<path d="M85.625 108.515C86.8406 107.949 88.1781 107.694 89.5171 107.772C90.8562 107.85 92.1548 108.259 93.2962 108.963C94.4376 109.666 95.3859 110.642 96.0559 111.802C96.7259 112.962 97.0965 114.271 97.1344 115.61C92.2429 115.247 87.5108 113.749 85.625 108.515Z" fill="#FF8B00"/>
<g opacity="0.3">
<path opacity="0.3" d="M85.625 108.515C86.8406 107.949 88.1781 107.694 89.5171 107.772C90.8562 107.85 92.1548 108.259 93.2962 108.963C94.4376 109.666 95.3859 110.642 96.0559 111.802C96.7259 112.962 97.0965 114.271 97.1344 115.61C92.2429 115.247 87.5108 113.749 85.625 108.515Z" fill="black"/>
</g>
<path d="M83.1947 107.945C83.3237 107.924 83.4553 107.924 83.5843 107.945C83.9367 107.983 84.2868 108.039 84.6334 108.113C85.7798 108.352 86.8984 108.709 87.9711 109.178C89.0429 109.652 90.0634 110.234 91.0167 110.915C91.3797 111.181 91.663 111.406 91.8489 111.574C91.9535 111.653 92.0472 111.745 92.1278 111.848C92.1012 111.879 91.6851 111.539 90.9237 111.052C88.9887 109.778 86.8491 108.843 84.598 108.29C83.7348 108.073 83.1903 107.981 83.1947 107.945Z" fill="#263238"/>
<path d="M244.246 160.693C244.102 159.504 244.256 158.297 244.695 157.182C245.134 156.067 245.843 155.078 246.76 154.305C247.677 153.531 248.772 152.998 249.946 152.752C251.121 152.506 252.338 152.556 253.489 152.897C251.82 156.95 249.226 160.552 244.246 160.693Z" fill="#FF8B00"/>
<path d="M243.082 162.599C243.217 162.185 243.403 161.79 243.635 161.423C244.679 159.599 246.099 158.018 247.8 156.782C248.142 156.512 248.515 156.285 248.911 156.106C248.587 156.392 248.247 156.66 247.893 156.91C246.268 158.197 244.873 159.75 243.768 161.502C243.56 161.881 243.331 162.247 243.082 162.599Z" fill="#263238"/>
<path d="M279.079 137.732C278.714 136.59 278.638 135.376 278.859 134.199C279.08 133.021 279.591 131.917 280.346 130.985C281.101 130.054 282.075 129.324 283.183 128.862C284.29 128.4 285.495 128.221 286.689 128.339C285.803 132.635 283.944 136.658 279.079 137.732Z" fill="#FF8B00"/>
<g opacity="0.3">
<path opacity="0.3" d="M279.079 137.732C278.714 136.59 278.638 135.376 278.859 134.199C279.08 133.021 279.591 131.917 280.346 130.985C281.101 130.054 282.075 129.324 283.183 128.862C284.29 128.4 285.495 128.221 286.689 128.339C285.803 132.635 283.944 136.658 279.079 137.732Z" fill="black"/>
</g>
<path d="M278.296 139.822C278.349 139.392 278.458 138.97 278.619 138.567C278.958 137.575 279.403 136.622 279.947 135.725C280.485 134.826 281.121 133.989 281.841 133.228C282.124 132.895 282.447 132.598 282.802 132.344C282.539 132.685 282.258 133.013 281.961 133.325C281.288 134.112 280.68 134.951 280.142 135.835C279.613 136.723 279.156 137.652 278.774 138.611C278.638 139.024 278.478 139.428 278.296 139.822Z" fill="#263238"/>
<path d="M16.5026 106.124C16.7628 104.954 17.3103 103.868 18.0958 102.961C18.8813 102.055 19.8801 101.359 21.0023 100.934C22.1245 100.509 23.3349 100.37 24.5245 100.528C25.7141 100.686 26.8456 101.138 27.8171 101.841C24.8955 105.108 21.248 107.645 16.5026 106.124Z" fill="#FF8B00"/>
<path d="M14.7717 107.534C15.038 107.191 15.3441 106.881 15.6836 106.61C16.4774 105.932 17.341 105.339 18.2599 104.842C19.1797 104.336 20.1519 103.932 21.1594 103.636C21.5695 103.491 21.9965 103.401 22.4299 103.366C22.0309 103.535 21.6231 103.683 21.2081 103.808C19.2465 104.48 17.4141 105.482 15.7899 106.769C15.4658 107.044 15.1259 107.299 14.7717 107.534Z" fill="#263238"/>
<path d="M218.841 48.4431L222.382 42.0385C220.11 38.433 219.269 34.109 220.027 29.9165C220.785 25.7239 223.086 21.966 226.478 19.3814C229.87 16.7968 234.107 15.5724 238.357 15.9489C242.607 16.3254 246.563 18.2756 249.446 21.4161C252.329 24.5566 253.931 28.6603 253.938 32.9206C253.945 37.1809 252.356 41.2897 249.483 44.4393C246.609 47.589 242.66 49.5517 238.412 49.9417C234.163 50.3317 229.921 49.1208 226.521 46.5469L218.841 48.4431Z" fill="white"/>
<path d="M218.841 48.4432L226.53 46.4984L226.499 46.5912L226.229 46.2509L226.583 46.5116C227.672 47.3261 228.851 48.0113 230.098 48.5537C231.583 49.1914 233.151 49.6155 234.755 49.8134C235.643 49.9241 236.539 49.9567 237.433 49.9106C237.876 49.8797 238.363 49.862 238.836 49.8178L240.257 49.5835C244.496 48.702 248.24 46.2411 250.726 42.7016C252.108 40.7444 253.055 38.5159 253.506 36.1644C253.96 33.6755 253.857 31.1172 253.205 28.6725C252.542 26.1201 251.281 23.7613 249.527 21.7906L248.832 21.0436C248.602 20.7917 248.332 20.6016 248.084 20.3541C247.839 20.1203 247.582 19.9005 247.313 19.6955L246.499 19.0988C246.239 18.9017 245.965 18.723 245.68 18.564L244.795 18.0424L243.909 17.6004C243.623 17.4511 243.327 17.3197 243.024 17.207C240.616 16.2799 238.031 15.9067 235.459 16.1153C233.026 16.2996 230.663 17.018 228.54 18.2192C224.722 20.3841 221.88 23.9272 220.598 28.12C220.091 29.9076 219.855 31.7611 219.899 33.6185C220.001 36.5945 220.887 39.491 222.467 42.0165V42.043V42.074L218.859 48.4476L222.369 42.0165V42.074C220.761 39.5461 219.852 36.6377 219.735 33.645C219.682 31.7705 219.913 29.8988 220.421 28.0935C221.703 23.8489 224.564 20.2555 228.416 18.0513C230.566 16.8337 232.959 16.1034 235.423 15.912C238.029 15.6999 240.65 16.0761 243.09 17.0126C243.404 17.1259 243.71 17.2588 244.007 17.4104L244.919 17.8524L245.804 18.3695C246.101 18.5344 246.386 18.719 246.658 18.922L247.451 19.5143C247.734 19.7088 247.969 19.9563 248.234 20.1817C248.5 20.4071 248.756 20.6237 248.991 20.8801L249.713 21.658C251.494 23.6528 252.772 26.0443 253.44 28.6327C254.088 31.1102 254.182 33.6998 253.714 36.2175C253.259 38.6039 252.296 40.8649 250.89 42.8475C248.372 46.4261 244.579 48.9086 240.288 49.7869L238.845 50.0211C238.372 50.0653 237.898 50.0786 237.433 50.1095C236.53 50.1536 235.625 50.1166 234.728 49.999C233.109 49.7959 231.527 49.3612 230.032 48.7084C228.772 48.1577 227.584 47.4588 226.49 46.6266L226.57 46.547L226.628 46.6177H226.539L218.841 48.4432Z" fill="#263238"/>
<path d="M232.117 30.0559L234.33 30.0338C234.326 29.7815 234.373 29.531 234.467 29.2971C234.562 29.0633 234.703 28.8509 234.882 28.6727C235.061 28.4945 235.274 28.3541 235.509 28.2599C235.743 28.1657 235.994 28.1196 236.247 28.1244C236.62 28.1039 236.99 28.2019 237.304 28.4044C237.618 28.6068 237.86 28.9034 237.995 29.2515C238.116 29.5402 238.166 29.8533 238.142 30.1652C238.118 30.477 238.021 30.7788 237.858 31.046C237.486 31.6692 236.667 32.2394 235.167 31.9919L235.215 36.9909H237.429L237.389 34.0339C238.287 33.7606 239.071 33.2006 239.621 32.4398C240.17 31.679 240.454 30.7593 240.43 29.8217C240.399 26.5818 237.482 25.8437 236.233 25.8702C235.282 25.8923 232.037 26.1531 232.117 30.0559Z" fill="#FF8B00"/>
<path d="M237.456 38.0017L235.229 38.0231L235.249 40.1004L237.476 40.079L237.456 38.0017Z" fill="#FF8B00"/>
</svg>
