<svg width="100" height="100" viewBox="0 0 100 100" fill="none" xmlns="http://www.w3.org/2000/svg">
<rect width="100" height="100" fill="white"/>
<path d="M45.5559 69.7268L40.285 64.0774C40.3445 63.2376 40.4732 61.4743 40.512 61.1398C40.512 60.7992 40.8039 59.9721 41.6311 58.2692C42.5068 56.5954 44.3776 53.8878 45.2036 52.7432V46.4571C45.1935 46.1889 45.1793 45.5825 45.2036 45.3032C45.2339 44.9539 45.6895 44.6351 46.9193 44.8173C47.9033 44.9631 48.7971 46.2547 49.121 46.8823V54.4286C49.2425 56.3418 49.7283 56.5392 50.442 57.1465C51.6688 58.094 54.6074 57.3794 55.9233 56.9036L61.4806 53.6846L62.9021 50.4185C63.036 50.1372 63.4405 49.2451 63.987 47.9272C64.6165 46.0788 64.7772 46.2529 65.5273 45.6234C66.4515 45.0609 67.6668 45.102 68.3155 45.3994C68.8345 45.6372 68.8742 46.2734 68.8291 46.5617C68.0002 48.5169 66.2234 52.7463 65.7476 54.0221C65.2719 55.298 64.1979 56.608 63.7204 57.1036C62.1706 58.2929 59.0441 60.6878 58.936 60.7527C58.8279 60.8176 55.8635 62.9962 54.3949 64.0774C52.9082 65.2487 49.6321 67.8076 48.4212 68.6726C47.2102 69.5376 46.0064 69.7358 45.5559 69.7268Z" fill="#8E8E8E"/>
<path d="M56.0217 54.8124L52.7371 56.336H54.4356L56.2964 55.3993L60.755 52.7642L63.1778 46.7571C63.0529 46.678 62.5134 46.5023 61.3544 46.4323C60.1954 46.3624 59.3895 47.2275 59.1314 47.6687L56.0217 54.8124Z" fill="#8E8E8E"/>
<path d="M36.3865 63.9686L37.3844 63.1608C37.6507 62.9452 37.9469 63.1343 38.0616 63.2558C40.3704 65.7587 45.064 70.8499 45.3682 71.192C45.6723 71.5342 45.6201 72.0395 45.5559 72.2494L44.691 73.0454L36.3865 63.9686Z" fill="#8E8E8E"/>
<path d="M39.3794 79.3372H24.7949C23.8153 79.3372 22.9927 77.9249 22.6822 77.1227C22.382 75.2388 23.1868 74.1037 23.6267 73.7716C26.7751 70.8518 33.1961 64.9009 33.6929 64.4558C34.1897 64.0107 34.9005 64.2704 35.1938 64.4558C37.7988 67.2247 43.1743 72.9461 43.8368 73.681C44.4992 74.416 44.2077 75.0655 43.9791 75.2984C43.578 75.6995 42.4653 76.7941 41.2232 77.9637C39.9811 79.1334 39.4765 79.3667 39.3794 79.3372Z" fill="#8E8E8E"/>
<path d="M77.3832 39.6741H35.2712C35.5304 42.2421 37.7548 43.4337 38.8346 43.7086H51.7332C57.9665 43.7282 71.0281 43.7557 73.4076 43.7086C75.7871 43.6614 77.0495 40.9993 77.3832 39.6741Z" fill="#8E8E8E"/>
<path d="M38.77 37.1375V31.9492C43.9541 32.1659 44.6805 35.8456 44.3958 37.6584C43.1178 37.6723 40.3785 37.6917 39.6451 37.6584C38.9117 37.6251 38.7561 37.2972 38.77 37.1375Z" fill="#8E8E8E"/>
<path d="M38.77 30.7991V27.4602C43.0766 27.3417 45.0902 22.8775 45.5586 20.6602H66.8017C67.0633 25.5259 71.5431 27.1784 73.7503 27.3964V30.8343C69.0024 31.2299 67.1011 35.5486 66.7439 37.6584H45.4465C45.2522 32.8183 40.9146 31.0688 38.77 30.7991Z" fill="#8E8E8E"/>
<path d="M38.77 26.3256V21.1493C38.77 20.9088 38.9917 20.723 39.1025 20.6602H44.4095C44.2004 24.64 40.5627 26.0954 38.77 26.3256Z" fill="#8E8E8E"/>
<path d="M73.3528 20.6602H67.866C67.9693 24.4353 71.9112 26.0156 73.8692 26.3339C73.8585 24.6771 73.8434 21.3151 73.8692 21.1215C73.895 20.9278 73.5357 20.7332 73.3528 20.6602Z" fill="#8E8E8E"/>
<path d="M73.7503 37.2481V31.9039C69.4805 32.1829 68.0307 35.8565 67.8395 37.6584H72.6944C73.4464 37.6584 73.7117 37.3849 73.7503 37.2481Z" fill="#8E8E8E"/>
<path d="M60.6249 26.9867C60.489 27.5608 59.8506 27.2259 59.5484 26.9867V25.2302C59.5484 24.7618 58.8433 24.3929 58.4907 24.267C57.3701 24.2607 54.9626 24.2519 54.2978 24.267C53.6329 24.2821 53.2905 24.9154 53.2023 25.2302V27.4211C53.2023 28.1011 53.8445 28.5858 54.1656 28.7432C55.1036 28.7306 57.2819 28.713 58.4907 28.7432C59.6995 28.7734 60.4927 30.0905 60.7383 30.7452C60.7509 31.4504 60.7458 33.0457 60.6249 33.7861C60.5041 34.5264 59.2651 35.1648 58.6607 35.3915H53.9389C52.8057 35.3159 52.2202 34.126 52.0691 33.5405V31.4818C52.4166 30.9832 52.9694 31.2741 53.2023 31.4818V33.295C53.2023 33.6727 53.8445 34.1071 54.1656 34.2771C55.154 34.296 57.3499 34.3225 58.2263 34.2771C59.1026 34.2318 59.4728 33.6035 59.5484 33.295V30.8586C59.5484 30.3297 58.8433 29.9331 58.4907 29.8009H54.1656C53.0777 29.7556 52.4028 28.5355 52.2013 27.9311C52.1635 27.1945 52.1106 25.5362 52.2013 24.7958C52.292 24.0554 53.3219 23.3918 53.8256 23.1526C54.8644 23.1148 57.2517 23.0619 58.4907 23.1526C59.7297 23.2433 60.4298 24.3488 60.6249 24.8903C60.6816 25.3498 60.7609 26.4125 60.6249 26.9867Z" fill="white"/>
<path d="M55.8066 23.0254V21.5032C56.2345 20.8943 56.7528 21.2495 56.9585 21.5032L56.8351 35.449V36.8683C56.4731 37.7075 55.9986 37.218 55.8066 36.8683V23.0254Z" fill="white"/>
</svg>
