<svg width="100" height="100" viewBox="0 0 100 100" fill="none" xmlns="http://www.w3.org/2000/svg">
<rect width="100" height="100" fill="#E8EDF0"/>
<path d="M61.6167 64.0984C61.6167 60.8172 64.2854 58.1484 67.5667 58.1484C70.8478 58.1484 73.5167 60.8172 73.5167 64.0984C73.5167 67.3797 70.8479 70.0484 67.5667 70.0484C64.2854 70.0484 61.6167 67.3797 61.6167 64.0984ZM63.1834 64.0984C63.1834 66.516 65.149 68.4817 67.5667 68.4817C69.9842 68.4817 71.95 66.516 71.95 64.0984C71.95 61.6809 69.9844 59.7151 67.5667 59.7151C65.1492 59.7151 63.1834 61.6809 63.1834 64.0984Z" fill="black" stroke="black" stroke-width="0.5"/>
<path d="M26.4833 64.0984C26.4833 60.8172 29.152 58.1484 32.4333 58.1484C35.7145 58.1484 38.3833 60.8172 38.3833 64.0984C38.3833 67.3797 35.7145 70.0484 32.4333 70.0484C29.152 70.0484 26.4833 67.3797 26.4833 64.0984ZM28.05 64.0984C28.05 66.516 30.0156 68.4817 32.4333 68.4817C34.8509 68.4817 36.8166 66.516 36.8166 64.0984C36.8166 61.6809 34.8508 59.7151 32.4333 59.7151C30.0157 59.7151 28.05 61.6809 28.05 64.0984Z" fill="black" stroke="black" stroke-width="0.5"/>
<path d="M75.5997 61.2646C74.9053 59.3171 73.7581 57.4821 71.8266 56.5775L71.8266 56.5774C68.3755 54.9619 64.8415 55.3606 62.2319 57.4615C62.0812 57.5827 61.9019 57.6502 61.7209 57.6502H59.2998H59.0498V57.9002V57.911V57.9217V57.9325V57.9432V57.9539V57.9645V57.9752V57.9858V57.9965V58.0071V58.0177V58.0283V58.0389V58.0494V58.06V58.0705V58.081V58.0915V58.102V58.1125V58.1229V58.1333V58.1438V58.1542V58.1646V58.1749V58.1853V58.1957V58.206V58.2163V58.2266V58.2369V58.2472V58.2574V58.2676V58.2779V58.2881V58.2983V58.3085V58.3186V58.3288V58.3389V58.349V58.3591V58.3692V58.3793V58.3893V58.3993V58.4094V58.4194V58.4294V58.4393V58.4493V58.4592V58.4692V58.4791V58.489V58.4988V58.5087V58.5185V58.5284V58.5382V58.548V58.5578V58.5675V58.5773V58.587V58.5967V58.6064V58.6161V58.6258V58.6355V58.6451V58.6547V58.6643V58.6739V58.6835V58.693V58.7026V58.7121V58.7216V58.7311V58.7406V58.75V58.7594V58.7689V58.7783V58.7877V58.797V58.8064V58.8157V58.8251V58.8344V58.8437V58.8529V58.8622V58.8714V58.8807V58.8899V58.899V58.9082V58.9174V58.9265V58.9356V58.9447V58.9538V58.9629V58.972V58.981V58.99V58.999V59.008V59.017V59.0259V59.0349V59.0438V59.0527V59.0616V59.0704V59.0793V59.0881V59.0969V59.1057V59.1145V59.1232V59.132V59.1407V59.1494V59.1581V59.1668V59.1754V59.1841V59.1927V59.2013V59.2099V59.2185V59.227V59.2355V59.2441V59.2526V59.261V59.2695V59.2779V59.2864V59.2948V59.3032V59.3115V59.3199V59.3282V59.3366V59.3449V59.3531V59.3614V59.3697V59.3779V59.3861V59.3943V59.4025V59.4106V59.4188V59.4269V59.435V59.4431V59.4511V59.4592V59.4672V59.4752V59.4832V59.4912V59.4991V59.5071V59.515V59.5229V59.5308V59.5386V59.5465V59.5543V59.5621V59.5699V59.5777V59.5854V59.5932V59.6009V59.6086V59.6163V59.6239V59.6315V59.6392V59.6468V59.6544V59.6619V59.6695V59.677V59.6845V59.692V59.6995V59.7069V59.7143V59.7218V59.7292V59.7365V59.7439V59.7512V59.7585V59.7658V59.7731V59.7804V59.7876V59.7948V59.802V59.8092V59.8164V59.8235V59.8307V59.8378V59.8449V59.8519V59.859V59.866V59.873V59.88V59.887V59.8939V59.9008V59.9078V59.9146V59.9215V59.9284V59.9352V59.942V59.9488V59.9556V59.9623V59.9691V59.9758V59.9825V59.9892V59.9958V60.0024V60.0091V60.0157V60.0222V60.0288V60.0353V60.0418V60.0483V60.0548V60.0613V60.0677V60.0741V60.0805V60.0869V60.0932V60.0996V60.1059V60.1122V60.1184V60.1247V60.1309V60.1371V60.1433V60.1495V60.1557V60.1618V60.1679V60.174V60.1801V60.1861V60.1921V60.1981V60.2041V60.2101V60.216V60.222V60.2279V60.2338V60.2396V60.2455V60.2513V60.2571V60.2629V60.2686V60.2744V60.2801V60.2858V60.2915V60.2971V60.3027V60.3084V60.3139V60.3195V60.3251V60.3306V60.3361V60.3416V60.347V60.3525V60.3579V60.3633V60.3687V60.3741V60.3794V60.3847V60.39V60.3953V60.4005V60.4058V60.411V60.4162V60.4213V60.4265V60.4316V60.4367V60.4418V60.4468V60.4519V60.4569V60.4619V60.4669V60.4718V60.4767V60.4817V60.4865V60.4914V60.4962V60.5011V60.5059V60.5106V60.5154V60.5201V60.5248V60.5295V60.5342V60.5389V60.5435V60.5481V60.5527V60.5572V60.5618V60.5663V60.5708V60.5752V60.5797V60.5841V60.5885V60.5929V60.5972V60.6016V60.6059V60.6102V60.6145V60.6187V60.6229V60.6271V60.6313V60.6355V60.6396V60.6437V60.6478V60.6519V60.6559V60.6599V60.6639V60.6679V60.6719V60.6758V60.6797V60.6836V60.6875V60.6913V60.6951V60.6989V60.7027V60.7064V60.7102V60.7139V60.7175V60.7212V60.7248V60.7284V60.732V60.7356V60.7391V60.7427V60.7462V60.7496V60.7531V60.7565V60.7599V60.7633V60.7667V60.77V60.7733V60.7766V60.7799V60.7831V60.7863V60.7895V60.7927V60.7958V60.799V60.8021V60.8051V60.8082V60.8112V60.8142V60.8172V60.8202V60.8231V60.826V60.8289V60.8318V60.8346V60.8374V60.8402V60.843V60.8457V60.8485V60.8512V60.8538V60.8565V60.8591V60.8617V60.8643V60.8669V60.8694V60.8719V60.8744V60.8768V60.8793V60.8817V60.8841V60.8864V60.8888V60.8911V60.8934V60.8957V60.8979V60.9001V60.9023V60.9045V60.9066V60.9087V60.9108V60.9129V60.915V60.917V60.919V60.921V60.9229V60.9248V60.9267V60.9286V60.9305V60.9323V60.9341V60.9359V60.9376V60.9393V60.9411V60.9427V60.9444V60.946V60.9476V60.9492V60.9508V60.9523V60.9538V60.9553V60.9567V60.9582V60.9596V60.9609V60.9623V60.9636V60.9649V60.9662V60.9675V60.9687V60.9699V60.9711V60.9722V60.9734V60.9745V60.9755V60.9766V60.9776V60.9786V60.9796V60.9806V60.9815V60.9824V60.9833V60.9841V60.9849V60.9857V60.9865V60.9873V60.988V60.9887V60.9894V60.99V60.9906V60.9912V60.9918V60.9923V60.9928V60.9933V60.9938V60.9942V60.9947V60.995V60.9951V60.9951V60.9951V60.9952V60.9952V60.9953V60.9953V60.9953V60.9954V60.9954V60.9954V60.9955V60.9955V60.9955V60.9956V60.9956V60.9957V60.9957V60.9957V60.9958V60.9958V60.9958V60.9959V60.9959V60.9959V60.996V60.996V60.9961V60.9961V60.9961V60.9962V60.9962V60.9962V60.9963V60.9963V60.9963V60.9964V60.9964V60.9965V60.9965V60.9965V60.9966V60.9966V60.9966V60.9967V60.9967V60.9967V60.9968V60.9968V60.9968V60.9969V60.9969V60.997V60.997V60.997V60.9971V60.9971V60.9971V60.9972V60.9972V60.9972V60.9973V60.9973V60.9973V60.9974V60.9974V60.9974V60.9975V60.9975V60.9975V60.9976V60.9976V60.9976V60.9977V60.9977V60.9977V60.9978V60.9978V60.9978V60.9979V60.9979V60.9979V60.998V60.998V60.998V60.9981V60.9981V60.9981V60.9982V60.9982V60.9982V60.9983V60.9983V60.9983V60.9984V60.9984V60.9984V60.9985V60.9985V60.9985V60.9985V60.9986V60.9986V60.9986V60.9987V60.9987V60.9987V60.9988V60.9988V60.9988V60.9988V60.9989V60.9989V60.9989V60.999V60.999V60.999V60.9991V60.9991V60.9991V60.9992V60.9992V60.9992V60.9993V60.9993V60.9993V60.9994V60.9994V60.9994V60.9995V60.9995V60.9995V60.9996V60.9996V60.9996V60.9997V60.9997V60.9997V60.9998V60.9998V60.9998V60.9998V60.9999V60.9999V60.9999V61V61V61V61.0001V61.0001V61.0001V61.0002V61.0002V61.0002V61.0002C59.0498 61.4325 58.6987 61.7835 58.2665 61.7835H41.2041C40.8554 61.7835 40.547 61.5533 40.4505 61.2139L40.4505 61.2138C40.1361 60.1105 39.7125 58.9597 38.7977 58.152C33.3704 53.3572 26.4624 55.8138 24.4667 61.082C24.2456 61.4225 23.922 61.5991 23.6385 61.6908C23.4947 61.7374 23.365 61.7607 23.272 61.7724C23.2257 61.7781 23.1889 61.7809 23.1647 61.7823C23.1612 61.7825 23.158 61.7827 23.155 61.7828C23.1478 61.7831 23.1422 61.7833 23.1384 61.7834L23.133 61.7835L23.1329 61.7835H23.1327L23.1326 61.7835L23.1324 61.7835L20.0344 61.7845H20.0343H20.0333C19.8257 61.7845 19.6266 61.7023 19.4791 61.5556C19.3321 61.4082 19.25 61.2096 19.25 61.0011V55.8334C19.25 55.4011 19.601 55.0501 20.0333 55.0501H20.2833V54.8001V53.2501C20.2833 53.1029 20.4029 52.9834 20.55 52.9834H22.1C22.8084 52.9834 23.3833 52.4085 23.3833 51.7001C23.3833 50.9917 22.8084 50.4168 22.1 50.4168H20.55C20.4028 50.4168 20.2833 50.2973 20.2833 50.1501V42.9168C20.2833 42.7696 20.4029 42.6501 20.55 42.6501H48.325C48.5616 42.6501 48.6814 42.9374 48.513 43.1058L47.0261 44.5926C47.0261 44.5926 47.0261 44.5927 47.0261 44.5927C46.5243 45.0943 46.5244 45.9056 47.0261 46.4073C47.2762 46.6575 47.6051 46.7833 47.9334 46.7833C48.2619 46.7833 48.5904 46.6574 48.8414 46.4078L48.8418 46.4073L52.9751 42.274C53.4758 41.7734 53.4758 40.96 52.9751 40.4594L48.8418 36.3261C48.3402 35.8245 47.5289 35.8245 47.0272 36.3261C46.5254 36.8277 46.5255 37.639 47.0272 38.1407L48.5141 39.6277C48.6817 39.7952 48.5627 40.0833 48.325 40.0833H20.5501C20.4029 40.0833 20.2834 39.9637 20.2834 39.8166V31.0333C20.2834 30.601 20.6344 30.25 21.0667 30.25H55.1667C57.3081 30.25 59.05 31.9918 59.05 34.1333H59.3C59.05 34.1333 59.05 34.1333 59.05 34.1335V34.1339V34.1347V34.1358V34.1373V34.139V34.141V34.1434V34.1461V34.149V34.1523V34.1559V34.1598V34.1641V34.1686V34.1734V34.1785V34.184V34.1897V34.1957V34.2021V34.2087V34.2156V34.2228V34.2304V34.2382V34.2463V34.2547V34.2634V34.2724V34.2817V34.2913V34.3011V34.3113V34.3217V34.3325V34.3435V34.3548V34.3664V34.3782V34.3904V34.4028V34.4155V34.4285V34.4418V34.4553V34.4692V34.4833V34.4976V34.5123V34.5272V34.5424V34.5579V34.5736V34.5896V34.6059V34.6224V34.6392V34.6563V34.6737V34.6913V34.7092V34.7273V34.7457V34.7643V34.7833V34.8024V34.8219V34.8416V34.8615V34.8817V34.9022V34.9229V34.9439V34.9651V34.9865V35.0083V35.0302V35.0524V35.0749V35.0976V35.1206V35.1438V35.1672V35.1909V35.2148V35.239V35.2634V35.2881V35.313V35.3381V35.3634V35.389V35.4149V35.4409V35.4672V35.4938V35.5205V35.5475V35.5748V35.6022V35.6299V35.6578V35.6859V35.7143V35.7429V35.7717V35.8007V35.83V35.8595V35.8891V35.9191V35.9492V35.9795V36.0101V36.0409V36.0719V36.1031V36.1345V36.1661V36.198V36.23V36.2623V36.2947V36.3274V36.3603V36.3934V36.4267V36.4602V36.4939V36.5278V36.5619V36.5962V36.6307V36.6654V36.7003V36.7354V36.7706V36.8061V36.8418V36.8777V36.9137V36.95V36.9864V37.0231V37.0599V37.0969V37.1341V37.1715V37.209V37.2468V37.2847V37.3228V37.3611V37.3996V37.4383V37.4771V37.5161V37.5553V37.5947V37.6342V37.6739V37.7138V37.7539V37.7941V37.8345V37.8751V37.9158V37.9567V37.9978V38.0391V38.0805V38.122V38.1638V38.2057V38.2477V38.29V38.3323V38.3749V38.4176V38.4604V38.5034V38.5466V38.5899V38.6334V38.677V38.7208V38.7647V38.8088V38.8531V38.8974V38.942V38.9866V39.0315V39.0764V39.1215V39.1668V39.2122V39.2577V39.3034V39.3492V39.3951V39.4412V39.4874V39.5338V39.5803V39.6269V39.6737V39.7206V39.7676V39.8148V39.8621V39.9095V39.957V40.0047V40.0525V40.1004V40.1484V40.1966V40.2449V40.2933V40.3418V40.3905V40.4393V40.4882V40.5372V40.5863V40.6355V40.6849V40.7343V40.7839V40.8336V40.8834V40.9333V40.9833V41.0335V41.0837V41.134V41.1845V41.235V41.2857V41.3364V41.3873V41.4382V41.4893V41.5405V41.5917V41.6431V41.6945V41.7461V41.7977V41.8494V41.9013V41.9532V42.0052V42.0573V42.1095V42.1618V42.2141V42.2666V42.3191V42.3717V42.4244V42.4772V42.5301V42.5831V42.6361V42.6892V42.7424V42.7957V42.849V42.9024V42.9559V43.0095V43.0631V43.1168V43.1706V43.2245V43.2784V43.3324V43.3865V43.4406V43.4948V43.5491V43.6034V43.6578V43.7122V43.7668V43.8213V43.876V43.9307V43.9854V44.0402V44.0951V44.15V44.205V44.26V44.3151V44.3702V44.4254V44.4806V44.5359V44.5912V44.6466V44.702V44.7575V44.813V44.8686V44.9242V44.9798V45.0355V45.0912V45.147V45.2028V45.2586V45.3145V45.3704V45.4264V45.4824V45.5384V45.5944V45.6505V45.7066V45.7627V45.8189V45.8751V45.9313V45.9876V46.0438V46.1001V46.1564V46.2128V46.2691V46.3255V46.3819V46.4383V46.4948V46.5512V46.6077V46.6642V46.7207V46.7772V46.8337V46.8903V46.9468V47.0034V47.0599V47.1165V47.1731V47.2297V47.2863V47.3429V47.3995V47.4561V47.5127V47.5693V47.6259V47.6825V47.7391V47.7957V47.8523V47.9089V47.9655V48.022V48.0786V48.1352V48.1917V48.2483V48.3048V48.3613V48.4178V48.4743V48.5308V48.5873V48.6437V48.7002V48.7566V48.813V48.8694V48.9257V48.982V49.0384V49.0947V49.1509V49.2072V49.2634V49.3196V49.3757V49.4319V49.488V49.544V49.6001V49.6561V49.712V49.768V49.8239V49.8798V49.9356V49.9914V50.0471V50.1029V50.1585V50.2142V50.2698V50.3253V50.3808V50.4363V50.4917V50.5471V50.6024V50.6577V50.7129V50.7681V50.8232V50.8783V50.9333V50.9882V51.0432V51.098V51.1528V51.2076V51.2622V51.3169V51.3714V51.4259V51.4804V51.5347V51.5891V51.6433V51.6975V51.7516V51.8057V51.8597V51.9136V51.9674V52.0212V52.0749V52.1285V52.1821V52.2356V52.289V52.3423V52.3956V52.4487V52.5018V52.5549V52.6078V52.6607V52.7134V52.7661V52.8187V52.8713V52.9237V52.976V53.0283V53.0805V53.1326V53.1846V53.2365V53.2883V53.34V53.3916V53.4431V53.4946V53.5459V53.5971V53.6483V53.6993V53.7503V53.8011V53.8518V53.9025V53.953V54.0034V54.0538V54.104V54.1541V54.2041V54.254V54.3038V54.3534V54.403V54.4524V54.5018V54.551V54.6001V54.6491V54.6979V54.7467V54.7953V54.8438V54.8922V54.9405V54.9886V55.0367V55.0846V55.1323V55.18V55.2275V55.2749V55.3221V55.3693V55.4163V55.4632V55.5099V55.5565V55.603V55.6493V55.6955V55.7416V55.7875V55.8333V56.0833H59.3H61.3667H61.6167V55.8333V40.3333C61.6167 39.901 61.9677 39.55 62.4 39.55H64.9833C65.1305 39.55 65.25 39.6696 65.25 39.8167V49.6334C65.25 50.3418 65.8249 50.9167 66.5333 50.9167H80.4833C80.6305 50.9167 80.75 51.0363 80.75 51.1834V52.2167C80.75 52.3639 80.6304 52.4834 80.4833 52.4834H78.9333C78.2248 52.4834 77.65 53.0583 77.6499 53.767C77.6499 54.4755 78.2248 55.0504 78.9332 55.0504H80.4832C80.6304 55.0504 80.7499 55.1699 80.7499 55.3171V61.0004C80.7499 61.4326 80.3989 61.7837 79.9666 61.7837H76.3375C76.0062 61.7837 75.7109 61.5753 75.5997 61.2646ZM75.5997 61.2646L75.3642 61.3485M75.5997 61.2646C75.5996 61.2645 75.5996 61.2644 75.5996 61.2643L75.3642 61.3485M75.3642 61.3485C74.68 59.4295 73.5651 57.6677 71.7206 56.8039C68.3478 55.2249 64.9171 55.6207 62.3885 57.6564C62.1983 57.8093 61.9648 57.9002 61.7209 57.9002H59.5498M75.3642 61.3485C75.5109 61.7588 75.9005 62.0337 76.3375 62.0337H79.9666C80.5369 62.0337 80.9999 61.5707 80.9999 61.0004V55.3171C80.9999 55.0319 80.7685 54.8004 80.4832 54.8004H78.9332C78.3628 54.8004 77.8999 54.3374 77.8999 53.7671C77.9 53.1964 78.3629 52.7334 78.9333 52.7334H80.4833C80.7685 52.7334 81 52.502 81 52.2167V51.1834C81 50.8982 80.7686 50.6667 80.4833 50.6667H66.5333C65.9629 50.6667 65.5 50.2038 65.5 49.6334V39.8167C65.5 39.5315 65.2686 39.3 64.9833 39.3H62.4C61.8296 39.3 61.3667 39.7629 61.3667 40.3333L59.5498 57.9002M59.5498 57.9002H59.2998V58.1502V60.995V61.0002C59.2998 61.5706 58.8368 62.0335 58.2665 62.0335H41.2041C40.7443 62.0335 40.3372 61.7297 40.2101 61.2823C39.897 60.1838 39.4888 59.0957 38.6322 58.3393C33.3302 53.6553 26.6146 56.0702 24.6915 61.1945L59.5498 57.9002ZM48.6651 46.2306C48.4625 46.4321 48.198 46.5333 47.9334 46.5333C47.6688 46.5333 47.4044 46.4321 47.2029 46.2306C46.7988 45.8265 46.7988 45.1734 47.2029 44.7694L48.6898 43.2825C49.0153 42.957 48.7848 42.4001 48.325 42.4001H20.55C20.2648 42.4001 20.0333 42.6315 20.0333 42.9168V50.1501C20.0333 50.4353 20.2647 50.6668 20.55 50.6668H22.1C22.6704 50.6668 23.1333 51.1298 23.1333 51.7001C23.1333 52.2705 22.6704 52.7334 22.1 52.7334H20.55C20.2648 52.7334 20.0333 52.9648 20.0333 53.2501V54.5501V54.8001C19.4629 54.8001 19 55.2631 19 55.8334V61.0011C19 61.276 19.1085 61.5384 19.3027 61.7327C19.497 61.926 19.7595 62.0345 20.0333 62.0345H20.0344L48.6651 46.2306Z" fill="black" stroke="black" stroke-width="0.5"/>
<path d="M80.7144 47.9581L80.7146 47.9584C80.8059 48.1128 80.7023 48.3488 80.4502 48.349C80.4502 48.349 80.4501 48.349 80.4501 48.349H68.1153C67.9363 48.349 67.8167 48.2154 67.8167 48.0822V39.8155C67.8167 39.6823 67.9362 39.5488 68.1153 39.5488H75.2494C75.5648 39.5488 75.8472 39.7098 75.9931 39.957L75.9931 39.957L80.7144 47.9581Z" fill="black" stroke="black" stroke-width="0.5"/>
</svg>
