<?xml version="1.0" encoding="utf-8"?>
<!-- Generator: Adobe Illustrator 25.0.1, SVG Export Plug-In . SVG Version: 6.00 Build 0)  -->
<svg version="1.1" id="Layer_1" xmlns="http://www.w3.org/2000/svg" xmlns:xlink="http://www.w3.org/1999/xlink" x="0px" y="0px"
	 viewBox="0 0 95 95" style="enable-background:new 0 0 95 95;" xml:space="preserve">
<style type="text/css">
	.st0{filter:url(#Adobe_OpacityMaskFilter);}
	.st1{fill-rule:evenodd;clip-rule:evenodd;fill:#FFFFFF;}
	.st2{mask:url(#mask-2_1_);fill-rule:evenodd;clip-rule:evenodd;fill:#E82529;}
	.st3{fill-rule:evenodd;clip-rule:evenodd;fill:#FEFEFE;}
</style>
<desc>Created with Sketch.</desc>
<g id="Coming-Soon">
	<g id="Coming-Soon-LinkAja" transform="translate(-150.000000, -80.000000)">
		<g id="Group-26" transform="translate(150.000000, 80.000000)">
			<g id="Group-30">
				<g id="Group-3" transform="translate(0.000000, 0.001586)">
					<g id="Clip-2">
					</g>
					<defs>
						<filter id="Adobe_OpacityMaskFilter" filterUnits="userSpaceOnUse" x="1.5" y="1.82" width="91.68" height="91.37">
							<feColorMatrix  type="matrix" values="1 0 0 0 0  0 1 0 0 0  0 0 1 0 0  0 0 0 1 0"/>
						</filter>
					</defs>
					<mask maskUnits="userSpaceOnUse" x="1.5" y="1.82" width="91.68" height="91.37" id="mask-2_1_">
						<g class="st0">
							<polygon id="path-1_1_" class="st1" points="1.5,1.82 93.18,1.82 93.18,93.18 1.5,93.18 							"/>
						</g>
					</mask>
					<path id="Fill-1" class="st2" d="M84.58,93.18H10.11c-4.73,0-8.61-3.86-8.61-8.58V10.39c0-4.72,3.87-8.58,8.61-8.58h74.47
						c4.73,0,8.61,3.86,8.61,8.58V84.6C93.18,89.32,89.31,93.18,84.58,93.18"/>
				</g>
				<path id="Fill-4" class="st3" d="M21.28,19.02h4.34c0.33,0,0.58,0.29,0.54,0.62l-2.02,13.95c-0.08,0.54,0.34,1.02,0.88,1.02
					h7.62c0.22,0,0.38,0.19,0.35,0.4l-0.59,4.01c-0.03,0.21-0.21,0.36-0.42,0.36h-8.62c-2.56,0-5.02-2.09-4.66-4.62l2.03-15.26
					C20.78,19.22,21.01,19.02,21.28,19.02"/>
				<path id="Fill-6" class="st3" d="M35.77,24.59l-1.99,14.22c-0.03,0.23,0.14,0.43,0.37,0.43h4.2c0.3,0,0.55-0.22,0.59-0.51
					l1.97-13.99c0.04-0.32-0.21-0.61-0.54-0.61H36.3C36.03,24.12,35.8,24.32,35.77,24.59"/>
				<path id="Fill-8" class="st3" d="M44.44,38.15c-1.3-0.05-1.9,0.36-2.67,0.81c0.18-1.28,1.63-11.28,1.76-11.89
					c0.14-0.65,0.27-1.75,0.84-2.3c0.68-0.65,1.72-1.02,6.94-1.03c5.32-0.02,6.35,3.8,6.07,6.28c-0.24,2.12-1.03,7.37-1.26,8.83
					c-0.03,0.22-0.23,0.39-0.45,0.39h-4.11c-0.3,0-0.53-0.26-0.49-0.56c0.21-1.47,0.77-5.37,0.95-6.5c0.23-1.4,0.42-2.95,0.05-3.56
					c-0.38-0.61-1.5-1.08-3.66-0.7l-1.6,11.25C46.82,39.17,45.79,38.19,44.44,38.15"/>
				<path id="Fill-10" class="st3" d="M61.84,18.21h4.56c0.17,0,0.3,0.15,0.28,0.32l-2.84,20.48c-0.02,0.15-0.15,0.27-0.31,0.27
					h-4.5c-0.19,0-0.33-0.16-0.31-0.35l2.84-20.47C61.58,18.32,61.7,18.21,61.84,18.21"/>
				<path id="Fill-12" class="st3" d="M65.37,30.55l5.15-6.01c0.16-0.19,0.4-0.3,0.65-0.3h4.52c0.33,0,0.5,0.39,0.28,0.63L70.7,30.7
					l4.82,10.32c0.18,0.38-0.1,0.81-0.52,0.81h-4.09c-0.21,0-0.41-0.12-0.5-0.32L65.37,30.55z"/>
				<path id="Fill-14" class="st3" d="M41.8,20.27c-0.37,1.55-1.77,2.7-3.24,2.7c-1.47,0-2.59-1.26-2.22-2.81
					c0.37-1.55,1.58-2.81,3.32-2.81C41.13,17.36,42.17,18.72,41.8,20.27"/>
				<path id="Fill-16" class="st3" d="M46.43,42.86c-0.37,1.55-1.77,2.7-3.24,2.7c-1.47,0-2.59-1.26-2.22-2.81
					c0.37-1.55,1.58-2.81,3.32-2.81C45.76,39.95,46.8,41.31,46.43,42.86"/>
				<path id="Fill-18" class="st3" d="M68.48,61.38c-0.31,1.53-1.73,2.67-3.27,2.67c-1.54,0-2.79-1.24-2.48-2.77
					c0.31-1.53,1.52-2.77,3.35-2.77C67.64,58.51,68.8,59.85,68.48,61.38"/>
				<path id="Fill-20" class="st3" d="M29.68,53.75h-2.76c-0.1,0-0.17-0.1-0.14-0.2l2.4-6.08c0.05-0.12,0.22-0.09,0.23,0.03
					l0.54,5.94C29.97,53.61,29.84,53.75,29.68,53.75 M36.36,61.38l-3.08-18.37c-0.13-0.8-0.83-1.39-1.65-1.39h-3.09
					c-0.94,0-1.8,0.55-2.19,1.4l-8.3,18.38c-0.12,0.27,0.08,0.57,0.37,0.57l4.31-0.03c0.3,0,0.56-0.18,0.68-0.45l1.43-3.36
					c0.04-0.09,0.13-0.15,0.23-0.15h5.22c0.13,0,0.24,0.1,0.25,0.22l0.31,3.18c0.04,0.37,0.35,0.65,0.72,0.65h4.23
					C36.15,62.04,36.42,61.73,36.36,61.38"/>
				<path id="Fill-22" class="st3" d="M34.31,64.71l1,3.07c0.18,0.5,0.31,0.62,0.66,0.54c1.26-0.26,4.3-1.16,5.78-3.16
					c1.94-2.61,2.2-7.23,2.55-9.58c0.28-1.93,0.9-6.7,1.11-8.31c0.04-0.29-0.19-0.55-0.48-0.55h-3.86c-0.34,0-0.63,0.25-0.68,0.59
					c-0.31,2.29-1.43,10.51-1.63,11.64c-0.23,1.33-0.27,3.24-2.24,4.38c-0.98,0.57-1.49,0.68-1.87,0.86
					C34.43,64.27,34.21,64.37,34.31,64.71"/>
				<path id="Fill-24" class="st3" d="M55.58,57.63c0,0-2.02,0.68-2.98-0.04c-0.97-0.72-1.05-2.21-0.48-4.34
					c0.56-2.13,1.98-2.49,2.58-2.53c0.6-0.04,1.74,0.24,1.74,0.24L55.58,57.63z M61.16,47.26c-1.3-0.32-3.49-1.04-7.02-0.78
					c-3.25,0.24-6.92,1.74-7.61,8.13s2.25,7.63,6.46,7.81c3.09,0.13,5.51-0.71,6.59-1.18c0.37-0.16,0.64-0.51,0.69-0.91l1.56-12.31
					C61.89,47.54,61.65,47.38,61.16,47.26z"/>
				<path id="Fill-26" class="st3" d="M64.16,56.47l1.13-11.79c0.04-0.42,0.4-0.59,0.82-0.59h3.91c0.36,0,0.52,0.28,0.42,0.73
					l-2.39,11.8c-0.05,0.23-0.25,0.39-0.48,0.39h-2.92C64.36,57.01,64.14,56.76,64.16,56.47"/>
				<path id="Fill-28" class="st3" d="M18.38,78.2c0.77,0.43,1.68,0.55,2.54,0.35c3.43-0.81,11.03-2.99,27.09-5.31
					c20.18-2.91,35.08-2.9,35.08-2.9l0.04-0.02c0,0-13.21-1.81-34.88,0.3c-21.68,2.11-33.77,5.43-33.77,5.43L18.38,78.2z"/>
			</g>
		</g>
	</g>
</g>
</svg>
