<?xml version="1.0" encoding="iso-8859-1"?>
<!-- Generator: Adobe Illustrator 24.0.2, SVG Export Plug-In . SVG Version: 6.00 Build 0)  -->
<svg version="1.1" id="Layer_1" xmlns="http://www.w3.org/2000/svg" xmlns:xlink="http://www.w3.org/1999/xlink" x="0px" y="0px"
	 viewBox="0 0 202.69 50" style="enable-background:new 0 0 202.69 50;" xml:space="preserve">
<g>
	<g>
		<g>
			<path style="fill:#FFFFFF;" d="M68.391,41.839c0,1.826-1.279,3.092-3.392,3.092h-1.996v2.948h-1.631v-9.133h3.627
				C67.112,38.746,68.391,40.012,68.391,41.839z M66.708,41.839c0-1.005-0.613-1.566-1.722-1.566h-1.983v3.131h1.983
				C66.095,43.404,66.708,42.843,66.708,41.839z"/>
			<path style="fill:#FFFFFF;" d="M76.494,41.316v6.562h-1.356l-0.078-0.874c-0.417,0.652-1.136,1.044-1.996,1.044
				c-1.435,0-2.545-1.03-2.545-2.583v-4.149h1.527v3.954c0,0.887,0.666,1.356,1.409,1.356c0.757,0,1.527-0.535,1.527-1.5v-3.81
				C74.981,41.316,76.494,41.316,76.494,41.316z"/>
			<path style="fill:#FFFFFF;" d="M78.463,47.174l0.548-1.148c0.522,0.43,1.578,0.704,2.453,0.704c0.639,0,1.344-0.157,1.344-0.757
				c0-0.483-0.6-0.6-1.462-0.757c-1.618-0.287-2.596-0.627-2.596-1.931c0-1.657,1.527-2.14,2.844-2.14
				c0.992,0,1.918,0.287,2.57,0.731l-0.561,1.161c-0.496-0.352-1.226-0.574-2.022-0.574c-0.848,0-1.265,0.261-1.265,0.743
				c0,0.365,0.248,0.483,1.2,0.652c1.566,0.3,2.832,0.574,2.832,2.009c0,1.409-1.226,2.191-2.948,2.191
				C80.42,48.061,79.155,47.723,78.463,47.174z"/>
			<path style="fill:#FFFFFF;" d="M92.228,43.9v3.979h-1.344l-0.091-0.939c-0.522,0.731-1.448,1.109-2.309,1.109
				c-1.174,0-2.296-0.718-2.296-2.075c0-1.5,1.37-2.087,2.649-2.087c0.56,0,1.252,0.078,1.879,0.261v-0.209
				c0-0.953-0.522-1.423-1.539-1.423c-0.666,0-1.396,0.209-1.983,0.652l-0.6-1.109c0.678-0.522,1.683-0.914,2.857-0.914
				C91.249,41.147,92.228,42.061,92.228,43.9z M90.714,45.205c-0.535-0.157-1.109-0.235-1.605-0.235c-0.77,0-1.37,0.261-1.37,0.926
				c0,0.561,0.444,0.861,1.109,0.861C89.762,46.757,90.714,46.157,90.714,45.205z"/>
			<path style="fill:#FFFFFF;" d="M99.651,47.41c-0.391,0.352-1.004,0.639-1.931,0.639c-1.605,0-2.492-0.849-2.492-2.479v-2.883
				H93.95v-1.37h1.279v-1.969h1.527v1.969h2.492v1.37h-2.492v2.779c0,0.782,0.365,1.148,1.083,1.148c0.365,0,0.77-0.104,1.161-0.444
				L99.651,47.41z"/>
			<path style="fill:#FFFFFF;" d="M110.467,48.049c-2.727,0-4.749-1.944-4.749-4.749c0-2.832,2.075-4.723,4.762-4.723
				c1.435,0,2.753,0.535,3.627,1.552l-1.226,1.083c-0.6-0.718-1.435-1.07-2.401-1.07c-1.853,0-3.079,1.292-3.079,3.158
				c0,1.879,1.24,3.183,3.079,3.183c1.396,0,2.453-0.743,2.727-2.218h-2.727v-1.408h4.475c0.026,0.143,0.039,0.287,0.039,0.613
				C115.02,46.209,113.102,48.049,110.467,48.049z"/>
			<path style="fill:#FFFFFF;" d="M121.647,41.291l-0.43,1.448c-0.248-0.091-0.509-0.157-0.77-0.157c-0.874,0-1.71,0.587-1.71,1.67
				v3.627h-1.527v-6.562h1.357l0.091,0.965c0.444-0.704,1.201-1.135,2.087-1.135C121.061,41.147,121.374,41.199,121.647,41.291z"/>
			<path style="fill:#FFFFFF;" d="M122.744,44.592c0-2.022,1.487-3.445,3.496-3.445s3.496,1.409,3.496,3.445
				c0,2.048-1.488,3.457-3.496,3.457S122.744,46.626,122.744,44.592z M128.172,44.592c0-1.201-0.783-2.022-1.932-2.022
				s-1.918,0.822-1.918,2.022c0,1.213,0.77,2.022,1.918,2.022S128.172,45.805,128.172,44.592z"/>
			<path style="fill:#FFFFFF;" d="M131.459,47.174l0.548-1.148c0.522,0.43,1.578,0.704,2.453,0.704c0.639,0,1.344-0.157,1.344-0.757
				c0-0.483-0.6-0.6-1.462-0.757c-1.618-0.287-2.596-0.627-2.596-1.931c0-1.657,1.527-2.14,2.844-2.14
				c0.992,0,1.918,0.287,2.57,0.731l-0.56,1.161c-0.496-0.352-1.226-0.574-2.022-0.574c-0.849,0-1.266,0.261-1.266,0.743
				c0,0.365,0.248,0.483,1.201,0.652c1.566,0.3,2.831,0.574,2.831,2.009c0,1.409-1.226,2.191-2.948,2.191
				C133.416,48.061,132.151,47.723,131.459,47.174z"/>
			<path style="fill:#FFFFFF;" d="M139.378,39.451c0-0.522,0.431-0.953,0.965-0.953c0.522,0,0.953,0.431,0.953,0.953
				c0,0.535-0.43,0.965-0.953,0.965C139.809,40.416,139.378,39.986,139.378,39.451z M141.101,47.879h-1.513v-6.562h1.513V47.879z"/>
			<path style="fill:#FFFFFF;" d="M148.224,41.291l-0.431,1.448c-0.248-0.091-0.509-0.157-0.77-0.157c-0.874,0-1.71,0.587-1.71,1.67
				v3.627h-1.527v-6.562h1.357l0.091,0.965c0.444-0.704,1.201-1.135,2.087-1.135C147.638,41.147,147.95,41.199,148.224,41.291z"/>
			<path style="fill:#FFFFFF;" d="M153.939,43.313c0-2.792,2.022-4.736,4.762-4.736s4.762,1.944,4.762,4.736
				s-2.022,4.736-4.762,4.736S153.939,46.105,153.939,43.313z M161.78,43.313c0-1.879-1.252-3.17-3.079-3.17
				s-3.079,1.292-3.079,3.17s1.252,3.17,3.079,3.17C160.527,46.483,161.78,45.192,161.78,43.313z"/>
			<path style="fill:#FFFFFF;" d="M171.865,43.73v4.149h-1.513v-3.862c0-0.849-0.574-1.448-1.435-1.448
				c-0.822,0-1.71,0.509-1.71,1.5v3.81h-1.527v-6.562h1.344l0.091,0.887c0.456-0.666,1.226-1.057,2.14-1.057
				C170.743,41.147,171.865,42.177,171.865,43.73z"/>
			<path style="fill:#FFFFFF;" d="M174.279,38.094h1.527v9.785h-1.527V38.094z"/>
			<path style="fill:#FFFFFF;" d="M178.284,39.451c0-0.522,0.431-0.953,0.965-0.953c0.522,0,0.953,0.431,0.953,0.953
				c0,0.535-0.431,0.965-0.953,0.965C178.714,40.416,178.284,39.986,178.284,39.451z M180.006,47.879h-1.513v-6.562h1.513V47.879z"
				/>
			<path style="fill:#FFFFFF;" d="M188.878,43.73v4.149h-1.513v-3.862c0-0.849-0.574-1.448-1.435-1.448
				c-0.822,0-1.71,0.509-1.71,1.5v3.81h-1.527v-6.562h1.344l0.091,0.887c0.456-0.666,1.226-1.057,2.14-1.057
				C187.756,41.147,188.878,42.177,188.878,43.73z"/>
			<path style="fill:#FFFFFF;" d="M194.462,46.705c0.666,0,1.279-0.248,1.722-0.692l0.979,1.004c-0.666,0.652-1.605,1.03-2.661,1.03
				c-2.022,0-3.522-1.396-3.522-3.484c0-1.997,1.383-3.418,3.418-3.418c2.127,0,3.158,1.513,3.158,3.066
				c0,0.209-0.039,0.666-0.091,0.939h-4.905C192.754,46.131,193.444,46.705,194.462,46.705z M192.557,43.991h3.484
				c-0.039-0.849-0.613-1.488-1.67-1.488C193.405,42.503,192.754,43.077,192.557,43.991z"/>
		</g>
		<g>
			<path style="fill:#FFFFFF;" d="M80.792,28.829c-0.699,0.555-1.463,1.029-2.294,1.427s-1.741,0.7-2.728,0.904
				c-0.989,0.204-2.096,0.307-3.325,0.307c-1.856,0-3.578-0.338-5.168-1.012s-2.963-1.596-4.12-2.764
				c-1.156-1.169-2.06-2.547-2.711-4.138c-0.65-1.59-0.976-3.289-0.976-5.096v-0.072c0-1.807,0.325-3.499,0.976-5.077
				c0.651-1.577,1.554-2.963,2.711-4.156c1.157-1.193,2.542-2.132,4.156-2.819c1.613-0.687,3.397-1.029,5.349-1.029
				c1.18,0,2.258,0.096,3.234,0.289s1.861,0.458,2.656,0.795c0.795,0.338,1.53,0.747,2.205,1.229
				c0.674,0.483,1.301,1.012,1.879,1.59l-3.542,4.084c-0.989-0.891-1.994-1.59-3.017-2.096c-1.025-0.506-2.175-0.759-3.451-0.759
				c-1.061,0-2.041,0.205-2.945,0.614c-0.904,0.41-1.68,0.976-2.331,1.698c-0.65,0.723-1.156,1.56-1.518,2.511
				c-0.361,0.952-0.542,1.969-0.542,3.053v0.072c0,1.084,0.181,2.109,0.542,3.072c0.361,0.964,0.861,1.807,1.499,2.53
				c0.638,0.723,1.409,1.295,2.313,1.716c0.903,0.421,1.897,0.632,2.981,0.632c1.445,0,2.668-0.265,3.668-0.795
				c0.999-0.529,1.993-1.252,2.981-2.168l3.542,3.578C82.165,27.649,81.489,28.275,80.792,28.829z"/>
			<path style="fill:#FFFFFF;" d="M87.513,31.033V5.736h5.565v25.297H87.513z"/>
			<path style="fill:#FFFFFF;" d="M102.438,13.66c0.193,0.483,0.542,0.923,1.048,1.321s1.205,0.76,2.096,1.086
				c0.891,0.326,2.036,0.633,3.433,0.922c2.819,0.628,4.896,1.496,6.234,2.606c1.337,1.11,2.005,2.642,2.005,4.597
				c0,1.087-0.214,2.076-0.642,2.969c-0.428,0.892-1.019,1.652-1.771,2.28c-0.752,0.628-1.658,1.11-2.719,1.448
				c-1.061,0.337-2.217,0.506-3.469,0.506c-2.024,0-3.873-0.327-5.547-0.98c-1.675-0.653-3.27-1.664-4.788-3.032l1.771-2.096
				c1.324,1.205,2.662,2.102,4.011,2.692c1.35,0.591,2.904,0.885,4.662,0.885c1.711,0,3.077-0.398,4.101-1.194
				c1.024-0.796,1.535-1.846,1.535-3.149c0-0.603-0.096-1.139-0.29-1.61c-0.194-0.47-0.531-0.898-1.015-1.284
				s-1.153-0.736-2.01-1.05s-1.95-0.616-3.278-0.905c-1.449-0.313-2.711-0.675-3.785-1.086c-1.075-0.41-1.963-0.905-2.663-1.484
				c-0.701-0.579-1.22-1.254-1.558-2.027c-0.339-0.773-0.507-1.689-0.507-2.751c0-1.013,0.204-1.942,0.614-2.787
				c0.41-0.845,0.988-1.574,1.735-2.189c0.746-0.616,1.626-1.098,2.638-1.448s2.12-0.525,3.325-0.525
				c1.855,0,3.475,0.256,4.86,0.766c1.385,0.511,2.728,1.279,4.029,2.305l-1.662,2.205c-1.18-0.963-2.367-1.662-3.559-2.096
				c-1.193-0.434-2.439-0.651-3.74-0.651c-0.819,0-1.56,0.109-2.222,0.326c-0.663,0.217-1.229,0.507-1.699,0.869
				s-0.831,0.796-1.084,1.303s-0.379,1.05-0.379,1.629C102.148,12.634,102.245,13.177,102.438,13.66z"/>
			<path style="fill:#FFFFFF;" d="M132.072,31.033h-2.855V8.374h-8.493V5.736h19.84v2.638h-8.493L132.072,31.033L132.072,31.033z"/>
			<path style="fill:#FFFFFF;" d="M167.957,23.354c-0.627,1.578-1.506,2.97-2.638,4.174c-1.133,1.205-2.494,2.163-4.084,2.873
				s-3.349,1.066-5.276,1.066c-1.928,0-3.68-0.349-5.258-1.048s-2.934-1.644-4.065-2.837c-1.133-1.193-2.005-2.578-2.62-4.156
				c-0.614-1.577-0.921-3.246-0.921-5.005c0-1.758,0.312-3.427,0.939-5.005c0.627-1.577,1.505-2.969,2.638-4.174
				c1.132-1.205,2.493-2.162,4.084-2.873c1.59-0.71,3.348-1.066,5.276-1.066s3.68,0.349,5.258,1.048
				c1.577,0.699,2.933,1.644,4.065,2.836c1.132,1.193,2.005,2.579,2.619,4.156c0.614,1.578,0.921,3.247,0.921,5.005
				C168.897,20.107,168.584,21.776,167.957,23.354z M165.193,14.337c-0.494-1.277-1.187-2.385-2.077-3.325
				c-0.891-0.94-1.946-1.686-3.162-2.241c-1.217-0.554-2.547-0.831-3.993-0.831c-1.445,0-2.777,0.271-3.993,0.813
				c-1.217,0.542-2.258,1.282-3.126,2.222c-0.867,0.94-1.548,2.041-2.041,3.306c-0.494,1.265-0.74,2.62-0.74,4.065
				c0,1.446,0.247,2.807,0.74,4.084c0.493,1.278,1.186,2.385,2.077,3.325c0.891,0.94,1.945,1.687,3.162,2.241
				c1.216,0.555,2.547,0.831,3.993,0.831s2.776-0.271,3.993-0.813c1.216-0.542,2.258-1.282,3.126-2.222
				c0.868-0.94,1.548-2.041,2.041-3.306s0.74-2.62,0.74-4.065C165.933,16.975,165.686,15.615,165.193,14.337z"/>
			<path style="fill:#FFFFFF;" d="M196.471,31.033h-3.578l-9.722-12.251l-5.385,5.457v6.794h-2.855V5.736h2.855v15.106
				l14.528-15.106H196l-10.842,11.059L196.471,31.033z"/>
		</g>
		<g>
			<g>
				<g>
					<path style="fill:#FFFFFF;" d="M5.134,24.267l5.984-3.434c0.881-0.505,1.965-0.498,2.838,0.018l15.909,9.408l-5.855,3.327
						c-0.871,0.495-1.939,0.49-2.806-0.012L5.134,24.267z"/>
				</g>
				<g>
					<path style="fill:#FFFFFF;" d="M31.333,30.854v18.662l-15.996-8.814c-0.9-0.496-1.459-1.442-1.459-2.47v-7.457l7.28,4.399
						c0.891,0.538,2.006,0.542,2.901,0.01L31.333,30.854z"/>
				</g>
				<g>
					<path style="fill:#FFFFFF;" d="M58.979,24.267l-5.984-3.434c-0.881-0.505-1.965-0.498-2.838,0.018L34.246,30.26l5.855,3.327
						c0.871,0.495,1.939,0.49,2.806-0.012L58.979,24.267z"/>
				</g>
				<g>
					<path style="fill:#FFFFFF;" d="M32.78,30.854v18.662l15.996-8.814c0.9-0.496,1.459-1.442,1.459-2.47v-7.457l-7.28,4.399
						c-0.891,0.538-2.006,0.542-2.901,0.01L32.78,30.854z"/>
				</g>
			</g>
			<g>
				<g>
					<path style="fill:#FFFFFF;" d="M40.784,24.736l10.71-6.235C51.11,13.395,48.76,8.84,45.2,5.587
						c-4.139,0.155-10.512,1.759-15.343,4.701c0.634-0.127,1.528-0.196,2.2-0.196c5.463,0,9.891,4.428,9.891,9.891
						c0,1.118-0.188,2.191-0.53,3.194C41.255,23.706,41.041,24.225,40.784,24.736z"/>
				</g>
				<g>
					<path style="fill:#FFFFFF;" d="M22.165,19.984c0-0.692,0.071-1.366,0.206-2.017c0.379-1.903,1.356-3.944,2.924-5.62
						c4.592-4.91,13.011-7.328,18.601-7.853c-3.282-2.514-7.386-4.01-11.839-4.01c-10.28,0-18.696,7.956-19.441,18.045l10.794,6.258
						C22.618,23.364,22.165,21.728,22.165,19.984z"/>
				</g>
			</g>
		</g>
	</g>
</g>
</svg>
