<?xml version="1.0" encoding="iso-8859-1"?>
<!-- Generator: Adobe Illustrator 24.0.2, SVG Export Plug-In . SVG Version: 6.00 Build 0)  -->
<svg version="1.1" id="Layer_1" xmlns="http://www.w3.org/2000/svg" xmlns:xlink="http://www.w3.org/1999/xlink" x="0px" y="0px"
	 viewBox="0 0 200 52" style="enable-background:new 0 0 200 52;" xml:space="preserve">
<g>
	<g>
		<g>
			<path style="fill:#221F1F;" d="M66.134,43.305c0,1.877-1.314,3.178-3.486,3.178h-2.051v3.03h-1.676v-9.386h3.727
				C64.82,40.127,66.134,41.428,66.134,43.305z M64.404,43.305c0-1.033-0.63-1.609-1.77-1.609h-2.038v3.218h2.038
				C63.774,44.914,64.404,44.337,64.404,43.305z"/>
			<path style="fill:#221F1F;" d="M74.461,42.768v6.744h-1.394l-0.08-0.898c-0.429,0.67-1.167,1.073-2.051,1.073
				c-1.475,0-2.615-1.059-2.615-2.655v-4.264h1.569v4.063c0,0.912,0.684,1.394,1.448,1.394c0.778,0,1.569-0.55,1.569-1.542v-3.915
				C72.907,42.768,74.461,42.768,74.461,42.768z"/>
			<path style="fill:#221F1F;" d="M76.485,48.788l0.563-1.18c0.536,0.442,1.622,0.724,2.521,0.724c0.657,0,1.381-0.161,1.381-0.778
				c0-0.496-0.617-0.617-1.502-0.778c-1.663-0.295-2.668-0.644-2.668-1.984c0-1.703,1.569-2.199,2.923-2.199
				c1.019,0,1.971,0.295,2.641,0.751l-0.577,1.193c-0.51-0.362-1.26-0.59-2.078-0.59c-0.871,0-1.3,0.268-1.3,0.764
				c0,0.375,0.255,0.496,1.233,0.67c1.609,0.308,2.91,0.59,2.91,2.065c0,1.448-1.26,2.252-3.03,2.252
				C78.496,49.7,77.196,49.352,76.485,48.788z"/>
			<path style="fill:#221F1F;" d="M90.631,45.423v4.089H89.25l-0.094-0.965c-0.536,0.751-1.488,1.14-2.373,1.14
				c-1.207,0-2.36-0.738-2.36-2.132c0-1.542,1.408-2.145,2.722-2.145c0.576,0,1.287,0.08,1.931,0.268v-0.215
				c0-0.979-0.536-1.462-1.582-1.462c-0.684,0-1.435,0.215-2.038,0.67l-0.617-1.14c0.697-0.536,1.73-0.939,2.936-0.939
				C89.625,42.594,90.631,43.533,90.631,45.423z M89.075,46.764c-0.55-0.161-1.14-0.241-1.649-0.241
				c-0.791,0-1.408,0.268-1.408,0.952c0,0.577,0.456,0.885,1.14,0.885C88.097,48.359,89.075,47.743,89.075,46.764z"/>
			<path style="fill:#221F1F;" d="M98.26,49.03c-0.402,0.362-1.032,0.657-1.984,0.657c-1.649,0-2.561-0.872-2.561-2.548v-2.963
				h-1.314v-1.408h1.314v-2.024h1.569v2.024h2.561v1.408h-2.561v2.856c0,0.804,0.375,1.18,1.113,1.18
				c0.375,0,0.791-0.107,1.193-0.456L98.26,49.03z"/>
			<path style="fill:#221F1F;" d="M109.375,49.687c-2.802,0-4.881-1.998-4.881-4.881c0-2.91,2.132-4.854,4.894-4.854
				c1.475,0,2.829,0.55,3.727,1.595l-1.26,1.113c-0.617-0.738-1.475-1.1-2.467-1.1c-1.904,0-3.164,1.328-3.164,3.245
				c0,1.931,1.274,3.271,3.164,3.271c1.435,0,2.521-0.764,2.802-2.279h-2.802V44.35h4.599c0.027,0.147,0.04,0.295,0.04,0.63
				C114.054,47.796,112.083,49.687,109.375,49.687z"/>
			<path style="fill:#221F1F;" d="M120.865,42.742l-0.442,1.488c-0.255-0.094-0.523-0.161-0.791-0.161
				c-0.898,0-1.757,0.603-1.757,1.716v3.727h-1.569v-6.744h1.395l0.094,0.992c0.456-0.724,1.234-1.166,2.145-1.166
				C120.262,42.594,120.584,42.648,120.865,42.742z"/>
			<path style="fill:#221F1F;" d="M121.992,46.134c0-2.078,1.528-3.54,3.593-3.54s3.593,1.448,3.593,3.54
				c0,2.105-1.529,3.553-3.593,3.553S121.992,48.225,121.992,46.134z M127.57,46.134c0-1.234-0.805-2.078-1.985-2.078
				s-1.971,0.845-1.971,2.078c0,1.247,0.791,2.078,1.971,2.078C126.765,48.212,127.57,47.381,127.57,46.134z"/>
			<path style="fill:#221F1F;" d="M130.948,48.788l0.563-1.18c0.536,0.442,1.622,0.724,2.521,0.724c0.657,0,1.381-0.161,1.381-0.778
				c0-0.496-0.617-0.617-1.502-0.778c-1.663-0.295-2.668-0.644-2.668-1.984c0-1.703,1.569-2.199,2.923-2.199
				c1.019,0,1.971,0.295,2.641,0.751l-0.576,1.193c-0.51-0.362-1.26-0.59-2.078-0.59c-0.872,0-1.301,0.268-1.301,0.764
				c0,0.375,0.255,0.496,1.234,0.67c1.609,0.308,2.909,0.59,2.909,2.065c0,1.448-1.26,2.252-3.03,2.252
				C132.96,49.7,131.659,49.352,130.948,48.788z"/>
			<path style="fill:#221F1F;" d="M139.087,40.851c0-0.536,0.443-0.979,0.992-0.979c0.536,0,0.979,0.443,0.979,0.979
				c0,0.55-0.442,0.992-0.979,0.992C139.53,41.843,139.087,41.401,139.087,40.851z M140.857,49.513h-1.555v-6.744h1.555V49.513z"/>
			<path style="fill:#221F1F;" d="M148.178,42.742l-0.443,1.488c-0.255-0.094-0.523-0.161-0.791-0.161
				c-0.898,0-1.757,0.603-1.757,1.716v3.727h-1.569v-6.744h1.395l0.094,0.992c0.456-0.724,1.234-1.166,2.145-1.166
				C147.575,42.594,147.896,42.648,148.178,42.742z"/>
			<path style="fill:#221F1F;" d="M154.051,44.82c0-2.869,2.078-4.867,4.894-4.867s4.894,1.998,4.894,4.867
				s-2.078,4.867-4.894,4.867S154.051,47.689,154.051,44.82z M162.109,44.82c0-1.931-1.287-3.258-3.164-3.258
				s-3.164,1.328-3.164,3.258s1.287,3.258,3.164,3.258C160.821,48.078,162.109,46.751,162.109,44.82z"/>
			<path style="fill:#221F1F;" d="M172.473,45.249v4.264h-1.555v-3.969c0-0.872-0.59-1.488-1.475-1.488
				c-0.845,0-1.757,0.523-1.757,1.542v3.915h-1.569v-6.744h1.381l0.094,0.912c0.469-0.684,1.26-1.086,2.199-1.086
				C171.32,42.594,172.473,43.653,172.473,45.249z"/>
			<path style="fill:#221F1F;" d="M174.954,39.457h1.569v10.056h-1.569V39.457z"/>
			<path style="fill:#221F1F;" d="M179.07,40.851c0-0.536,0.443-0.979,0.992-0.979c0.536,0,0.979,0.443,0.979,0.979
				c0,0.55-0.443,0.992-0.979,0.992C179.512,41.843,179.07,41.401,179.07,40.851z M180.84,49.513h-1.555v-6.744h1.555V49.513z"/>
			<path style="fill:#221F1F;" d="M189.957,45.249v4.264h-1.555v-3.969c0-0.872-0.59-1.488-1.475-1.488
				c-0.845,0-1.757,0.523-1.757,1.542v3.915h-1.569v-6.744h1.381l0.094,0.912c0.469-0.684,1.26-1.086,2.199-1.086
				C188.804,42.594,189.957,43.653,189.957,45.249z"/>
			<path style="fill:#221F1F;" d="M195.696,48.306c0.684,0,1.314-0.255,1.77-0.711l1.006,1.032c-0.684,0.67-1.649,1.059-2.735,1.059
				c-2.078,0-3.62-1.435-3.62-3.58c0-2.052,1.421-3.513,3.513-3.513c2.186,0,3.245,1.555,3.245,3.151
				c0,0.215-0.04,0.684-0.094,0.965h-5.041C193.94,47.716,194.65,48.306,195.696,48.306z M193.738,45.517h3.58
				c-0.04-0.872-0.63-1.529-1.716-1.529C194.61,43.988,193.94,44.578,193.738,45.517z"/>
		</g>
		<g>
			<path style="fill:#FE9213;" d="M78.878,29.935c-0.718,0.57-1.504,1.058-2.358,1.467s-1.789,0.719-2.804,0.929
				c-1.016,0.21-2.154,0.316-3.417,0.316c-1.907,0-3.677-0.347-5.311-1.04c-1.634-0.693-3.045-1.64-4.234-2.841
				c-1.188-1.201-2.117-2.618-2.786-4.253c-0.668-1.634-1.003-3.38-1.003-5.237v-0.074c0-1.857,0.334-3.596,1.003-5.218
				c0.669-1.621,1.597-3.045,2.786-4.271s2.612-2.191,4.271-2.897c1.658-0.706,3.491-1.058,5.497-1.058
				c1.213,0,2.321,0.099,3.324,0.297s1.913,0.471,2.73,0.817c0.817,0.347,1.572,0.768,2.266,1.263
				c0.693,0.496,1.337,1.04,1.931,1.634l-3.64,4.197c-1.016-0.916-2.049-1.634-3.101-2.154c-1.053-0.52-2.235-0.78-3.547-0.78
				c-1.09,0-2.098,0.211-3.027,0.631c-0.929,0.421-1.727,1.003-2.396,1.745c-0.668,0.743-1.188,1.603-1.56,2.581
				c-0.371,0.978-0.557,2.024-0.557,3.138v0.074c0,1.114,0.186,2.167,0.557,3.157c0.371,0.991,0.885,1.857,1.541,2.6
				s1.448,1.331,2.377,1.764c0.928,0.433,1.95,0.65,3.064,0.65c1.485,0,2.742-0.272,3.77-0.817c1.027-0.544,2.048-1.287,3.064-2.228
				l3.64,3.677C80.289,28.722,79.595,29.366,78.878,29.935z"/>
			<path style="fill:#FE9213;" d="M85.785,32.2V6.203h5.719V32.2H85.785z"/>
			<path style="fill:#FE9213;" d="M101.124,14.346c0.198,0.496,0.557,0.949,1.077,1.358c0.52,0.409,1.238,0.781,2.154,1.116
				c0.916,0.335,2.092,0.651,3.528,0.948c2.897,0.645,5.032,1.537,6.407,2.678c1.374,1.141,2.061,2.715,2.061,4.724
				c0,1.117-0.22,2.133-0.66,3.051c-0.44,0.917-1.047,1.698-1.82,2.343s-1.704,1.141-2.794,1.488c-1.09,0.346-2.278,0.52-3.565,0.52
				c-2.08,0-3.98-0.336-5.701-1.007c-1.721-0.671-3.361-1.71-4.921-3.116l1.82-2.154c1.361,1.238,2.736,2.16,4.122,2.767
				c1.387,0.607,2.984,0.91,4.791,0.91c1.758,0,3.162-0.409,4.215-1.227c1.052-0.818,1.578-1.897,1.578-3.236
				c0-0.62-0.099-1.171-0.298-1.655c-0.199-0.483-0.546-0.923-1.043-1.32s-1.185-0.756-2.066-1.079
				c-0.881-0.323-2.004-0.633-3.369-0.93c-1.489-0.322-2.786-0.694-3.89-1.116c-1.105-0.421-2.017-0.93-2.737-1.525
				s-1.254-1.289-1.601-2.083c-0.348-0.794-0.521-1.736-0.521-2.827c0-1.041,0.21-1.996,0.631-2.864s1.015-1.618,1.783-2.25
				c0.767-0.633,1.671-1.128,2.711-1.488c1.04-0.36,2.179-0.54,3.417-0.54c1.906,0,3.571,0.263,4.995,0.787
				c1.423,0.525,2.804,1.314,4.141,2.369l-1.708,2.266c-1.213-0.99-2.433-1.708-3.658-2.154c-1.226-0.446-2.507-0.669-3.844-0.669
				c-0.842,0-1.603,0.112-2.284,0.335s-1.263,0.521-1.746,0.893s-0.854,0.818-1.114,1.339s-0.39,1.079-0.39,1.674
				C100.826,13.292,100.925,13.85,101.124,14.346z"/>
			<path style="fill:#FE9213;" d="M131.578,32.2h-2.934V8.914h-8.728V6.203h20.389v2.711h-8.728V32.2H131.578z"/>
			<path style="fill:#FE9213;" d="M168.457,24.308c-0.644,1.622-1.548,3.052-2.711,4.29c-1.164,1.238-2.563,2.223-4.197,2.953
				s-3.442,1.096-5.422,1.096c-1.981,0-3.782-0.359-5.404-1.077c-1.622-0.718-3.015-1.69-4.178-2.916
				c-1.164-1.226-2.061-2.649-2.693-4.271c-0.631-1.621-0.947-3.336-0.947-5.144c0-1.807,0.321-3.522,0.965-5.144
				c0.644-1.621,1.547-3.051,2.711-4.29c1.163-1.238,2.562-2.222,4.197-2.953c1.634-0.73,3.441-1.096,5.422-1.096
				s3.782,0.359,5.404,1.077c1.621,0.718,3.014,1.69,4.178,2.915c1.163,1.226,2.061,2.65,2.692,4.271
				c0.631,1.622,0.947,3.337,0.947,5.144C169.423,20.972,169.101,22.687,168.457,24.308z M165.616,15.042
				c-0.508-1.312-1.22-2.451-2.135-3.417c-0.916-0.966-2-1.733-3.25-2.303c-1.251-0.569-2.618-0.854-4.104-0.854
				c-1.485,0-2.854,0.278-4.104,0.836c-1.251,0.557-2.321,1.318-3.213,2.284c-0.891,0.966-1.591,2.098-2.098,3.398
				c-0.508,1.3-0.761,2.693-0.761,4.178c0,1.486,0.254,2.885,0.761,4.197c0.507,1.313,1.219,2.451,2.135,3.417
				s1.999,1.734,3.25,2.303c1.25,0.57,2.618,0.854,4.104,0.854s2.853-0.279,4.104-0.836c1.25-0.557,2.321-1.318,3.213-2.284
				s1.591-2.098,2.098-3.398c0.507-1.3,0.761-2.693,0.761-4.178C166.377,17.753,166.123,16.355,165.616,15.042z"/>
			<path style="fill:#FE9213;" d="M197.76,32.2h-3.677l-9.991-12.59l-5.534,5.608V32.2h-2.934V6.203h2.934v15.524l14.93-15.524
				h3.788l-11.142,11.365L197.76,32.2z"/>
		</g>
		<g>
			<g>
				<g>
					<path style="fill:#FE9213;" d="M1.126,25.247l6.15-3.529c0.905-0.519,2.019-0.512,2.917,0.019l16.35,9.669l-6.017,3.419
						c-0.895,0.509-1.993,0.504-2.884-0.012L1.126,25.247z"/>
				</g>
				<g>
					<path style="fill:#FE9213;" d="M28.05,32.016v19.179l-16.439-9.058c-0.925-0.51-1.499-1.482-1.499-2.538v-7.663l7.482,4.521
						c0.916,0.553,2.062,0.557,2.981,0.01L28.05,32.016z"/>
				</g>
				<g>
					<path style="fill:#FE9213;" d="M56.461,25.247l-6.15-3.529c-0.905-0.519-2.019-0.512-2.917,0.019l-16.35,9.669l6.017,3.419
						c0.895,0.509,1.993,0.504,2.884-0.012L56.461,25.247z"/>
				</g>
				<g>
					<path style="fill:#FE9213;" d="M29.537,32.016v19.179l16.439-9.058c0.925-0.51,1.499-1.482,1.499-2.538v-7.663l-7.482,4.521
						c-0.916,0.553-2.062,0.557-2.981,0.01L29.537,32.016z"/>
				</g>
			</g>
			<g>
				<g>
					<path style="fill:#FE9213;" d="M37.763,25.729l11.007-6.408c-0.395-5.247-2.811-9.928-6.469-13.272
						c-4.254,0.159-10.803,1.808-15.768,4.831c0.652-0.131,1.57-0.201,2.261-0.201c5.614,0,10.165,4.551,10.165,10.165
						c0,1.149-0.193,2.252-0.545,3.282C38.247,24.67,38.027,25.204,37.763,25.729z"/>
				</g>
				<g>
					<path style="fill:#FE9213;" d="M18.628,20.845c0-0.711,0.073-1.404,0.212-2.073c0.39-1.956,1.394-4.053,3.005-5.776
						c4.719-5.046,13.371-7.531,19.116-8.07c-3.373-2.584-7.59-4.121-12.167-4.121C18.229,0.805,9.58,8.981,8.815,19.35
						l11.093,6.431C19.094,24.319,18.628,22.637,18.628,20.845z"/>
				</g>
			</g>
		</g>
	</g>
</g>
<image style="overflow:visible;" width="425" height="252" xlink:href="38E9306A.jpg"  transform="matrix(1 0 0 1 217.6111 -96.065)">
</image>
</svg>
