<?xml version="1.0" encoding="utf-8"?>
<!-- Generator: Adobe Illustrator 25.0.1, SVG Export Plug-In . SVG Version: 6.00 Build 0)  -->
<svg version="1.1" id="Layer_1" xmlns="http://www.w3.org/2000/svg" xmlns:xlink="http://www.w3.org/1999/xlink" x="0px" y="0px"
	 viewBox="0 0 242.8 59.9" style="enable-background:new 0 0 242.8 59.9;" xml:space="preserve">
<style type="text/css">
	.st0{fill:#FFFFFF;}
</style>
<g>
	<path class="st0" d="M19.7,1.7C19,1.9,18.3,2,17.6,2.2c-3.5,1.2-6,3.6-7.9,6.8c-1.6,2.8-2.4,5.8-2.5,9c0,2.9,0.5,5.6,2.4,7.9
		c0.1,0.1,0.2,0.4,0.1,0.5c-0.1,0.1-0.3,0.2-0.5,0.2c-3.8-0.2-7.8-2.4-8.9-7.2c-1.1-5.1,0.5-9.4,4.4-12.8C8,3.7,11.9,2.1,16,1.1
		c3.1-0.7,6.3-1,9.5-1.1c4.1,0,7.8,1,11,3.6c3,2.4,4.7,5.5,5.4,9.2c1,5.3,0,10.2-3.4,14.5c-3.4,4.3-8,6.4-13.5,5.9
		c-5.4-0.5-9.5-3.4-11.8-8.2c-2.6-5.3-2.6-10.8,0-16.1c1.4-2.9,3.5-5.1,6.2-6.8c0.1-0.1,0.3-0.2,0.4-0.3C19.7,1.8,19.7,1.8,19.7,1.7
		z M19.6,17.5c0,1.7,0.2,4.1,0.7,6.6c0.5,2.1,1.1,4.2,2.5,6c1.2,1.5,2.7,2.3,4.7,2c1.6-0.2,2.7-1.2,3.5-2.5c1.2-1.7,1.8-3.6,2.2-5.6
		c0.6-3,0.8-6.1,0.6-9.2c-0.2-2.5-0.4-4.9-1.2-7.3c-0.6-1.8-1.4-3.5-2.8-4.8C28,1,25.3,1,23.5,2.8c-1.2,1.2-2,2.7-2.5,4.2
		C19.9,10.1,19.6,13.4,19.6,17.5z"/>
	<path class="st0" d="M137.1,22.7c-0.1,3.4-1.8,7-5.5,9.4c-3.9,2.5-8.8,2.1-12.4-0.9c-5.8-4.9-5.6-14.5,0.4-19.1
		c5.1-3.9,12.4-2.5,15.7,3.1C136.5,17.1,137.1,19.3,137.1,22.7z M118,21.6c0,2.1,0.6,4,1.7,5.6c3,4.2,8.9,4.5,12.2,0.6
		c2.7-3.1,2.9-8,0.5-11.4c-2.4-3.4-6.8-4.4-10.3-2.3C119.2,15.8,118.1,18.5,118,21.6z"/>
	<path class="st0" d="M143.7,20.3c1.4-1.4,2.7-2.8,4.1-4.3c1.8-1.8,3.5-3.7,5.3-5.5c0.6-0.6,1.4-0.7,2-0.2c0.6,0.5,0.8,1.6,0.3,2.2
		c-0.3,0.4-0.7,0.8-1,1.1c-1.9,1.9-3.7,3.8-5.6,5.7c-0.3,0.3-0.3,0.5,0,0.8c2.8,3.4,5.5,6.8,8.3,10.2c0.7,0.8,0.7,1.7,0.1,2.4
		c-0.7,0.7-1.6,0.7-2.3-0.1c-1.5-1.8-3-3.7-4.4-5.5c-1.4-1.7-2.7-3.4-4.1-5.1c-0.5,0.4-0.9,0.9-1.3,1.3c-1.2,0.9-1.6,2.1-1.5,3.6
		c0.1,1.5,0,3.1,0,4.6c0,1-0.6,1.7-1.5,1.8c-0.9,0-1.6-0.7-1.6-1.8c0-9.4,0-18.9,0-28.3c0-1,0.7-1.7,1.6-1.7c0.9,0,1.5,0.7,1.5,1.7
		c0,5.5,0,10.9,0,16.4c0,0.2,0,0.4,0,0.6C143.6,20.3,143.7,20.3,143.7,20.3z"/>
	<path class="st0" d="M49.9,21.1c0,2,0.3,4.2,1.5,6.1c1.8,2.7,4.6,3.4,7.7,1.9c0.8-0.4,1.5-1,2.3-1.5c0.2-0.1,0.3-0.3,0.4-0.4
		c0.2-0.1,0.5-0.1,0.7-0.2c0,0.2,0.1,0.5,0,0.7c-0.7,1.5-1.8,2.7-3.1,3.6c-3.9,2.9-10,2.4-13.2-1.1c-1.4-1.6-2.1-3.5-2.4-5.6
		c-0.3-2-0.2-3.9,0.3-5.9c1.3-5.2,6.1-8.6,11.4-8c1.5,0.2,3,0.6,4.2,1.6c1,0.8,1.3,1.8,1.1,3c-0.2,0.9-0.7,1.6-1.7,1.8
		c-1,0.2-2,0.2-2.7-0.7c-0.3-0.4-0.5-0.9-0.7-1.4c-0.2-0.6-0.4-1.3-0.7-1.9c-0.5-1-1.4-1.3-2.4-0.8c-0.9,0.4-1.4,1.2-1.8,2.1
		c-0.7,1.6-1,3.2-1.1,4.9C49.9,19.9,49.9,20.4,49.9,21.1z"/>
	<path class="st0" d="M229,14.7c0.2-0.4,0.5-0.8,0.7-1.2c1-1.7,2.5-2.7,4.5-3.1c2.1-0.4,4,0.2,5.7,1.7c1.1,0.9,1.9,2.1,2.2,3.5
		c0.2,0.7,0.3,1.4,0.3,2c0,4.7,0,9.4,0,14.1c0,0.6-0.4,1.1-1,1.1c-0.6,0-1-0.5-1-1.1c0-4.6,0.1-9.2,0-13.9c0-2.6-1.5-4.6-4.1-5.3
		c-1.7-0.5-4.1,0.5-5.1,2c-0.8,1.1-1.1,2.3-1.1,3.6c0,4.4,0,8.9,0,13.3c0,0.4-0.2,0.8-0.4,1.1c-0.3,0.3-0.8,0.4-1.1,0.1
		c-0.3-0.2-0.5-0.6-0.5-1c0-4.7,0-9.4,0-14.1c0-2-1-3.6-2.8-4.5c-3.1-1.7-6,0.1-7.2,2.9c-0.2,0.5-0.3,1.1-0.3,1.7
		c0,4.6,0,9.2,0,13.8c0,0.5,0,1-0.5,1.2c-0.7,0.4-1.5,0-1.5-0.9c0-4.9-0.1-9.8,0-14.7c0-1.6,0.8-3,1.8-4.2c0.8-0.9,1.7-1.7,2.8-2.1
		c0.9-0.3,1.8-0.6,2.7-0.5c2.4,0.1,4.2,1.2,5.4,3.2C228.7,13.9,228.8,14.3,229,14.7z"/>
	<path class="st0" d="M99,10.1c0.3,0,0.5,0,0.7,0c2.9,0,5.9,0,8.8,0c1.1,0,1.8,0.6,1.8,1.6c0,0.9-0.7,1.6-1.8,1.6
		c-2.9,0-5.9,0-8.8,0c-0.2,0-0.4,0-0.7,0c0,0.3,0,0.5,0,0.7c0,3.1,0,6.1,0,9.2c0.1,2,0.5,3.9,1.8,5.4c1.3,1.5,3,2.1,5,1.9
		c1.8-0.1,3.1-0.9,4.4-2.1c0.6-0.6,1.3-0.6,1.8-0.2c0.7,0.5,0.8,1.6,0.2,2.4c-1.6,1.7-3.5,2.8-5.8,3c-2.9,0.4-5.4-0.3-7.5-2.5
		c-1.6-1.6-2.4-3.7-2.8-5.9c-0.2-1-0.2-2.1-0.2-3.2c0-5.9,0-11.9,0-17.8c0-0.3,0-0.6,0.1-0.9c0.2-0.7,0.8-1.1,1.4-1.1
		c0.7,0,1.3,0.4,1.5,1.1C99,3.5,99,3.8,99,4.1C99,6.1,99,8,99,10.1z"/>
	<path class="st0" d="M84.2,9.8c3.1,0,5.3,1.1,6.9,3.4c0.2,0.2,0.3,0.6,0.4,0.9c0.2,0.8-0.2,1.4-0.8,1.7c-0.6,0.3-1.5,0.1-1.9-0.5
		c-1.4-2.3-4.7-2.7-6.9-1.9c-1,0.4-1.7,1.1-1.9,2.2c-0.2,1.2,0.2,2.3,1.3,2.9c1.1,0.6,2.4,1.1,3.6,1.5c1.7,0.6,3.4,1.2,4.9,2.2
		c3.6,2.3,3.1,6.8,0.9,9.1c-1.9,1.9-4.2,2.7-6.8,2.4c-1.1-0.1-2.2-0.3-3.3-0.7c-1.7-0.6-3-1.7-3.9-3.2c-0.5-0.8-0.4-1.7,0.3-2.2
		c0.6-0.4,1.8-0.3,2.2,0.5c1.4,2.5,5.3,2.9,7.4,2.1c1.5-0.5,2.8-1.9,2.7-3.6c-0.1-1-0.6-1.8-1.4-2.2c-1.3-0.7-2.7-1.2-4.1-1.8
		c-1.2-0.5-2.5-0.9-3.7-1.5c-2-1-3.2-2.6-3.3-4.9c-0.1-2.5,1.2-4.6,3.5-5.6C81.7,10.1,83,9.8,84.2,9.8z"/>
	<path class="st0" d="M191.3,21.6c-0.2-1.7,0.3-3.4,1-5c0.7-1.6,1.8-2.9,3.1-4c1.5-1.2,3.2-1.9,5.1-2.2c1.5-0.2,3,0,4.4,0.4
		c0.9,0.3,1.8,0.8,2.6,1.4c1.6,1,2.8,2.5,3.7,4.2c0.7,1.4,1.1,2.8,1.2,4.3c0.1,1.9-0.1,3.7-0.8,5.5c-0.4,0.9-1,1.8-1.5,2.6
		c-0.7,1.2-1.7,2.1-2.9,2.8c-2.5,1.6-5.2,2-8.1,1.2c-2.9-0.8-5-2.7-6.4-5.3C191.7,25.7,191.2,23.8,191.3,21.6z M201.8,31
		c2.9,0.1,5-1.1,6.6-3.2c1.8-2.3,2.3-4.9,1.8-7.7c-0.4-2.2-1.3-4-3-5.6c-1.9-1.8-4.3-2.4-6.8-2c-2.6,0.4-4.5,1.9-5.8,4.1
		c-1.1,1.9-1.6,4-1.3,6.2c0.2,1.8,0.8,3.5,1.9,4.9C196.9,29.8,199.1,31.1,201.8,31z"/>
	<path class="st0" d="M72.6,20.3c0,2.8,0,5.6,0,8.4c0,1.9,0.7,2.8,2.5,3.4c0.2,0.1,0.3,0.3,0.4,0.4c-0.2,0.1-0.4,0.2-0.6,0.2
		c-3.5,0-7.1,0-10.6,0c-0.2,0-0.3-0.2-0.5-0.3c0.2-0.1,0.3-0.3,0.5-0.4c1.5-0.4,2.5-1.5,2.4-3.3c-0.1-4.2,0-8.4,0-12.6
		c0-0.6-0.2-0.8-0.7-0.9c-0.4-0.1-0.9-0.2-1.3-0.4c-0.2-0.1-0.3-0.2-0.5-0.4c0.2-0.1,0.3-0.3,0.4-0.3c2.4-0.7,4.6-1.7,6.7-3
		c0.3-0.2,0.7-0.3,1.1-0.5c0,0.4,0.1,0.8,0.1,1.1C72.6,14.7,72.6,17.5,72.6,20.3z"/>
	<path class="st0" d="M181.3,31c2.1,0.1,3.9-0.8,5.5-2.2c0.2-0.2,0.5-0.4,0.7-0.4c0.3,0,0.8,0.1,0.9,0.3c0.2,0.3,0.2,0.9,0,1.2
		c-0.6,0.7-1.2,1.3-2,1.8c-1.9,1.2-4,1.7-6.2,1.5c-2.1-0.2-4-1.1-5.6-2.5c-2.1-1.8-3.2-4.1-3.6-6.8c-0.4-2.5-0.2-4.9,0.8-7.2
		c0.4-0.9,1-1.8,1.7-2.6c0.8-0.9,1.7-1.7,2.8-2.4c1.1-0.7,2.3-1.1,3.6-1.3c2.5-0.4,4.8,0.2,6.9,1.6c0.6,0.4,1,0.8,1.5,1.3
		c0.5,0.5,0.5,1.2,0.1,1.5s-1,0.3-1.5-0.2c-1.1-1.1-2.4-1.8-3.9-2.1c-1.4-0.2-2.9-0.2-4.3,0.3c-1.8,0.7-3.2,1.9-4.2,3.5
		c-0.8,1.2-1.2,2.6-1.4,4.1c-0.3,1.6,0,3.3,0.5,4.8c0.9,2.5,2.5,4.4,5,5.4c0.9,0.3,1.8,0.4,2.7,0.6C181.3,31.1,181.3,31,181.3,31z"
		/>
	<path class="st0" d="M166.7,49.1c0.1-1.8,0.7-3.4,2-4.7c1.1-1,2.4-1.5,3.9-1.7c1.3-0.2,2.6-0.1,3.9,0.3c2.5,0.8,4.1,2.9,4.3,5.5
		c0.1,1.3,0.1,2.6-0.3,3.9c-0.8,2.5-2.9,4.1-5.5,4.3c-1.3,0.1-2.6,0-3.8-0.4c-2.7-0.8-4-3-4.3-5.6C166.8,50.2,166.8,49.6,166.7,49.1
		z M173.8,44.6c-1.6,0-2.8,0.6-3.5,2.1c-0.9,2-1,4.1,0.1,6c1.4,2.6,5.2,2.7,6.8,0.2c1.1-1.8,1.1-3.7,0.5-5.6
		C177,45.6,175.6,44.6,173.8,44.6z"/>
	<path class="st0" d="M90.2,49.4c0.8,0.1,1.6,0.1,2.4,0.1c0.7,0.1,1.1,0.5,1.1,1.1c0,1.1,0,2.2,0,3.3c0,0.6-0.4,1-0.8,1.2
		c-1.4,0.8-2.8,1.3-4.4,1.4c-1.6,0.1-3.1,0-4.5-0.6c-2.3-0.9-3.5-2.7-3.9-5.2c-0.2-1.2-0.1-2.4,0.2-3.5c0.8-2.9,3.1-4.3,5.8-4.6
		c1.6-0.2,3.2-0.1,4.7,0.6c1,0.4,1.8,1.1,2.3,2.2c0.3,0.8,0.2,1.4-0.4,1.8c-0.7,0.4-1.3,0.2-1.8-0.5c-0.6-0.9-1.3-1.8-2.5-2
		c-2.9-0.5-4.9,1-5.3,3.8c-0.2,1.2-0.1,2.4,0.3,3.6c0.6,1.6,2,2.6,3.7,2.6c1.3,0.1,2.6-0.2,3.7-0.8c0.3-0.1,0.5-0.3,0.5-0.7
		c0-0.6,0.2-1.4-0.1-1.7c-0.3-0.3-1.1-0.1-1.7-0.2c-0.4,0-0.9-0.1-1.3-0.1c-0.4-0.1-0.7-0.2-0.8-0.7c0-0.5,0.2-0.9,0.7-0.9
		C88.6,49.4,89.4,49.4,90.2,49.4z"/>
	<path class="st0" d="M2.9,49.8c0-1.7,0-3.4,0-5.1c0-1.2,0.3-1.7,1.5-1.7c2.1,0,4.2,0,6.2,0.2c1.9,0.2,3.3,1.9,3.1,4.3
		c-0.2,2.3-2,3.4-4,3.5c-1.2,0.1-2.3,0.1-3.5,0.1c-0.4,0-0.5,0.1-0.5,0.5c0,1.2,0,2.4,0,3.6c0,1.1-0.9,1.7-1.9,1.3
		c-0.6-0.2-0.8-0.7-0.8-1.3c0-1.6,0-3.2,0-4.8C2.9,50.3,2.9,50,2.9,49.8z M7.3,44.8C7.3,44.8,7.3,44.8,7.3,44.8
		c-0.4,0.1-0.9,0-1.3,0.1c-0.2,0-0.4,0.2-0.4,0.4c0,1.2,0,2.4,0,3.6c0,0.1,0.2,0.4,0.3,0.4c1.2,0,2.4,0,3.5-0.2c1-0.2,1.5-1.1,1.5-2
		c-0.1-1.1-0.6-1.8-1.7-1.9C8.6,44.9,8,44.9,7.3,44.8z"/>
	<path class="st0" d="M54.8,55.3c-0.3,0.2-0.6,0.4-0.9,0.6c-1.2,0.7-2.4,1-3.8,0.8c-1.4-0.2-2.5-1.2-2.6-2.5
		c-0.1-1.4,0.7-2.5,2.2-2.9c1.3-0.3,2.7-0.6,4-0.9c0.3-0.1,0.8,0,0.9-0.5c0.1-0.5-0.3-1.3-0.8-1.5c-1.1-0.6-3-0.2-3.8,0.8
		c-0.2,0.2-0.3,0.4-0.5,0.6c-0.3,0.4-0.7,0.3-1.1,0.2c-0.4-0.1-0.6-0.4-0.6-0.9c0-0.9,0.5-1.4,1.2-1.8c1.2-0.7,2.6-0.9,4-0.8
		c0.5,0,1,0.1,1.4,0.2c1.7,0.3,2.5,1.3,2.6,3.1c0,0.9,0,1.9,0,2.8c0.1,0.9,0.2,1.7,0.4,2.6c0.2,0.8,0.1,1.1-0.4,1.4
		c-0.6,0.3-1.1,0.3-1.6-0.3C55.3,55.9,55,55.6,54.8,55.3z M54.6,51.6c-1,0.2-2,0.4-3,0.7c-0.2,0-0.4,0.1-0.5,0.2
		c-0.7,0.3-1,0.8-1,1.3c0,0.6,0.6,1.2,1.2,1.4C53.3,55.6,55.1,53.8,54.6,51.6z"/>
	<path class="st0" d="M238.2,52.1c-0.8,0-1.7,0-2.5,0c-0.4,0-0.5,0.1-0.4,0.5c0.3,2.3,2.4,3.1,4.1,2.2c0.5-0.3,1-0.8,1.5-1.1
		c0.3-0.2,0.6-0.3,0.9-0.3c0.6,0,0.9,0.5,0.7,1c-0.2,0.5-0.5,0.9-0.9,1.2c-1.2,1-2.6,1.2-4.1,1.1c-0.7-0.1-1.4-0.2-2-0.4
		c-2.3-0.9-3.1-3.2-2.9-5.3c0.1-1.5,0.7-2.8,2-3.6c2-1.3,5.1-1.2,6.7,0.3c0.9,0.8,1.4,1.8,1.4,3.1c0,0.8-0.3,1.2-1.2,1.3
		C240.4,52.1,239.3,52.2,238.2,52.1C238.2,52.2,238.2,52.2,238.2,52.1z M240.2,50.7c0-1-0.3-1.9-1.2-2.3c-0.9-0.5-1.8-0.5-2.7,0.1
		c-0.8,0.5-1,1.3-1,2.2C236.9,50.7,238.5,50.7,240.2,50.7z"/>
	<path class="st0" d="M120.2,51.6c0,2.9-1.6,4.7-4.5,5.1c-1.8,0.2-3.5-0.1-4.8-1.6c-1.5-1.6-1.6-3.6-0.9-5.5c0.7-1.9,2.2-2.8,4.1-3
		c1-0.1,2,0,2.9,0.3C119.1,47.5,120.2,49.2,120.2,51.6z M112.1,51.7c0.1,0.5,0.2,1.1,0.4,1.6c0.4,1.1,1.2,1.6,2.4,1.6
		c1.2,0,1.9-0.6,2.4-1.6c0.4-1,0.4-2.1,0.1-3.2c-0.4-1.3-1.3-1.9-2.6-1.9c-1.2,0-2.1,0.7-2.4,2C112.2,50.7,112.2,51.1,112.1,51.7z"
		/>
	<path class="st0" d="M26,55.1c-0.3,0.2-0.4,0.4-0.6,0.6c-1.3,1.1-2.8,1.3-4.3,0.9c-1.3-0.4-2-1.4-2-3c0-1.9,0-3.8,0-5.6
		c0-0.8,0.5-1.4,1.2-1.4c0.7-0.1,1.3,0.4,1.3,1.3c0.1,1.4,0,2.8,0.1,4.2c0,0.5,0,1.1,0.1,1.6c0.3,1.2,1.2,1.8,2.4,1.4
		c1.2-0.4,1.7-1.2,1.8-2.8c0-1.4,0-2.8,0-4.2c0-1,0.9-1.6,1.8-1.3c0.5,0.2,0.7,0.6,0.7,1.1c0,1.6,0,3.1,0,4.7c0,1,0,2.1,0,3.1
		c0,0.7-0.4,1.2-1.1,1.2c-0.6,0.1-1.1-0.4-1.3-1.1C26.1,55.5,26.1,55.3,26,55.1z"/>
	<path class="st0" d="M188.5,48.1c0.3-0.3,0.4-0.4,0.6-0.6c1.2-1.1,3.2-1.5,4.7-0.8c1.1,0.5,1.7,1.4,1.7,2.6c0,2,0,4,0,6
		c0,0.5-0.2,0.9-0.7,1.2c-0.9,0.4-1.8-0.2-1.8-1.3c0-1.4,0-2.9,0-4.4c0-0.4-0.1-0.8-0.1-1.2c-0.2-1.4-1.1-1.8-2.5-1.5
		c-1.1,0.3-1.7,1.2-1.7,2.4c0,1.3,0,2.5,0,3.8c0,0.3,0,0.7-0.1,1c-0.1,0.7-0.6,1.1-1.2,1.2c-0.6,0-1.2-0.5-1.3-1.2
		c0-0.2,0-0.3,0-0.5c0-2.4,0-4.8,0-7.3c0-1.1,0.8-1.6,1.6-1.2c0.3,0.2,0.5,0.6,0.7,0.9C188.5,47.6,188.5,47.8,188.5,48.1z"/>
	<path class="st0" d="M220.5,47.9c0.1-0.1,0.3-0.3,0.4-0.4c1.3-1.2,3.3-1.4,4.8-0.7c1,0.5,1.5,1.3,1.6,2.4c0,2.1,0,4.1,0,6.1
		c0,0.6-0.2,1-0.7,1.2c-0.9,0.4-1.8-0.2-1.8-1.3c0-1.5,0-3,0-4.5c0-0.4-0.1-0.9-0.1-1.3c-0.3-1.2-1.1-1.5-2.4-1.2
		c-1.1,0.2-1.7,1.2-1.8,2.4c0,1.3,0,2.5,0,3.8c0,0.3,0,0.7-0.1,1c-0.1,0.8-0.6,1.2-1.3,1.2c-0.7-0.1-1.2-0.6-1.2-1.3
		c0-0.6,0-1.3,0-1.9c0-1.9,0-3.8,0-5.8c0-0.5,0.1-0.9,0.6-1.2c0.4-0.2,0.9-0.2,1.2,0.1C220,47,220.2,47.5,220.5,47.9z"/>
	<path class="st0" d="M38,56.7c-1-0.1-2.2-0.2-3.2-0.8c-0.6-0.4-1.1-0.9-1.2-1.8c0-0.4,0.2-0.8,0.6-0.9c0.4-0.1,0.9-0.2,1.2,0.2
		c0.2,0.2,0.3,0.4,0.5,0.7c0.8,1.1,2.5,1.4,3.6,0.8c0.4-0.2,0.7-0.5,0.7-1c0-0.5-0.3-0.9-0.8-1.1c-0.8-0.3-1.6-0.5-2.4-0.7
		c-0.6-0.2-1.3-0.4-1.9-0.7c-0.8-0.4-1.4-1-1.5-2c0-1.1,0.5-1.8,1.4-2.3c0.8-0.5,1.7-0.7,2.6-0.7c0.9,0,1.8,0.2,2.7,0.5
		c0.6,0.2,1.1,0.7,1.6,1.2c0.4,0.4,0.3,1,0,1.3c-0.4,0.4-1.1,0.4-1.5,0.1c-0.3-0.2-0.5-0.5-0.8-0.8c-0.7-0.7-2-1-2.9-0.5
		c-0.3,0.2-0.6,0.5-0.6,0.8c0,0.3,0.3,0.7,0.6,0.8c0.8,0.3,1.7,0.5,2.5,0.8c0.7,0.2,1.4,0.4,2,0.7c2,1,2.1,3.4,0.2,4.6
		C40.7,56.4,39.4,56.7,38,56.7z"/>
	<path class="st0" d="M129.3,56.7c-1.2-0.1-2.3-0.2-3.3-0.9c-0.6-0.4-1.1-1-1.2-1.8c0-0.4,0.2-0.8,0.5-0.9c0.4-0.1,0.9-0.2,1.2,0.2
		c0.1,0.1,0.3,0.3,0.4,0.5c0.8,1.3,2.1,1.5,3.5,1.1c0.5-0.1,1-0.4,1-1.1c0-0.5-0.3-0.9-0.9-1.2c-1-0.3-2-0.6-2.9-0.9
		c-0.4-0.1-0.8-0.3-1.2-0.5c-0.8-0.4-1.4-1-1.4-2c0-1.1,0.5-1.8,1.3-2.4c0.8-0.5,1.7-0.7,2.7-0.7c0.9,0,1.8,0.1,2.6,0.4
		c0.6,0.2,1.1,0.7,1.6,1.2c0.4,0.4,0.3,1-0.1,1.3c-0.4,0.3-1.1,0.4-1.4,0.1c-0.3-0.2-0.5-0.5-0.8-0.8c-0.7-0.7-2-1-2.9-0.5
		c-0.4,0.2-0.7,0.4-0.6,0.9c0.1,0.3,0.3,0.7,0.6,0.8c0.8,0.3,1.7,0.5,2.5,0.8c0.7,0.2,1.3,0.4,1.9,0.7c0.9,0.4,1.5,1,1.6,2
		c0,1.1-0.4,2-1.4,2.6C131.6,56.6,130.4,56.6,129.3,56.7z"/>
	<path class="st0" d="M66,56.8c-0.6-0.1-1.1-0.1-1.5-0.2c-1.1-0.3-1.6-1-1.6-2.4c0-1.7,0-3.4,0-5.1c0-0.4-0.1-0.7-0.6-0.6
		c-0.1,0-0.3,0-0.4-0.1c-0.2-0.2-0.5-0.5-0.5-0.7c0-0.2,0.3-0.6,0.6-0.7s0.8-0.1,0.9-0.2c0.2-0.3,0.1-0.8,0.1-1.1c0-0.4,0-0.8,0-1.2
		c0-0.7,0.6-1.2,1.2-1.2c0.6,0,1.2,0.5,1.2,1.2c0,0.7,0,1.3,0,2c0,0.4,0.1,0.5,0.5,0.5c0.4,0,0.8,0,1.1,0.1c0.2,0.1,0.5,0.4,0.6,0.7
		c0.1,0.4-0.2,0.6-0.6,0.7c-0.4,0.1-0.7,0.1-1.1,0.1c-0.3,0-0.5,0.1-0.5,0.4c0,1.6,0,3.2,0,4.8c0,1.1,0.4,1.4,1.5,1.2
		c0.2,0,0.4-0.1,0.6-0.1c0.4,0,0.8,0.1,0.9,0.5s-0.1,0.8-0.5,0.9C67.3,56.5,66.6,56.6,66,56.8z"/>
	<path class="st0" d="M65.9,3.9c0-2.2,1.6-3.9,3.6-3.9c2,0,3.5,1.6,3.5,3.8c0,2.1-1.6,3.8-3.6,3.8C67.3,7.6,65.9,6.1,65.9,3.9z"/>
	<path class="st0" d="M201.3,49.6c0-1.8,0-3.7,0-5.5c0-0.9,0.5-1.5,1.2-1.5c0.8,0,1.2,0.5,1.2,1.5c0,3.8,0,7.5,0,11.3
		c0,1-0.8,1.6-1.7,1.2c-0.6-0.2-0.8-0.7-0.8-1.3C201.3,53.4,201.3,51.5,201.3,49.6z"/>
	<path class="st0" d="M101.8,48c0.2-0.3,0.4-0.4,0.5-0.6c1-1.4,2.9-1,3.9-0.3c0.4,0.3,0.5,0.7,0.2,1.1c-0.2,0.4-0.6,0.6-1.1,0.5
		c-0.4-0.1-0.9-0.2-1.3-0.3c-1-0.1-1.6,0.3-1.8,1.3c-0.2,0.8-0.3,1.6-0.4,2.5c-0.1,1,0,2.1,0,3.1c0,0.9-0.5,1.4-1.2,1.4
		c-0.7,0-1.2-0.5-1.3-1.4c0-2.5,0-5.1,0-7.6c0-1,0.8-1.6,1.6-1.2c0.3,0.1,0.5,0.6,0.7,0.9C101.7,47.5,101.7,47.7,101.8,48z"/>
	<path class="st0" d="M150.1,47.9c0.2-0.2,0.3-0.4,0.5-0.6c1-1.4,3-0.9,3.9-0.2c0.4,0.3,0.4,0.7,0.2,1.1c-0.2,0.4-0.6,0.6-1.1,0.5
		c-0.4-0.1-0.9-0.2-1.4-0.3c-1-0.1-1.5,0.3-1.8,1.2c-0.2,0.8-0.3,1.7-0.4,2.5c-0.1,1.1,0,2.2,0,3.2c0,0.7-0.5,1.1-1.1,1.2
		c-0.5,0.1-1.1-0.3-1.3-0.9c0-0.1-0.1-0.3-0.1-0.4c0-2.6,0-5.1,0-7.7c0-0.5,0.2-0.9,0.6-1.1c0.8-0.4,1.6,0,1.8,0.8
		c0,0.1,0,0.3,0.1,0.4C150,47.8,150.1,47.9,150.1,47.9z"/>
	<path class="st0" d="M141.8,51.6c0,1.2,0,2.5,0,3.7c0,0.9-0.5,1.4-1.3,1.4c-0.7,0-1.2-0.6-1.2-1.4c0-2.5,0-5,0-7.5
		c0-0.9,0.5-1.4,1.3-1.4c0.8,0,1.2,0.6,1.2,1.4C141.8,49.1,141.8,50.3,141.8,51.6C141.8,51.6,141.8,51.6,141.8,51.6z"/>
	<path class="st0" d="M209.6,51.6c0-1.2,0-2.5,0-3.7c0-0.9,0.5-1.4,1.3-1.4c0.8,0,1.2,0.6,1.2,1.4c0,2.5,0,4.9,0,7.4
		c0,0.9-0.5,1.5-1.3,1.5s-1.2-0.6-1.2-1.5C209.6,54,209.6,52.8,209.6,51.6z"/>
	<path class="st0" d="M161.4,31.7c0-0.9,0.5-1.5,1.3-1.5c0.8,0,1.4,0.7,1.4,1.5c0,0.8-0.8,1.4-1.4,1.5
		C162.1,33.1,161.3,32.4,161.4,31.7z"/>
	<path class="st0" d="M141.8,44c0,0.7-0.5,1.2-1.2,1.2c-0.7,0-1.3-0.5-1.3-1.2c0-0.7,0.6-1.2,1.3-1.2
		C141.3,42.9,141.8,43.4,141.8,44z"/>
	<path class="st0" d="M212.1,44.1c0,0.6-0.6,1.2-1.3,1.1c-0.7,0-1.3-0.5-1.2-1.2c0-0.6,0.6-1.1,1.3-1.1
		C211.6,42.8,212.1,43.4,212.1,44.1z"/>
</g>
</svg>
