<?xml version="1.0" encoding="utf-8"?>
<!-- Generator: Adobe Illustrator 25.0.1, SVG Export Plug-In . SVG Version: 6.00 Build 0)  -->
<svg version="1.1" id="Layer_1" xmlns="http://www.w3.org/2000/svg" xmlns:xlink="http://www.w3.org/1999/xlink" x="0px" y="0px"
	 viewBox="0 0 95 32.53" style="enable-background:new 0 0 95 32.53;" xml:space="preserve">
<style type="text/css">
	.st0{fill-rule:evenodd;clip-rule:evenodd;fill:#4C3494;}
</style>
<path class="st0" d="M32.11,1.72H44.3l0.01,4.89l-3,0l7.11,16.87l7-16.85h-3.09V1.74l9.76-0.01l-0.01,2.79L50.34,31.93
	c-2.84,0.01-4.68-1.02-5.67-3.17L35,6.62l-2.89-0.01L32.11,1.72L32.11,1.72z M15.35,0.86c8.48,0,15.35,6.92,15.35,15.46
	c0,8.53-6.87,15.45-15.35,15.45S0,24.85,0,16.32C0,7.78,6.87,0.86,15.35,0.86L15.35,0.86z M15.3,5.92c5.35,0,9.68,4.71,9.68,10.51
	s-4.34,10.51-9.68,10.51s-9.68-4.71-9.68-10.51S9.95,5.92,15.3,5.92z M79.4,0.86c8.48,0,15.35,6.92,15.35,15.46
	c0,8.53-6.87,15.45-15.35,15.45s-15.35-6.92-15.35-15.45C64.05,7.78,70.92,0.86,79.4,0.86L79.4,0.86z M79.35,5.92
	c5.35,0,9.68,4.71,9.68,10.51s-4.33,10.51-9.68,10.51c-5.35,0-9.68-4.71-9.68-10.51S74,5.92,79.35,5.92z"/>
</svg>
