<svg width="100" height="100" viewBox="0 0 100 100" fill="none" xmlns="http://www.w3.org/2000/svg">
<rect width="100" height="100" fill="white"/>
<path d="M32.3647 35.3428C31.1954 35.3428 30.0739 35.7288 29.2471 36.4161C28.4203 37.1033 27.9558 38.0353 27.9558 39.0072V46.336C29.1251 46.336 30.2465 46.722 31.0733 47.4092C31.9002 48.0965 32.3647 49.0285 32.3647 50.0004C32.3647 50.9722 31.9002 51.9043 31.0733 52.5915C30.2465 53.2787 29.1251 53.6648 27.9558 53.6648V60.9936C27.9558 61.9654 28.4203 62.8975 29.2471 63.5847C30.0739 64.2719 31.1954 64.658 32.3647 64.658H67.6354C68.8047 64.658 69.9261 64.2719 70.7529 63.5847C71.5797 62.8975 72.0443 61.9654 72.0443 60.9936V53.6648C70.875 53.6648 69.7535 53.2787 68.9267 52.5915C68.0999 51.9043 67.6354 50.9722 67.6354 50.0004C67.6354 49.0285 68.0999 48.0965 68.9267 47.4092C69.7535 46.722 70.875 46.336 72.0443 46.336V39.0072C72.0443 38.0353 71.5797 37.1033 70.7529 36.4161C69.9261 35.7288 68.8047 35.3428 67.6354 35.3428H32.3647ZM57.7155 40.8394L61.0221 43.5877L42.2846 59.1614L38.9779 56.4131L57.7155 40.8394ZM42.9679 40.9127C45.1283 40.9127 46.8698 42.3601 46.8698 44.1557C46.8698 45.0157 46.4587 45.8406 45.7269 46.4488C44.9952 47.057 44.0028 47.3986 42.9679 47.3986C40.8076 47.3986 39.0661 45.9512 39.0661 44.1557C39.0661 43.2956 39.4772 42.4707 40.2089 41.8625C40.9407 41.2543 41.9331 40.9127 42.9679 40.9127M57.0321 52.6021C59.1925 52.6021 60.934 54.0495 60.934 55.8451C60.934 56.7052 60.5229 57.53 59.7911 58.1382C59.0594 58.7464 58.067 59.0881 57.0321 59.0881C54.8718 59.0881 53.1303 57.6406 53.1303 55.8451C53.1303 54.985 53.5414 54.1601 54.2731 53.5519C55.0049 52.9438 55.9973 52.6021 57.0321 52.6021V52.6021Z" fill="#8E8E8E"/>
</svg>
