<svg width="67" height="60" viewBox="0 0 67 60" fill="none" xmlns="http://www.w3.org/2000/svg">
<path d="M31.1037 36.0032V24.0048C31.1037 23.3684 31.3558 22.758 31.8045 22.308C32.2533 21.8579 32.8619 21.6051 33.4965 21.6051C34.1311 21.6051 34.7398 21.8579 35.1885 22.308C35.6372 22.758 35.8893 23.3684 35.8893 24.0048V36.0032C35.8893 36.6396 35.6372 37.25 35.1885 37.7C34.7398 38.15 34.1311 38.4029 33.4965 38.4029C32.8619 38.4029 32.2533 38.15 31.8045 37.7C31.3558 37.25 31.1037 36.6396 31.1037 36.0032ZM66.039 56.4004C65.4109 57.4976 64.5045 58.4085 63.4119 59.0407C62.3192 59.6729 61.0792 60.0038 59.8177 60H7.17534C5.91383 60.0047 4.67354 59.6746 3.58042 59.0431C2.48729 58.4116 1.58026 57.5013 0.951433 56.4045C0.322604 55.3078 -0.00562589 54.0637 7.29635e-05 52.7986C0.00577182 51.5335 0.345196 50.2924 0.98388 49.2014L27.2751 3.60752C27.9046 2.51096 28.811 1.60013 29.9033 0.9668C30.9955 0.333466 32.2349 0 33.4965 0C34.7582 0 35.9975 0.333466 37.0897 0.9668C38.182 1.60013 39.0885 2.51096 39.7179 3.60752L66.0091 49.2014C66.6526 50.2901 66.9947 51.5313 66.9999 52.7968C67.0052 54.0624 66.6735 55.3064 66.039 56.4004ZM61.8815 51.6011L48.7209 28.8041L35.5603 6.0072C35.3492 5.64635 35.0477 5.34712 34.6857 5.1392C34.3236 4.93128 33.9137 4.8219 33.4965 4.8219C33.0793 4.8219 32.6694 4.93128 32.3074 5.1392C31.9453 5.34712 31.6438 5.64635 31.4327 6.0072L5.11152 51.6011C4.89547 51.9638 4.78139 52.3784 4.78139 52.8009C4.78139 53.2234 4.89547 53.638 5.11152 54.0008C5.31847 54.3664 5.61868 54.6702 5.98136 54.881C6.34404 55.0919 6.75613 55.2022 7.17534 55.2006H59.8177C60.2369 55.2022 60.649 55.0919 61.0117 54.881C61.3743 54.6702 61.6745 54.3664 61.8815 54.0008C62.0975 53.638 62.2116 53.2234 62.2116 52.8009C62.2116 52.3784 62.0975 51.9638 61.8815 51.6011ZM33.4965 43.2022C32.7866 43.2022 32.0927 43.4133 31.5024 43.8088C30.9122 44.2044 30.4521 44.7665 30.1805 45.4243C29.9088 46.082 29.8377 46.8057 29.9762 47.504C30.1147 48.2022 30.4566 48.8436 30.9585 49.347C31.4605 49.8504 32.1 50.1932 32.7963 50.3321C33.4925 50.471 34.2142 50.3997 34.8701 50.1272C35.5259 49.8548 36.0865 49.3934 36.4809 48.8015C36.8752 48.2096 37.0858 47.5136 37.0858 46.8017C37.0858 45.8471 36.7076 44.9315 36.0345 44.2565C35.3614 43.5814 34.4484 43.2022 33.4965 43.2022Z" fill="#FFD233"/>
</svg>
